solid obj1
facet normal 0 0 1
outer loop
vertex -1.226068 8.458889 1.278941
vertex -1.426068 8.458889 1.278941
vertex -1.226068 8.258889 1.278941
endloop
endfacet
facet normal 0 0 1
outer loop
vertex -1.226068 8.258889 1.278941
vertex -1.426068 8.458889 1.278941
vertex -1.426068 8.258889 1.278941
endloop
endfacet
facet normal 0 0 1
outer loop
vertex -1.226068 8.258889 1.278941
vertex -1.426068 8.258889 1.278941
vertex -1.226068 8.058889 1.278941
endloop
endfacet
facet normal 0 0 1
outer loop
vertex -1.226068 8.058889 1.278941
vertex -1.426068 8.258889 1.278941
vertex -1.426068 8.058889 1.278941
endloop
endfacet
facet normal 0 0 1
outer loop
vertex -1.226068 8.058889 1.278941
vertex -1.426068 8.058889 1.278941
vertex -1.226068 7.858889 1.278941
endloop
endfacet
facet normal 0 0 1
outer loop
vertex -1.226068 7.858889 1.278941
vertex -1.426068 8.058889 1.278941
vertex -1.426068 7.858889 1.278941
endloop
endfacet
facet normal 0 0 1
outer loop
vertex -1.226068 7.858889 1.278941
vertex -1.426068 7.858889 1.278941
vertex -1.226068 7.658889 1.278941
endloop
endfacet
facet normal 0 0 1
outer loop
vertex -1.226068 7.658889 1.278941
vertex -1.426068 7.858889 1.278941
vertex -1.426068 7.658889 1.278941
endloop
endfacet
facet normal 0 0 1
outer loop
vertex -1.226068 7.658889 1.278941
vertex -1.426068 7.658889 1.278941
vertex -1.226068 7.458889 1.278941
endloop
endfacet
facet normal 0 0 1
outer loop
vertex -1.226068 7.458889 1.278941
vertex -1.426068 7.658889 1.278941
vertex -1.426068 7.458889 1.278941
endloop
endfacet
facet normal 0 0 1
outer loop
vertex -1.426068 7.458889 1.278941
vertex -1.426068 7.658889 1.278941
vertex -1.626068 7.658889 1.278941
endloop
endfacet
facet normal 0 0 1
outer loop
vertex -1.426068 7.458889 1.278941
vertex -1.626068 7.658889 1.278941
vertex -1.626068 7.458889 1.278941
endloop
endfacet
facet normal 0 0 1
outer loop
vertex -1.626068 7.458889 1.278941
vertex -1.626068 7.658889 1.278941
vertex -1.826068 7.658889 1.278941
endloop
endfacet
facet normal 0 0 1
outer loop
vertex -1.626068 7.458889 1.278941
vertex -1.826068 7.658889 1.278941
vertex -1.826068 7.458889 1.278941
endloop
endfacet
facet normal 0 0 1
outer loop
vertex -1.826068 7.458889 1.278941
vertex -1.826068 7.658889 1.278941
vertex -2.026068 7.658889 1.278941
endloop
endfacet
facet normal 0 0 1
outer loop
vertex -1.826068 7.458889 1.278941
vertex -2.026068 7.658889 1.278941
vertex -2.026068 7.458889 1.278941
endloop
endfacet
facet normal 0 0 1
outer loop
vertex -2.026068 7.458889 1.278941
vertex -2.026068 7.658889 1.278941
vertex -2.226068 7.658889 1.278941
endloop
endfacet
facet normal 0 0 1
outer loop
vertex -2.026068 7.458889 1.278941
vertex -2.226068 7.658889 1.278941
vertex -2.226068 7.458889 1.278941
endloop
endfacet
facet normal 0 0 1
outer loop
vertex -1.426068 8.458889 1.278941
vertex -1.626068 8.458889 1.278941
vertex -1.426068 8.258889 1.278941
endloop
endfacet
facet normal 0 0 1
outer loop
vertex -1.426068 8.258889 1.278941
vertex -1.626068 8.458889 1.278941
vertex -1.626068 8.258889 1.278941
endloop
endfacet
facet normal 0 0 1
outer loop
vertex -1.426068 8.258889 1.278941
vertex -1.626068 8.258889 1.278941
vertex -1.426068 8.058889 1.278941
endloop
endfacet
facet normal 0 0 1
outer loop
vertex -1.426068 8.058889 1.278941
vertex -1.626068 8.258889 1.278941
vertex -1.626068 8.058889 1.278941
endloop
endfacet
facet normal 0 0 1
outer loop
vertex -1.426068 8.058889 1.278941
vertex -1.626068 8.058889 1.278941
vertex -1.426068 7.858889 1.278941
endloop
endfacet
facet normal 0 0 1
outer loop
vertex -1.426068 7.858889 1.278941
vertex -1.626068 8.058889 1.278941
vertex -1.626068 7.858889 1.278941
endloop
endfacet
facet normal 0 0 1
outer loop
vertex -1.426068 7.858889 1.278941
vertex -1.626068 7.858889 1.278941
vertex -1.426068 7.658889 1.278941
endloop
endfacet
facet normal 0 0 1
outer loop
vertex -1.426068 7.658889 1.278941
vertex -1.626068 7.858889 1.278941
vertex -1.626068 7.658889 1.278941
endloop
endfacet
facet normal 0 0 1
outer loop
vertex -1.626068 8.458889 1.278941
vertex -1.826068 8.458889 1.278941
vertex -1.626068 8.258889 1.278941
endloop
endfacet
facet normal 0 0 1
outer loop
vertex -1.626068 8.258889 1.278941
vertex -1.826068 8.458889 1.278941
vertex -1.826068 8.258889 1.278941
endloop
endfacet
facet normal 0 0 1
outer loop
vertex -1.626068 8.258889 1.278941
vertex -1.826068 8.258889 1.278941
vertex -1.626068 8.058889 1.278941
endloop
endfacet
facet normal 0 0 1
outer loop
vertex -1.626068 8.058889 1.278941
vertex -1.826068 8.258889 1.278941
vertex -1.826068 8.058889 1.278941
endloop
endfacet
facet normal 0 0 1
outer loop
vertex -1.626068 8.058889 1.278941
vertex -1.826068 8.058889 1.278941
vertex -1.626068 7.858889 1.278941
endloop
endfacet
facet normal 0 0 1
outer loop
vertex -1.626068 7.858889 1.278941
vertex -1.826068 8.058889 1.278941
vertex -1.826068 7.858889 1.278941
endloop
endfacet
facet normal 0 0 1
outer loop
vertex -1.626068 7.858889 1.278941
vertex -1.826068 7.858889 1.278941
vertex -1.626068 7.658889 1.278941
endloop
endfacet
facet normal 0 0 1
outer loop
vertex -1.626068 7.658889 1.278941
vertex -1.826068 7.858889 1.278941
vertex -1.826068 7.658889 1.278941
endloop
endfacet
facet normal 0 0 1
outer loop
vertex -1.826068 8.458889 1.278941
vertex -2.026068 8.458889 1.278941
vertex -1.826068 8.258889 1.278941
endloop
endfacet
facet normal 0 0 1
outer loop
vertex -1.826068 8.258889 1.278941
vertex -2.026068 8.458889 1.278941
vertex -2.026068 8.258889 1.278941
endloop
endfacet
facet normal 0 0 1
outer loop
vertex -1.826068 8.258889 1.278941
vertex -2.026068 8.258889 1.278941
vertex -1.826068 8.058889 1.278941
endloop
endfacet
facet normal 0 0 1
outer loop
vertex -1.826068 8.058889 1.278941
vertex -2.026068 8.258889 1.278941
vertex -2.026068 8.058889 1.278941
endloop
endfacet
facet normal 0 0 1
outer loop
vertex -1.826068 8.058889 1.278941
vertex -2.026068 8.058889 1.278941
vertex -1.826068 7.858889 1.278941
endloop
endfacet
facet normal 0 0 1
outer loop
vertex -1.826068 7.858889 1.278941
vertex -2.026068 8.058889 1.278941
vertex -2.026068 7.858889 1.278941
endloop
endfacet
facet normal 0 0 1
outer loop
vertex -1.826068 7.858889 1.278941
vertex -2.026068 7.858889 1.278941
vertex -1.826068 7.658889 1.278941
endloop
endfacet
facet normal 0 0 1
outer loop
vertex -1.826068 7.658889 1.278941
vertex -2.026068 7.858889 1.278941
vertex -2.026068 7.658889 1.278941
endloop
endfacet
facet normal 0 0 1
outer loop
vertex -2.026068 8.458889 1.278941
vertex -2.226068 8.458889 1.278941
vertex -2.026068 8.258889 1.278941
endloop
endfacet
facet normal 0 0 1
outer loop
vertex -2.026068 8.258889 1.278941
vertex -2.226068 8.458889 1.278941
vertex -2.226068 8.258889 1.278941
endloop
endfacet
facet normal 0 0 1
outer loop
vertex -2.026068 8.258889 1.278941
vertex -2.226068 8.258889 1.278941
vertex -2.026068 8.058889 1.278941
endloop
endfacet
facet normal 0 0 1
outer loop
vertex -2.026068 8.058889 1.278941
vertex -2.226068 8.258889 1.278941
vertex -2.226068 8.058889 1.278941
endloop
endfacet
facet normal 0 0 1
outer loop
vertex -2.026068 8.058889 1.278941
vertex -2.226068 8.058889 1.278941
vertex -2.026068 7.858889 1.278941
endloop
endfacet
facet normal 0 0 1
outer loop
vertex -2.026068 7.858889 1.278941
vertex -2.226068 8.058889 1.278941
vertex -2.226068 7.858889 1.278941
endloop
endfacet
facet normal 0 0 1
outer loop
vertex -2.026068 7.858889 1.278941
vertex -2.226068 7.858889 1.278941
vertex -2.026068 7.658889 1.278941
endloop
endfacet
facet normal 0 0 1
outer loop
vertex -2.026068 7.658889 1.278941
vertex -2.226068 7.858889 1.278941
vertex -2.226068 7.658889 1.278941
endloop
endfacet
facet normal 0 0 -1
outer loop
vertex -1.426068 8.458889 -0.2210586
vertex -1.226068 8.458889 -0.2210586
vertex -1.426068 8.258889 -0.2210586
endloop
endfacet
facet normal 0 0 -1
outer loop
vertex -1.426068 8.258889 -0.2210586
vertex -1.226068 8.458889 -0.2210586
vertex -1.226068 8.258889 -0.2210586
endloop
endfacet
facet normal 0 0 -1
outer loop
vertex -1.426068 8.258889 -0.2210586
vertex -1.226068 8.258889 -0.2210586
vertex -1.426068 8.058889 -0.2210586
endloop
endfacet
facet normal 0 0 -1
outer loop
vertex -1.426068 8.058889 -0.2210586
vertex -1.226068 8.258889 -0.2210586
vertex -1.226068 8.058889 -0.2210586
endloop
endfacet
facet normal 0 0 -1
outer loop
vertex -1.426068 8.058889 -0.2210586
vertex -1.226068 8.058889 -0.2210586
vertex -1.426068 7.858889 -0.2210586
endloop
endfacet
facet normal 0 0 -1
outer loop
vertex -1.426068 7.858889 -0.2210586
vertex -1.226068 8.058889 -0.2210586
vertex -1.226068 7.858889 -0.2210586
endloop
endfacet
facet normal 0 0 -1
outer loop
vertex -1.426068 7.858889 -0.2210586
vertex -1.226068 7.858889 -0.2210586
vertex -1.426068 7.658889 -0.2210586
endloop
endfacet
facet normal 0 0 -1
outer loop
vertex -1.426068 7.658889 -0.2210586
vertex -1.226068 7.858889 -0.2210586
vertex -1.226068 7.658889 -0.2210586
endloop
endfacet
facet normal 0 0 -1
outer loop
vertex -1.426068 7.658889 -0.2210586
vertex -1.226068 7.658889 -0.2210586
vertex -1.426068 7.458889 -0.2210586
endloop
endfacet
facet normal 0 0 -1
outer loop
vertex -1.426068 7.458889 -0.2210586
vertex -1.226068 7.658889 -0.2210586
vertex -1.226068 7.458889 -0.2210586
endloop
endfacet
facet normal 0 0 -1
outer loop
vertex -1.426068 7.458889 -0.2210586
vertex -1.626068 7.458889 -0.2210586
vertex -1.426068 7.658889 -0.2210586
endloop
endfacet
facet normal 0 0 -1
outer loop
vertex -1.426068 7.658889 -0.2210586
vertex -1.626068 7.458889 -0.2210586
vertex -1.626068 7.658889 -0.2210586
endloop
endfacet
facet normal 0 0 -1
outer loop
vertex -1.426068 7.658889 -0.2210586
vertex -1.626068 7.658889 -0.2210586
vertex -1.426068 7.858889 -0.2210586
endloop
endfacet
facet normal 0 0 -1
outer loop
vertex -1.426068 7.858889 -0.2210586
vertex -1.626068 7.658889 -0.2210586
vertex -1.626068 7.858889 -0.2210586
endloop
endfacet
facet normal 0 0 -1
outer loop
vertex -1.426068 7.858889 -0.2210586
vertex -1.626068 7.858889 -0.2210586
vertex -1.426068 8.058889 -0.2210586
endloop
endfacet
facet normal 0 0 -1
outer loop
vertex -1.426068 8.058889 -0.2210586
vertex -1.626068 7.858889 -0.2210586
vertex -1.626068 8.058889 -0.2210586
endloop
endfacet
facet normal 0 0 -1
outer loop
vertex -1.426068 8.058889 -0.2210586
vertex -1.626068 8.058889 -0.2210586
vertex -1.426068 8.258889 -0.2210586
endloop
endfacet
facet normal 0 0 -1
outer loop
vertex -1.426068 8.258889 -0.2210586
vertex -1.626068 8.058889 -0.2210586
vertex -1.626068 8.258889 -0.2210586
endloop
endfacet
facet normal 0 0 -1
outer loop
vertex -1.426068 8.258889 -0.2210586
vertex -1.626068 8.258889 -0.2210586
vertex -1.426068 8.458889 -0.2210586
endloop
endfacet
facet normal 0 0 -1
outer loop
vertex -1.426068 8.458889 -0.2210586
vertex -1.626068 8.258889 -0.2210586
vertex -1.626068 8.458889 -0.2210586
endloop
endfacet
facet normal 0 0 -1
outer loop
vertex -1.626068 8.458889 -0.2210586
vertex -1.626068 8.258889 -0.2210586
vertex -1.826068 8.258889 -0.2210586
endloop
endfacet
facet normal 0 0 -1
outer loop
vertex -1.626068 8.458889 -0.2210586
vertex -1.826068 8.258889 -0.2210586
vertex -1.826068 8.458889 -0.2210586
endloop
endfacet
facet normal 0 0 -1
outer loop
vertex -1.826068 8.458889 -0.2210586
vertex -1.826068 8.258889 -0.2210586
vertex -2.026068 8.258889 -0.2210586
endloop
endfacet
facet normal 0 0 -1
outer loop
vertex -1.826068 8.458889 -0.2210586
vertex -2.026068 8.258889 -0.2210586
vertex -2.026068 8.458889 -0.2210586
endloop
endfacet
facet normal 0 0 -1
outer loop
vertex -2.026068 8.458889 -0.2210586
vertex -2.026068 8.258889 -0.2210586
vertex -2.226068 8.258889 -0.2210586
endloop
endfacet
facet normal 0 0 -1
outer loop
vertex -2.026068 8.458889 -0.2210586
vertex -2.226068 8.258889 -0.2210586
vertex -2.226068 8.458889 -0.2210586
endloop
endfacet
facet normal 0 0 -1
outer loop
vertex -1.626068 7.458889 -0.2210586
vertex -1.826068 7.458889 -0.2210586
vertex -1.626068 7.658889 -0.2210586
endloop
endfacet
facet normal 0 0 -1
outer loop
vertex -1.626068 7.658889 -0.2210586
vertex -1.826068 7.458889 -0.2210586
vertex -1.826068 7.658889 -0.2210586
endloop
endfacet
facet normal 0 0 -1
outer loop
vertex -1.626068 7.658889 -0.2210586
vertex -1.826068 7.658889 -0.2210586
vertex -1.626068 7.858889 -0.2210586
endloop
endfacet
facet normal 0 0 -1
outer loop
vertex -1.626068 7.858889 -0.2210586
vertex -1.826068 7.658889 -0.2210586
vertex -1.826068 7.858889 -0.2210586
endloop
endfacet
facet normal 0 0 -1
outer loop
vertex -1.626068 7.858889 -0.2210586
vertex -1.826068 7.858889 -0.2210586
vertex -1.626068 8.058889 -0.2210586
endloop
endfacet
facet normal 0 0 -1
outer loop
vertex -1.626068 8.058889 -0.2210586
vertex -1.826068 7.858889 -0.2210586
vertex -1.826068 8.058889 -0.2210586
endloop
endfacet
facet normal 0 0 -1
outer loop
vertex -1.626068 8.058889 -0.2210586
vertex -1.826068 8.058889 -0.2210586
vertex -1.626068 8.258889 -0.2210586
endloop
endfacet
facet normal 0 0 -1
outer loop
vertex -1.626068 8.258889 -0.2210586
vertex -1.826068 8.058889 -0.2210586
vertex -1.826068 8.258889 -0.2210586
endloop
endfacet
facet normal 0 0 -1
outer loop
vertex -1.826068 7.458889 -0.2210586
vertex -2.026068 7.458889 -0.2210586
vertex -1.826068 7.658889 -0.2210586
endloop
endfacet
facet normal 0 0 -1
outer loop
vertex -1.826068 7.658889 -0.2210586
vertex -2.026068 7.458889 -0.2210586
vertex -2.026068 7.658889 -0.2210586
endloop
endfacet
facet normal 0 0 -1
outer loop
vertex -1.826068 7.658889 -0.2210586
vertex -2.026068 7.658889 -0.2210586
vertex -1.826068 7.858889 -0.2210586
endloop
endfacet
facet normal 0 0 -1
outer loop
vertex -1.826068 7.858889 -0.2210586
vertex -2.026068 7.658889 -0.2210586
vertex -2.026068 7.858889 -0.2210586
endloop
endfacet
facet normal 0 0 -1
outer loop
vertex -1.826068 7.858889 -0.2210586
vertex -2.026068 7.858889 -0.2210586
vertex -1.826068 8.058889 -0.2210586
endloop
endfacet
facet normal 0 0 -1
outer loop
vertex -1.826068 8.058889 -0.2210586
vertex -2.026068 7.858889 -0.2210586
vertex -2.026068 8.058889 -0.2210586
endloop
endfacet
facet normal 0 0 -1
outer loop
vertex -1.826068 8.058889 -0.2210586
vertex -2.026068 8.058889 -0.2210586
vertex -1.826068 8.258889 -0.2210586
endloop
endfacet
facet normal 0 0 -1
outer loop
vertex -1.826068 8.258889 -0.2210586
vertex -2.026068 8.058889 -0.2210586
vertex -2.026068 8.258889 -0.2210586
endloop
endfacet
facet normal 0 0 -1
outer loop
vertex -2.026068 7.458889 -0.2210586
vertex -2.226068 7.458889 -0.2210586
vertex -2.026068 7.658889 -0.2210586
endloop
endfacet
facet normal 0 0 -1
outer loop
vertex -2.026068 7.658889 -0.2210586
vertex -2.226068 7.458889 -0.2210586
vertex -2.226068 7.658889 -0.2210586
endloop
endfacet
facet normal 0 0 -1
outer loop
vertex -2.026068 7.658889 -0.2210586
vertex -2.226068 7.658889 -0.2210586
vertex -2.026068 7.858889 -0.2210586
endloop
endfacet
facet normal 0 0 -1
outer loop
vertex -2.026068 7.858889 -0.2210586
vertex -2.226068 7.658889 -0.2210586
vertex -2.226068 7.858889 -0.2210586
endloop
endfacet
facet normal 0 0 -1
outer loop
vertex -2.026068 7.858889 -0.2210586
vertex -2.226068 7.858889 -0.2210586
vertex -2.026068 8.058889 -0.2210586
endloop
endfacet
facet normal 0 0 -1
outer loop
vertex -2.026068 8.058889 -0.2210586
vertex -2.226068 7.858889 -0.2210586
vertex -2.226068 8.058889 -0.2210586
endloop
endfacet
facet normal 0 0 -1
outer loop
vertex -2.026068 8.058889 -0.2210586
vertex -2.226068 8.058889 -0.2210586
vertex -2.026068 8.258889 -0.2210586
endloop
endfacet
facet normal 0 0 -1
outer loop
vertex -2.026068 8.258889 -0.2210586
vertex -2.226068 8.058889 -0.2210586
vertex -2.226068 8.258889 -0.2210586
endloop
endfacet
facet normal 0 1 0
outer loop
vertex -2.226068 8.458889 1.091441
vertex -2.226068 8.458889 1.278941
vertex -2.026068 8.458889 1.091441
endloop
endfacet
facet normal 0 1 0
outer loop
vertex -2.026068 8.458889 1.091441
vertex -2.226068 8.458889 1.278941
vertex -2.026068 8.458889 1.278941
endloop
endfacet
facet normal 0 1 0
outer loop
vertex -2.026068 8.458889 1.091441
vertex -2.026068 8.458889 1.278941
vertex -1.826068 8.458889 1.091441
endloop
endfacet
facet normal 0 1 0
outer loop
vertex -1.826068 8.458889 1.091441
vertex -2.026068 8.458889 1.278941
vertex -1.826068 8.458889 1.278941
endloop
endfacet
facet normal 0 1 0
outer loop
vertex -1.826068 8.458889 1.091441
vertex -1.826068 8.458889 1.278941
vertex -1.626068 8.458889 1.091441
endloop
endfacet
facet normal 0 1 0
outer loop
vertex -1.626068 8.458889 1.091441
vertex -1.826068 8.458889 1.278941
vertex -1.626068 8.458889 1.278941
endloop
endfacet
facet normal 0 1 0
outer loop
vertex -1.626068 8.458889 1.091441
vertex -1.626068 8.458889 1.278941
vertex -1.426068 8.458889 1.091441
endloop
endfacet
facet normal 0 1 0
outer loop
vertex -1.426068 8.458889 1.091441
vertex -1.626068 8.458889 1.278941
vertex -1.426068 8.458889 1.278941
endloop
endfacet
facet normal 0 1 0
outer loop
vertex -1.426068 8.458889 1.091441
vertex -1.426068 8.458889 1.278941
vertex -1.226068 8.458889 1.091441
endloop
endfacet
facet normal 0 1 0
outer loop
vertex -1.226068 8.458889 1.091441
vertex -1.426068 8.458889 1.278941
vertex -1.226068 8.458889 1.278941
endloop
endfacet
facet normal 0 1 0
outer loop
vertex -1.226068 8.458889 1.091441
vertex -1.226068 8.458889 0.9039414
vertex -1.426068 8.458889 1.091441
endloop
endfacet
facet normal 0 1 0
outer loop
vertex -1.426068 8.458889 1.091441
vertex -1.226068 8.458889 0.9039414
vertex -1.426068 8.458889 0.9039414
endloop
endfacet
facet normal 0 1 0
outer loop
vertex -1.426068 8.458889 1.091441
vertex -1.426068 8.458889 0.9039414
vertex -1.626068 8.458889 1.091441
endloop
endfacet
facet normal 0 1 0
outer loop
vertex -1.626068 8.458889 1.091441
vertex -1.426068 8.458889 0.9039414
vertex -1.626068 8.458889 0.9039414
endloop
endfacet
facet normal 0 1 0
outer loop
vertex -1.626068 8.458889 1.091441
vertex -1.626068 8.458889 0.9039414
vertex -1.826068 8.458889 1.091441
endloop
endfacet
facet normal 0 1 0
outer loop
vertex -1.826068 8.458889 1.091441
vertex -1.626068 8.458889 0.9039414
vertex -1.826068 8.458889 0.9039414
endloop
endfacet
facet normal 0 1 0
outer loop
vertex -1.826068 8.458889 1.091441
vertex -1.826068 8.458889 0.9039414
vertex -2.026068 8.458889 1.091441
endloop
endfacet
facet normal 0 1 0
outer loop
vertex -2.026068 8.458889 1.091441
vertex -1.826068 8.458889 0.9039414
vertex -2.026068 8.458889 0.9039414
endloop
endfacet
facet normal 0 1 0
outer loop
vertex -2.026068 8.458889 1.091441
vertex -2.026068 8.458889 0.9039414
vertex -2.226068 8.458889 1.091441
endloop
endfacet
facet normal 0 1 0
outer loop
vertex -2.226068 8.458889 1.091441
vertex -2.026068 8.458889 0.9039414
vertex -2.226068 8.458889 0.9039414
endloop
endfacet
facet normal 0 1 0
outer loop
vertex -2.226068 8.458889 0.9039414
vertex -2.026068 8.458889 0.9039414
vertex -2.026068 8.458889 0.7164414
endloop
endfacet
facet normal 0 1 0
outer loop
vertex -2.226068 8.458889 0.9039414
vertex -2.026068 8.458889 0.7164414
vertex -2.226068 8.458889 0.7164414
endloop
endfacet
facet normal 0 1 0
outer loop
vertex -2.226068 8.458889 0.7164414
vertex -2.026068 8.458889 0.7164414
vertex -2.026068 8.458889 0.5289414
endloop
endfacet
facet normal 0 1 0
outer loop
vertex -2.226068 8.458889 0.7164414
vertex -2.026068 8.458889 0.5289414
vertex -2.226068 8.458889 0.5289414
endloop
endfacet
facet normal 0 1 0
outer loop
vertex -2.226068 8.458889 0.5289414
vertex -2.026068 8.458889 0.5289414
vertex -2.026068 8.458889 0.3414414
endloop
endfacet
facet normal 0 1 0
outer loop
vertex -2.226068 8.458889 0.5289414
vertex -2.026068 8.458889 0.3414414
vertex -2.226068 8.458889 0.3414414
endloop
endfacet
facet normal 0 1 0
outer loop
vertex -2.226068 8.458889 0.3414414
vertex -2.026068 8.458889 0.3414414
vertex -2.026068 8.458889 0.1539414
endloop
endfacet
facet normal 0 1 0
outer loop
vertex -2.226068 8.458889 0.3414414
vertex -2.026068 8.458889 0.1539414
vertex -2.226068 8.458889 0.1539414
endloop
endfacet
facet normal 0 1 0
outer loop
vertex -2.226068 8.458889 0.1539414
vertex -2.026068 8.458889 0.1539414
vertex -2.026068 8.458889 -0.03355865
endloop
endfacet
facet normal 0 1 0
outer loop
vertex -2.226068 8.458889 0.1539414
vertex -2.026068 8.458889 -0.03355865
vertex -2.226068 8.458889 -0.03355865
endloop
endfacet
facet normal 0 1 0
outer loop
vertex -2.226068 8.458889 -0.03355865
vertex -2.026068 8.458889 -0.03355865
vertex -2.026068 8.458889 -0.2210586
endloop
endfacet
facet normal 0 1 0
outer loop
vertex -2.226068 8.458889 -0.03355865
vertex -2.026068 8.458889 -0.2210586
vertex -2.226068 8.458889 -0.2210586
endloop
endfacet
facet normal 0 1 0
outer loop
vertex -1.226068 8.458889 0.9039414
vertex -1.226068 8.458889 0.7164414
vertex -1.426068 8.458889 0.9039414
endloop
endfacet
facet normal 0 1 0
outer loop
vertex -1.426068 8.458889 0.9039414
vertex -1.226068 8.458889 0.7164414
vertex -1.426068 8.458889 0.7164414
endloop
endfacet
facet normal 0 1 0
outer loop
vertex -1.426068 8.458889 0.9039414
vertex -1.426068 8.458889 0.7164414
vertex -1.626068 8.458889 0.9039414
endloop
endfacet
facet normal 0 1 0
outer loop
vertex -1.626068 8.458889 0.9039414
vertex -1.426068 8.458889 0.7164414
vertex -1.626068 8.458889 0.7164414
endloop
endfacet
facet normal 0 1 0
outer loop
vertex -1.626068 8.458889 0.9039414
vertex -1.626068 8.458889 0.7164414
vertex -1.826068 8.458889 0.9039414
endloop
endfacet
facet normal 0 1 0
outer loop
vertex -1.826068 8.458889 0.9039414
vertex -1.626068 8.458889 0.7164414
vertex -1.826068 8.458889 0.7164414
endloop
endfacet
facet normal 0 1 0
outer loop
vertex -1.826068 8.458889 0.9039414
vertex -1.826068 8.458889 0.7164414
vertex -2.026068 8.458889 0.9039414
endloop
endfacet
facet normal 0 1 0
outer loop
vertex -2.026068 8.458889 0.9039414
vertex -1.826068 8.458889 0.7164414
vertex -2.026068 8.458889 0.7164414
endloop
endfacet
facet normal 0 1 0
outer loop
vertex -1.226068 8.458889 0.7164414
vertex -1.226068 8.458889 0.5289414
vertex -1.426068 8.458889 0.7164414
endloop
endfacet
facet normal 0 1 0
outer loop
vertex -1.426068 8.458889 0.7164414
vertex -1.226068 8.458889 0.5289414
vertex -1.426068 8.458889 0.5289414
endloop
endfacet
facet normal 0 1 0
outer loop
vertex -1.426068 8.458889 0.7164414
vertex -1.426068 8.458889 0.5289414
vertex -1.626068 8.458889 0.7164414
endloop
endfacet
facet normal 0 1 0
outer loop
vertex -1.626068 8.458889 0.7164414
vertex -1.426068 8.458889 0.5289414
vertex -1.626068 8.458889 0.5289414
endloop
endfacet
facet normal 0 1 0
outer loop
vertex -1.626068 8.458889 0.7164414
vertex -1.626068 8.458889 0.5289414
vertex -1.826068 8.458889 0.7164414
endloop
endfacet
facet normal 0 1 0
outer loop
vertex -1.826068 8.458889 0.7164414
vertex -1.626068 8.458889 0.5289414
vertex -1.826068 8.458889 0.5289414
endloop
endfacet
facet normal 0 1 0
outer loop
vertex -1.826068 8.458889 0.7164414
vertex -1.826068 8.458889 0.5289414
vertex -2.026068 8.458889 0.7164414
endloop
endfacet
facet normal 0 1 0
outer loop
vertex -2.026068 8.458889 0.7164414
vertex -1.826068 8.458889 0.5289414
vertex -2.026068 8.458889 0.5289414
endloop
endfacet
facet normal 0 1 0
outer loop
vertex -1.226068 8.458889 0.5289414
vertex -1.226068 8.458889 0.3414414
vertex -1.426068 8.458889 0.5289414
endloop
endfacet
facet normal 0 1 0
outer loop
vertex -1.426068 8.458889 0.5289414
vertex -1.226068 8.458889 0.3414414
vertex -1.426068 8.458889 0.3414414
endloop
endfacet
facet normal 0 1 0
outer loop
vertex -1.426068 8.458889 0.5289414
vertex -1.426068 8.458889 0.3414414
vertex -1.626068 8.458889 0.5289414
endloop
endfacet
facet normal 0 1 0
outer loop
vertex -1.626068 8.458889 0.5289414
vertex -1.426068 8.458889 0.3414414
vertex -1.626068 8.458889 0.3414414
endloop
endfacet
facet normal 0 1 0
outer loop
vertex -1.626068 8.458889 0.5289414
vertex -1.626068 8.458889 0.3414414
vertex -1.826068 8.458889 0.5289414
endloop
endfacet
facet normal 0 1 0
outer loop
vertex -1.826068 8.458889 0.5289414
vertex -1.626068 8.458889 0.3414414
vertex -1.826068 8.458889 0.3414414
endloop
endfacet
facet normal 0 1 0
outer loop
vertex -1.826068 8.458889 0.5289414
vertex -1.826068 8.458889 0.3414414
vertex -2.026068 8.458889 0.5289414
endloop
endfacet
facet normal 0 1 0
outer loop
vertex -2.026068 8.458889 0.5289414
vertex -1.826068 8.458889 0.3414414
vertex -2.026068 8.458889 0.3414414
endloop
endfacet
facet normal 0 1 0
outer loop
vertex -1.226068 8.458889 0.3414414
vertex -1.226068 8.458889 0.1539414
vertex -1.426068 8.458889 0.3414414
endloop
endfacet
facet normal 0 1 0
outer loop
vertex -1.426068 8.458889 0.3414414
vertex -1.226068 8.458889 0.1539414
vertex -1.426068 8.458889 0.1539414
endloop
endfacet
facet normal 0 1 0
outer loop
vertex -1.426068 8.458889 0.3414414
vertex -1.426068 8.458889 0.1539414
vertex -1.626068 8.458889 0.3414414
endloop
endfacet
facet normal 0 1 0
outer loop
vertex -1.626068 8.458889 0.3414414
vertex -1.426068 8.458889 0.1539414
vertex -1.626068 8.458889 0.1539414
endloop
endfacet
facet normal 0 1 0
outer loop
vertex -1.626068 8.458889 0.3414414
vertex -1.626068 8.458889 0.1539414
vertex -1.826068 8.458889 0.3414414
endloop
endfacet
facet normal 0 1 0
outer loop
vertex -1.826068 8.458889 0.3414414
vertex -1.626068 8.458889 0.1539414
vertex -1.826068 8.458889 0.1539414
endloop
endfacet
facet normal 0 1 0
outer loop
vertex -1.826068 8.458889 0.3414414
vertex -1.826068 8.458889 0.1539414
vertex -2.026068 8.458889 0.3414414
endloop
endfacet
facet normal 0 1 0
outer loop
vertex -2.026068 8.458889 0.3414414
vertex -1.826068 8.458889 0.1539414
vertex -2.026068 8.458889 0.1539414
endloop
endfacet
facet normal 0 1 0
outer loop
vertex -1.226068 8.458889 0.1539414
vertex -1.226068 8.458889 -0.03355865
vertex -1.426068 8.458889 0.1539414
endloop
endfacet
facet normal 0 1 0
outer loop
vertex -1.426068 8.458889 0.1539414
vertex -1.226068 8.458889 -0.03355865
vertex -1.426068 8.458889 -0.03355865
endloop
endfacet
facet normal 0 1 0
outer loop
vertex -1.426068 8.458889 0.1539414
vertex -1.426068 8.458889 -0.03355865
vertex -1.626068 8.458889 0.1539414
endloop
endfacet
facet normal 0 1 0
outer loop
vertex -1.626068 8.458889 0.1539414
vertex -1.426068 8.458889 -0.03355865
vertex -1.626068 8.458889 -0.03355865
endloop
endfacet
facet normal 0 1 0
outer loop
vertex -1.626068 8.458889 0.1539414
vertex -1.626068 8.458889 -0.03355865
vertex -1.826068 8.458889 0.1539414
endloop
endfacet
facet normal 0 1 0
outer loop
vertex -1.826068 8.458889 0.1539414
vertex -1.626068 8.458889 -0.03355865
vertex -1.826068 8.458889 -0.03355865
endloop
endfacet
facet normal 0 1 0
outer loop
vertex -1.826068 8.458889 0.1539414
vertex -1.826068 8.458889 -0.03355865
vertex -2.026068 8.458889 0.1539414
endloop
endfacet
facet normal 0 1 0
outer loop
vertex -2.026068 8.458889 0.1539414
vertex -1.826068 8.458889 -0.03355865
vertex -2.026068 8.458889 -0.03355865
endloop
endfacet
facet normal 0 1 0
outer loop
vertex -1.226068 8.458889 -0.03355865
vertex -1.226068 8.458889 -0.2210586
vertex -1.426068 8.458889 -0.03355865
endloop
endfacet
facet normal 0 1 0
outer loop
vertex -1.426068 8.458889 -0.03355865
vertex -1.226068 8.458889 -0.2210586
vertex -1.426068 8.458889 -0.2210586
endloop
endfacet
facet normal 0 1 0
outer loop
vertex -1.426068 8.458889 -0.03355865
vertex -1.426068 8.458889 -0.2210586
vertex -1.626068 8.458889 -0.03355865
endloop
endfacet
facet normal 0 1 0
outer loop
vertex -1.626068 8.458889 -0.03355865
vertex -1.426068 8.458889 -0.2210586
vertex -1.626068 8.458889 -0.2210586
endloop
endfacet
facet normal 0 1 0
outer loop
vertex -1.626068 8.458889 -0.03355865
vertex -1.626068 8.458889 -0.2210586
vertex -1.826068 8.458889 -0.03355865
endloop
endfacet
facet normal 0 1 0
outer loop
vertex -1.826068 8.458889 -0.03355865
vertex -1.626068 8.458889 -0.2210586
vertex -1.826068 8.458889 -0.2210586
endloop
endfacet
facet normal 0 1 0
outer loop
vertex -1.826068 8.458889 -0.03355865
vertex -1.826068 8.458889 -0.2210586
vertex -2.026068 8.458889 -0.03355865
endloop
endfacet
facet normal 0 1 0
outer loop
vertex -2.026068 8.458889 -0.03355865
vertex -1.826068 8.458889 -0.2210586
vertex -2.026068 8.458889 -0.2210586
endloop
endfacet
facet normal -1 0 0
outer loop
vertex -2.226068 7.458889 1.091441
vertex -2.226068 7.458889 1.278941
vertex -2.226068 7.658889 1.091441
endloop
endfacet
facet normal -1 0 0
outer loop
vertex -2.226068 7.658889 1.091441
vertex -2.226068 7.458889 1.278941
vertex -2.226068 7.658889 1.278941
endloop
endfacet
facet normal -1 0 0
outer loop
vertex -2.226068 7.658889 1.091441
vertex -2.226068 7.658889 1.278941
vertex -2.226068 7.858889 1.091441
endloop
endfacet
facet normal -1 0 0
outer loop
vertex -2.226068 7.858889 1.091441
vertex -2.226068 7.658889 1.278941
vertex -2.226068 7.858889 1.278941
endloop
endfacet
facet normal -1 0 0
outer loop
vertex -2.226068 7.858889 1.091441
vertex -2.226068 7.858889 1.278941
vertex -2.226068 8.058889 1.091441
endloop
endfacet
facet normal -1 0 0
outer loop
vertex -2.226068 8.058889 1.091441
vertex -2.226068 7.858889 1.278941
vertex -2.226068 8.058889 1.278941
endloop
endfacet
facet normal -1 0 0
outer loop
vertex -2.226068 8.058889 1.091441
vertex -2.226068 8.058889 1.278941
vertex -2.226068 8.258889 1.091441
endloop
endfacet
facet normal -1 0 0
outer loop
vertex -2.226068 8.258889 1.091441
vertex -2.226068 8.058889 1.278941
vertex -2.226068 8.258889 1.278941
endloop
endfacet
facet normal -1 0 0
outer loop
vertex -2.226068 8.258889 1.091441
vertex -2.226068 8.258889 1.278941
vertex -2.226068 8.458889 1.091441
endloop
endfacet
facet normal -1 0 0
outer loop
vertex -2.226068 8.458889 1.091441
vertex -2.226068 8.258889 1.278941
vertex -2.226068 8.458889 1.278941
endloop
endfacet
facet normal -1 0 0
outer loop
vertex -2.226068 8.458889 1.091441
vertex -2.226068 8.458889 0.9039414
vertex -2.226068 8.258889 1.091441
endloop
endfacet
facet normal -1 0 0
outer loop
vertex -2.226068 8.258889 1.091441
vertex -2.226068 8.458889 0.9039414
vertex -2.226068 8.258889 0.9039414
endloop
endfacet
facet normal -1 0 0
outer loop
vertex -2.226068 8.258889 1.091441
vertex -2.226068 8.258889 0.9039414
vertex -2.226068 8.058889 1.091441
endloop
endfacet
facet normal -1 0 0
outer loop
vertex -2.226068 8.058889 1.091441
vertex -2.226068 8.258889 0.9039414
vertex -2.226068 8.058889 0.9039414
endloop
endfacet
facet normal -1 0 0
outer loop
vertex -2.226068 8.058889 1.091441
vertex -2.226068 8.058889 0.9039414
vertex -2.226068 7.858889 1.091441
endloop
endfacet
facet normal -1 0 0
outer loop
vertex -2.226068 7.858889 1.091441
vertex -2.226068 8.058889 0.9039414
vertex -2.226068 7.858889 0.9039414
endloop
endfacet
facet normal -1 0 0
outer loop
vertex -2.226068 7.858889 1.091441
vertex -2.226068 7.858889 0.9039414
vertex -2.226068 7.658889 1.091441
endloop
endfacet
facet normal -1 0 0
outer loop
vertex -2.226068 7.658889 1.091441
vertex -2.226068 7.858889 0.9039414
vertex -2.226068 7.658889 0.9039414
endloop
endfacet
facet normal -1 0 0
outer loop
vertex -2.226068 7.658889 1.091441
vertex -2.226068 7.658889 0.9039414
vertex -2.226068 7.458889 1.091441
endloop
endfacet
facet normal -1 0 0
outer loop
vertex -2.226068 7.458889 1.091441
vertex -2.226068 7.658889 0.9039414
vertex -2.226068 7.458889 0.9039414
endloop
endfacet
facet normal -1 0 0
outer loop
vertex -2.226068 7.458889 0.9039414
vertex -2.226068 7.658889 0.9039414
vertex -2.226068 7.658889 0.7164414
endloop
endfacet
facet normal -1 0 0
outer loop
vertex -2.226068 7.458889 0.9039414
vertex -2.226068 7.658889 0.7164414
vertex -2.226068 7.458889 0.7164414
endloop
endfacet
facet normal -1 0 0
outer loop
vertex -2.226068 7.458889 0.7164414
vertex -2.226068 7.658889 0.7164414
vertex -2.226068 7.658889 0.5289414
endloop
endfacet
facet normal -1 0 0
outer loop
vertex -2.226068 7.458889 0.7164414
vertex -2.226068 7.658889 0.5289414
vertex -2.226068 7.458889 0.5289414
endloop
endfacet
facet normal -1 0 0
outer loop
vertex -2.226068 7.458889 0.5289414
vertex -2.226068 7.658889 0.5289414
vertex -2.226068 7.658889 0.3414414
endloop
endfacet
facet normal -1 0 0
outer loop
vertex -2.226068 7.458889 0.5289414
vertex -2.226068 7.658889 0.3414414
vertex -2.226068 7.458889 0.3414414
endloop
endfacet
facet normal -1 0 0
outer loop
vertex -2.226068 7.458889 0.3414414
vertex -2.226068 7.658889 0.3414414
vertex -2.226068 7.658889 0.1539414
endloop
endfacet
facet normal -1 0 0
outer loop
vertex -2.226068 7.458889 0.3414414
vertex -2.226068 7.658889 0.1539414
vertex -2.226068 7.458889 0.1539414
endloop
endfacet
facet normal -1 0 0
outer loop
vertex -2.226068 7.458889 0.1539414
vertex -2.226068 7.658889 0.1539414
vertex -2.226068 7.658889 -0.03355865
endloop
endfacet
facet normal -1 0 0
outer loop
vertex -2.226068 7.458889 0.1539414
vertex -2.226068 7.658889 -0.03355865
vertex -2.226068 7.458889 -0.03355865
endloop
endfacet
facet normal -1 0 0
outer loop
vertex -2.226068 7.458889 -0.03355865
vertex -2.226068 7.658889 -0.03355865
vertex -2.226068 7.658889 -0.2210586
endloop
endfacet
facet normal -1 0 0
outer loop
vertex -2.226068 7.458889 -0.03355865
vertex -2.226068 7.658889 -0.2210586
vertex -2.226068 7.458889 -0.2210586
endloop
endfacet
facet normal -1 0 0
outer loop
vertex -2.226068 8.458889 0.9039414
vertex -2.226068 8.458889 0.7164414
vertex -2.226068 8.258889 0.9039414
endloop
endfacet
facet normal -1 0 0
outer loop
vertex -2.226068 8.258889 0.9039414
vertex -2.226068 8.458889 0.7164414
vertex -2.226068 8.258889 0.7164414
endloop
endfacet
facet normal -1 0 0
outer loop
vertex -2.226068 8.258889 0.9039414
vertex -2.226068 8.258889 0.7164414
vertex -2.226068 8.058889 0.9039414
endloop
endfacet
facet normal -1 0 0
outer loop
vertex -2.226068 8.058889 0.9039414
vertex -2.226068 8.258889 0.7164414
vertex -2.226068 8.058889 0.7164414
endloop
endfacet
facet normal -1 0 0
outer loop
vertex -2.226068 8.058889 0.9039414
vertex -2.226068 8.058889 0.7164414
vertex -2.226068 7.858889 0.9039414
endloop
endfacet
facet normal -1 0 0
outer loop
vertex -2.226068 7.858889 0.9039414
vertex -2.226068 8.058889 0.7164414
vertex -2.226068 7.858889 0.7164414
endloop
endfacet
facet normal -1 0 0
outer loop
vertex -2.226068 7.858889 0.9039414
vertex -2.226068 7.858889 0.7164414
vertex -2.226068 7.658889 0.9039414
endloop
endfacet
facet normal -1 0 0
outer loop
vertex -2.226068 7.658889 0.9039414
vertex -2.226068 7.858889 0.7164414
vertex -2.226068 7.658889 0.7164414
endloop
endfacet
facet normal -1 0 0
outer loop
vertex -2.226068 8.458889 0.7164414
vertex -2.226068 8.458889 0.5289414
vertex -2.226068 8.258889 0.7164414
endloop
endfacet
facet normal -1 0 0
outer loop
vertex -2.226068 8.258889 0.7164414
vertex -2.226068 8.458889 0.5289414
vertex -2.226068 8.258889 0.5289414
endloop
endfacet
facet normal -1 0 0
outer loop
vertex -2.226068 8.258889 0.7164414
vertex -2.226068 8.258889 0.5289414
vertex -2.226068 8.058889 0.7164414
endloop
endfacet
facet normal -1 0 0
outer loop
vertex -2.226068 8.058889 0.7164414
vertex -2.226068 8.258889 0.5289414
vertex -2.226068 8.058889 0.5289414
endloop
endfacet
facet normal -1 0 0
outer loop
vertex -2.226068 8.058889 0.7164414
vertex -2.226068 8.058889 0.5289414
vertex -2.226068 7.858889 0.7164414
endloop
endfacet
facet normal -1 0 0
outer loop
vertex -2.226068 7.858889 0.7164414
vertex -2.226068 8.058889 0.5289414
vertex -2.226068 7.858889 0.5289414
endloop
endfacet
facet normal -1 0 0
outer loop
vertex -2.226068 7.858889 0.7164414
vertex -2.226068 7.858889 0.5289414
vertex -2.226068 7.658889 0.7164414
endloop
endfacet
facet normal -1 0 0
outer loop
vertex -2.226068 7.658889 0.7164414
vertex -2.226068 7.858889 0.5289414
vertex -2.226068 7.658889 0.5289414
endloop
endfacet
facet normal -1 0 0
outer loop
vertex -2.226068 8.458889 0.5289414
vertex -2.226068 8.458889 0.3414414
vertex -2.226068 8.258889 0.5289414
endloop
endfacet
facet normal -1 0 0
outer loop
vertex -2.226068 8.258889 0.5289414
vertex -2.226068 8.458889 0.3414414
vertex -2.226068 8.258889 0.3414414
endloop
endfacet
facet normal -1 0 0
outer loop
vertex -2.226068 8.258889 0.5289414
vertex -2.226068 8.258889 0.3414414
vertex -2.226068 8.058889 0.5289414
endloop
endfacet
facet normal -1 0 0
outer loop
vertex -2.226068 8.058889 0.5289414
vertex -2.226068 8.258889 0.3414414
vertex -2.226068 8.058889 0.3414414
endloop
endfacet
facet normal -1 0 0
outer loop
vertex -2.226068 8.058889 0.5289414
vertex -2.226068 8.058889 0.3414414
vertex -2.226068 7.858889 0.5289414
endloop
endfacet
facet normal -1 0 0
outer loop
vertex -2.226068 7.858889 0.5289414
vertex -2.226068 8.058889 0.3414414
vertex -2.226068 7.858889 0.3414414
endloop
endfacet
facet normal -1 0 0
outer loop
vertex -2.226068 7.858889 0.5289414
vertex -2.226068 7.858889 0.3414414
vertex -2.226068 7.658889 0.5289414
endloop
endfacet
facet normal -1 0 0
outer loop
vertex -2.226068 7.658889 0.5289414
vertex -2.226068 7.858889 0.3414414
vertex -2.226068 7.658889 0.3414414
endloop
endfacet
facet normal -1 0 0
outer loop
vertex -2.226068 8.458889 0.3414414
vertex -2.226068 8.458889 0.1539414
vertex -2.226068 8.258889 0.3414414
endloop
endfacet
facet normal -1 0 0
outer loop
vertex -2.226068 8.258889 0.3414414
vertex -2.226068 8.458889 0.1539414
vertex -2.226068 8.258889 0.1539414
endloop
endfacet
facet normal -1 0 0
outer loop
vertex -2.226068 8.258889 0.3414414
vertex -2.226068 8.258889 0.1539414
vertex -2.226068 8.058889 0.3414414
endloop
endfacet
facet normal -1 0 0
outer loop
vertex -2.226068 8.058889 0.3414414
vertex -2.226068 8.258889 0.1539414
vertex -2.226068 8.058889 0.1539414
endloop
endfacet
facet normal -1 0 0
outer loop
vertex -2.226068 8.058889 0.3414414
vertex -2.226068 8.058889 0.1539414
vertex -2.226068 7.858889 0.3414414
endloop
endfacet
facet normal -1 0 0
outer loop
vertex -2.226068 7.858889 0.3414414
vertex -2.226068 8.058889 0.1539414
vertex -2.226068 7.858889 0.1539414
endloop
endfacet
facet normal -1 0 0
outer loop
vertex -2.226068 7.858889 0.3414414
vertex -2.226068 7.858889 0.1539414
vertex -2.226068 7.658889 0.3414414
endloop
endfacet
facet normal -1 0 0
outer loop
vertex -2.226068 7.658889 0.3414414
vertex -2.226068 7.858889 0.1539414
vertex -2.226068 7.658889 0.1539414
endloop
endfacet
facet normal -1 0 0
outer loop
vertex -2.226068 8.458889 0.1539414
vertex -2.226068 8.458889 -0.03355865
vertex -2.226068 8.258889 0.1539414
endloop
endfacet
facet normal -1 0 0
outer loop
vertex -2.226068 8.258889 0.1539414
vertex -2.226068 8.458889 -0.03355865
vertex -2.226068 8.258889 -0.03355865
endloop
endfacet
facet normal -1 0 0
outer loop
vertex -2.226068 8.258889 0.1539414
vertex -2.226068 8.258889 -0.03355865
vertex -2.226068 8.058889 0.1539414
endloop
endfacet
facet normal -1 0 0
outer loop
vertex -2.226068 8.058889 0.1539414
vertex -2.226068 8.258889 -0.03355865
vertex -2.226068 8.058889 -0.03355865
endloop
endfacet
facet normal -1 0 0
outer loop
vertex -2.226068 8.058889 0.1539414
vertex -2.226068 8.058889 -0.03355865
vertex -2.226068 7.858889 0.1539414
endloop
endfacet
facet normal -1 0 0
outer loop
vertex -2.226068 7.858889 0.1539414
vertex -2.226068 8.058889 -0.03355865
vertex -2.226068 7.858889 -0.03355865
endloop
endfacet
facet normal -1 0 0
outer loop
vertex -2.226068 7.858889 0.1539414
vertex -2.226068 7.858889 -0.03355865
vertex -2.226068 7.658889 0.1539414
endloop
endfacet
facet normal -1 0 0
outer loop
vertex -2.226068 7.658889 0.1539414
vertex -2.226068 7.858889 -0.03355865
vertex -2.226068 7.658889 -0.03355865
endloop
endfacet
facet normal -1 0 0
outer loop
vertex -2.226068 8.458889 -0.03355865
vertex -2.226068 8.458889 -0.2210586
vertex -2.226068 8.258889 -0.03355865
endloop
endfacet
facet normal -1 0 0
outer loop
vertex -2.226068 8.258889 -0.03355865
vertex -2.226068 8.458889 -0.2210586
vertex -2.226068 8.258889 -0.2210586
endloop
endfacet
facet normal -1 0 0
outer loop
vertex -2.226068 8.258889 -0.03355865
vertex -2.226068 8.258889 -0.2210586
vertex -2.226068 8.058889 -0.03355865
endloop
endfacet
facet normal -1 0 0
outer loop
vertex -2.226068 8.058889 -0.03355865
vertex -2.226068 8.258889 -0.2210586
vertex -2.226068 8.058889 -0.2210586
endloop
endfacet
facet normal -1 0 0
outer loop
vertex -2.226068 8.058889 -0.03355865
vertex -2.226068 8.058889 -0.2210586
vertex -2.226068 7.858889 -0.03355865
endloop
endfacet
facet normal -1 0 0
outer loop
vertex -2.226068 7.858889 -0.03355865
vertex -2.226068 8.058889 -0.2210586
vertex -2.226068 7.858889 -0.2210586
endloop
endfacet
facet normal -1 0 0
outer loop
vertex -2.226068 7.858889 -0.03355865
vertex -2.226068 7.858889 -0.2210586
vertex -2.226068 7.658889 -0.03355865
endloop
endfacet
facet normal -1 0 0
outer loop
vertex -2.226068 7.658889 -0.03355865
vertex -2.226068 7.858889 -0.2210586
vertex -2.226068 7.658889 -0.2210586
endloop
endfacet
facet normal 0 -1 0
outer loop
vertex -1.226068 7.458889 1.091441
vertex -1.226068 7.458889 1.278941
vertex -1.426068 7.458889 1.091441
endloop
endfacet
facet normal 0 -1 0
outer loop
vertex -1.426068 7.458889 1.091441
vertex -1.226068 7.458889 1.278941
vertex -1.426068 7.458889 1.278941
endloop
endfacet
facet normal 0 -1 0
outer loop
vertex -1.426068 7.458889 1.091441
vertex -1.426068 7.458889 1.278941
vertex -1.626068 7.458889 1.091441
endloop
endfacet
facet normal 0 -1 0
outer loop
vertex -1.626068 7.458889 1.091441
vertex -1.426068 7.458889 1.278941
vertex -1.626068 7.458889 1.278941
endloop
endfacet
facet normal 0 -1 0
outer loop
vertex -1.626068 7.458889 1.091441
vertex -1.626068 7.458889 1.278941
vertex -1.826068 7.458889 1.091441
endloop
endfacet
facet normal 0 -1 0
outer loop
vertex -1.826068 7.458889 1.091441
vertex -1.626068 7.458889 1.278941
vertex -1.826068 7.458889 1.278941
endloop
endfacet
facet normal 0 -1 0
outer loop
vertex -1.826068 7.458889 1.091441
vertex -1.826068 7.458889 1.278941
vertex -2.026068 7.458889 1.091441
endloop
endfacet
facet normal 0 -1 0
outer loop
vertex -2.026068 7.458889 1.091441
vertex -1.826068 7.458889 1.278941
vertex -2.026068 7.458889 1.278941
endloop
endfacet
facet normal 0 -1 0
outer loop
vertex -2.026068 7.458889 1.091441
vertex -2.026068 7.458889 1.278941
vertex -2.226068 7.458889 1.091441
endloop
endfacet
facet normal 0 -1 0
outer loop
vertex -2.226068 7.458889 1.091441
vertex -2.026068 7.458889 1.278941
vertex -2.226068 7.458889 1.278941
endloop
endfacet
facet normal 0 -1 0
outer loop
vertex -2.226068 7.458889 1.091441
vertex -2.226068 7.458889 0.9039414
vertex -2.026068 7.458889 1.091441
endloop
endfacet
facet normal 0 -1 0
outer loop
vertex -2.026068 7.458889 1.091441
vertex -2.226068 7.458889 0.9039414
vertex -2.026068 7.458889 0.9039414
endloop
endfacet
facet normal 0 -1 0
outer loop
vertex -2.026068 7.458889 1.091441
vertex -2.026068 7.458889 0.9039414
vertex -1.826068 7.458889 1.091441
endloop
endfacet
facet normal 0 -1 0
outer loop
vertex -1.826068 7.458889 1.091441
vertex -2.026068 7.458889 0.9039414
vertex -1.826068 7.458889 0.9039414
endloop
endfacet
facet normal 0 -1 0
outer loop
vertex -1.826068 7.458889 1.091441
vertex -1.826068 7.458889 0.9039414
vertex -1.626068 7.458889 1.091441
endloop
endfacet
facet normal 0 -1 0
outer loop
vertex -1.626068 7.458889 1.091441
vertex -1.826068 7.458889 0.9039414
vertex -1.626068 7.458889 0.9039414
endloop
endfacet
facet normal 0 -1 0
outer loop
vertex -1.626068 7.458889 1.091441
vertex -1.626068 7.458889 0.9039414
vertex -1.426068 7.458889 1.091441
endloop
endfacet
facet normal 0 -1 0
outer loop
vertex -1.426068 7.458889 1.091441
vertex -1.626068 7.458889 0.9039414
vertex -1.426068 7.458889 0.9039414
endloop
endfacet
facet normal 0 -1 0
outer loop
vertex -1.426068 7.458889 1.091441
vertex -1.426068 7.458889 0.9039414
vertex -1.226068 7.458889 1.091441
endloop
endfacet
facet normal 0 -1 0
outer loop
vertex -1.226068 7.458889 1.091441
vertex -1.426068 7.458889 0.9039414
vertex -1.226068 7.458889 0.9039414
endloop
endfacet
facet normal 0 -1 0
outer loop
vertex -1.226068 7.458889 0.9039414
vertex -1.426068 7.458889 0.9039414
vertex -1.426068 7.458889 0.7164414
endloop
endfacet
facet normal 0 -1 0
outer loop
vertex -1.226068 7.458889 0.9039414
vertex -1.426068 7.458889 0.7164414
vertex -1.226068 7.458889 0.7164414
endloop
endfacet
facet normal 0 -1 0
outer loop
vertex -1.226068 7.458889 0.7164414
vertex -1.426068 7.458889 0.7164414
vertex -1.426068 7.458889 0.5289414
endloop
endfacet
facet normal 0 -1 0
outer loop
vertex -1.226068 7.458889 0.7164414
vertex -1.426068 7.458889 0.5289414
vertex -1.226068 7.458889 0.5289414
endloop
endfacet
facet normal 0 -1 0
outer loop
vertex -1.226068 7.458889 0.5289414
vertex -1.426068 7.458889 0.5289414
vertex -1.426068 7.458889 0.3414414
endloop
endfacet
facet normal 0 -1 0
outer loop
vertex -1.226068 7.458889 0.5289414
vertex -1.426068 7.458889 0.3414414
vertex -1.226068 7.458889 0.3414414
endloop
endfacet
facet normal 0 -1 0
outer loop
vertex -1.226068 7.458889 0.3414414
vertex -1.426068 7.458889 0.3414414
vertex -1.426068 7.458889 0.1539414
endloop
endfacet
facet normal 0 -1 0
outer loop
vertex -1.226068 7.458889 0.3414414
vertex -1.426068 7.458889 0.1539414
vertex -1.226068 7.458889 0.1539414
endloop
endfacet
facet normal 0 -1 0
outer loop
vertex -1.226068 7.458889 0.1539414
vertex -1.426068 7.458889 0.1539414
vertex -1.426068 7.458889 -0.03355865
endloop
endfacet
facet normal 0 -1 0
outer loop
vertex -1.226068 7.458889 0.1539414
vertex -1.426068 7.458889 -0.03355865
vertex -1.226068 7.458889 -0.03355865
endloop
endfacet
facet normal 0 -1 0
outer loop
vertex -1.226068 7.458889 -0.03355865
vertex -1.426068 7.458889 -0.03355865
vertex -1.426068 7.458889 -0.2210586
endloop
endfacet
facet normal 0 -1 0
outer loop
vertex -1.226068 7.458889 -0.03355865
vertex -1.426068 7.458889 -0.2210586
vertex -1.226068 7.458889 -0.2210586
endloop
endfacet
facet normal 0 -1 0
outer loop
vertex -2.226068 7.458889 0.9039414
vertex -2.226068 7.458889 0.7164414
vertex -2.026068 7.458889 0.9039414
endloop
endfacet
facet normal 0 -1 0
outer loop
vertex -2.026068 7.458889 0.9039414
vertex -2.226068 7.458889 0.7164414
vertex -2.026068 7.458889 0.7164414
endloop
endfacet
facet normal 0 -1 0
outer loop
vertex -2.026068 7.458889 0.9039414
vertex -2.026068 7.458889 0.7164414
vertex -1.826068 7.458889 0.9039414
endloop
endfacet
facet normal 0 -1 0
outer loop
vertex -1.826068 7.458889 0.9039414
vertex -2.026068 7.458889 0.7164414
vertex -1.826068 7.458889 0.7164414
endloop
endfacet
facet normal 0 -1 0
outer loop
vertex -1.826068 7.458889 0.9039414
vertex -1.826068 7.458889 0.7164414
vertex -1.626068 7.458889 0.9039414
endloop
endfacet
facet normal 0 -1 0
outer loop
vertex -1.626068 7.458889 0.9039414
vertex -1.826068 7.458889 0.7164414
vertex -1.626068 7.458889 0.7164414
endloop
endfacet
facet normal 0 -1 0
outer loop
vertex -1.626068 7.458889 0.9039414
vertex -1.626068 7.458889 0.7164414
vertex -1.426068 7.458889 0.9039414
endloop
endfacet
facet normal 0 -1 0
outer loop
vertex -1.426068 7.458889 0.9039414
vertex -1.626068 7.458889 0.7164414
vertex -1.426068 7.458889 0.7164414
endloop
endfacet
facet normal 0 -1 0
outer loop
vertex -2.226068 7.458889 0.7164414
vertex -2.226068 7.458889 0.5289414
vertex -2.026068 7.458889 0.7164414
endloop
endfacet
facet normal 0 -1 0
outer loop
vertex -2.026068 7.458889 0.7164414
vertex -2.226068 7.458889 0.5289414
vertex -2.026068 7.458889 0.5289414
endloop
endfacet
facet normal 0 -1 0
outer loop
vertex -2.026068 7.458889 0.7164414
vertex -2.026068 7.458889 0.5289414
vertex -1.826068 7.458889 0.7164414
endloop
endfacet
facet normal 0 -1 0
outer loop
vertex -1.826068 7.458889 0.7164414
vertex -2.026068 7.458889 0.5289414
vertex -1.826068 7.458889 0.5289414
endloop
endfacet
facet normal 0 -1 0
outer loop
vertex -1.826068 7.458889 0.7164414
vertex -1.826068 7.458889 0.5289414
vertex -1.626068 7.458889 0.7164414
endloop
endfacet
facet normal 0 -1 0
outer loop
vertex -1.626068 7.458889 0.7164414
vertex -1.826068 7.458889 0.5289414
vertex -1.626068 7.458889 0.5289414
endloop
endfacet
facet normal 0 -1 0
outer loop
vertex -1.626068 7.458889 0.7164414
vertex -1.626068 7.458889 0.5289414
vertex -1.426068 7.458889 0.7164414
endloop
endfacet
facet normal 0 -1 0
outer loop
vertex -1.426068 7.458889 0.7164414
vertex -1.626068 7.458889 0.5289414
vertex -1.426068 7.458889 0.5289414
endloop
endfacet
facet normal 0 -1 0
outer loop
vertex -2.226068 7.458889 0.5289414
vertex -2.226068 7.458889 0.3414414
vertex -2.026068 7.458889 0.5289414
endloop
endfacet
facet normal 0 -1 0
outer loop
vertex -2.026068 7.458889 0.5289414
vertex -2.226068 7.458889 0.3414414
vertex -2.026068 7.458889 0.3414414
endloop
endfacet
facet normal 0 -1 0
outer loop
vertex -2.026068 7.458889 0.5289414
vertex -2.026068 7.458889 0.3414414
vertex -1.826068 7.458889 0.5289414
endloop
endfacet
facet normal 0 -1 0
outer loop
vertex -1.826068 7.458889 0.5289414
vertex -2.026068 7.458889 0.3414414
vertex -1.826068 7.458889 0.3414414
endloop
endfacet
facet normal 0 -1 0
outer loop
vertex -1.826068 7.458889 0.5289414
vertex -1.826068 7.458889 0.3414414
vertex -1.626068 7.458889 0.5289414
endloop
endfacet
facet normal 0 -1 0
outer loop
vertex -1.626068 7.458889 0.5289414
vertex -1.826068 7.458889 0.3414414
vertex -1.626068 7.458889 0.3414414
endloop
endfacet
facet normal 0 -1 0
outer loop
vertex -1.626068 7.458889 0.5289414
vertex -1.626068 7.458889 0.3414414
vertex -1.426068 7.458889 0.5289414
endloop
endfacet
facet normal 0 -1 0
outer loop
vertex -1.426068 7.458889 0.5289414
vertex -1.626068 7.458889 0.3414414
vertex -1.426068 7.458889 0.3414414
endloop
endfacet
facet normal 0 -1 0
outer loop
vertex -2.226068 7.458889 0.3414414
vertex -2.226068 7.458889 0.1539414
vertex -2.026068 7.458889 0.3414414
endloop
endfacet
facet normal 0 -1 0
outer loop
vertex -2.026068 7.458889 0.3414414
vertex -2.226068 7.458889 0.1539414
vertex -2.026068 7.458889 0.1539414
endloop
endfacet
facet normal 0 -1 0
outer loop
vertex -2.026068 7.458889 0.3414414
vertex -2.026068 7.458889 0.1539414
vertex -1.826068 7.458889 0.3414414
endloop
endfacet
facet normal 0 -1 0
outer loop
vertex -1.826068 7.458889 0.3414414
vertex -2.026068 7.458889 0.1539414
vertex -1.826068 7.458889 0.1539414
endloop
endfacet
facet normal 0 -1 0
outer loop
vertex -1.826068 7.458889 0.3414414
vertex -1.826068 7.458889 0.1539414
vertex -1.626068 7.458889 0.3414414
endloop
endfacet
facet normal 0 -1 0
outer loop
vertex -1.626068 7.458889 0.3414414
vertex -1.826068 7.458889 0.1539414
vertex -1.626068 7.458889 0.1539414
endloop
endfacet
facet normal 0 -1 0
outer loop
vertex -1.626068 7.458889 0.3414414
vertex -1.626068 7.458889 0.1539414
vertex -1.426068 7.458889 0.3414414
endloop
endfacet
facet normal 0 -1 0
outer loop
vertex -1.426068 7.458889 0.3414414
vertex -1.626068 7.458889 0.1539414
vertex -1.426068 7.458889 0.1539414
endloop
endfacet
facet normal 0 -1 0
outer loop
vertex -2.226068 7.458889 0.1539414
vertex -2.226068 7.458889 -0.03355865
vertex -2.026068 7.458889 0.1539414
endloop
endfacet
facet normal 0 -1 0
outer loop
vertex -2.026068 7.458889 0.1539414
vertex -2.226068 7.458889 -0.03355865
vertex -2.026068 7.458889 -0.03355865
endloop
endfacet
facet normal 0 -1 0
outer loop
vertex -2.026068 7.458889 0.1539414
vertex -2.026068 7.458889 -0.03355865
vertex -1.826068 7.458889 0.1539414
endloop
endfacet
facet normal 0 -1 0
outer loop
vertex -1.826068 7.458889 0.1539414
vertex -2.026068 7.458889 -0.03355865
vertex -1.826068 7.458889 -0.03355865
endloop
endfacet
facet normal 0 -1 0
outer loop
vertex -1.826068 7.458889 0.1539414
vertex -1.826068 7.458889 -0.03355865
vertex -1.626068 7.458889 0.1539414
endloop
endfacet
facet normal 0 -1 0
outer loop
vertex -1.626068 7.458889 0.1539414
vertex -1.826068 7.458889 -0.03355865
vertex -1.626068 7.458889 -0.03355865
endloop
endfacet
facet normal 0 -1 0
outer loop
vertex -1.626068 7.458889 0.1539414
vertex -1.626068 7.458889 -0.03355865
vertex -1.426068 7.458889 0.1539414
endloop
endfacet
facet normal 0 -1 0
outer loop
vertex -1.426068 7.458889 0.1539414
vertex -1.626068 7.458889 -0.03355865
vertex -1.426068 7.458889 -0.03355865
endloop
endfacet
facet normal 0 -1 0
outer loop
vertex -2.226068 7.458889 -0.03355865
vertex -2.226068 7.458889 -0.2210586
vertex -2.026068 7.458889 -0.03355865
endloop
endfacet
facet normal 0 -1 0
outer loop
vertex -2.026068 7.458889 -0.03355865
vertex -2.226068 7.458889 -0.2210586
vertex -2.026068 7.458889 -0.2210586
endloop
endfacet
facet normal 0 -1 0
outer loop
vertex -2.026068 7.458889 -0.03355865
vertex -2.026068 7.458889 -0.2210586
vertex -1.826068 7.458889 -0.03355865
endloop
endfacet
facet normal 0 -1 0
outer loop
vertex -1.826068 7.458889 -0.03355865
vertex -2.026068 7.458889 -0.2210586
vertex -1.826068 7.458889 -0.2210586
endloop
endfacet
facet normal 0 -1 0
outer loop
vertex -1.826068 7.458889 -0.03355865
vertex -1.826068 7.458889 -0.2210586
vertex -1.626068 7.458889 -0.03355865
endloop
endfacet
facet normal 0 -1 0
outer loop
vertex -1.626068 7.458889 -0.03355865
vertex -1.826068 7.458889 -0.2210586
vertex -1.626068 7.458889 -0.2210586
endloop
endfacet
facet normal 0 -1 0
outer loop
vertex -1.626068 7.458889 -0.03355865
vertex -1.626068 7.458889 -0.2210586
vertex -1.426068 7.458889 -0.03355865
endloop
endfacet
facet normal 0 -1 0
outer loop
vertex -1.426068 7.458889 -0.03355865
vertex -1.626068 7.458889 -0.2210586
vertex -1.426068 7.458889 -0.2210586
endloop
endfacet
facet normal 1 0 0
outer loop
vertex -1.226068 8.458889 1.091441
vertex -1.226068 8.458889 1.278941
vertex -1.226068 8.258889 1.091441
endloop
endfacet
facet normal 1 0 0
outer loop
vertex -1.226068 8.258889 1.091441
vertex -1.226068 8.458889 1.278941
vertex -1.226068 8.258889 1.278941
endloop
endfacet
facet normal 1 0 0
outer loop
vertex -1.226068 8.258889 1.091441
vertex -1.226068 8.258889 1.278941
vertex -1.226068 8.058889 1.091441
endloop
endfacet
facet normal 1 0 0
outer loop
vertex -1.226068 8.058889 1.091441
vertex -1.226068 8.258889 1.278941
vertex -1.226068 8.058889 1.278941
endloop
endfacet
facet normal 1 0 0
outer loop
vertex -1.226068 8.058889 1.091441
vertex -1.226068 8.058889 1.278941
vertex -1.226068 7.858889 1.091441
endloop
endfacet
facet normal 1 0 0
outer loop
vertex -1.226068 7.858889 1.091441
vertex -1.226068 8.058889 1.278941
vertex -1.226068 7.858889 1.278941
endloop
endfacet
facet normal 1 0 0
outer loop
vertex -1.226068 7.858889 1.091441
vertex -1.226068 7.858889 1.278941
vertex -1.226068 7.658889 1.091441
endloop
endfacet
facet normal 1 0 0
outer loop
vertex -1.226068 7.658889 1.091441
vertex -1.226068 7.858889 1.278941
vertex -1.226068 7.658889 1.278941
endloop
endfacet
facet normal 1 0 0
outer loop
vertex -1.226068 7.658889 1.091441
vertex -1.226068 7.658889 1.278941
vertex -1.226068 7.458889 1.091441
endloop
endfacet
facet normal 1 0 0
outer loop
vertex -1.226068 7.458889 1.091441
vertex -1.226068 7.658889 1.278941
vertex -1.226068 7.458889 1.278941
endloop
endfacet
facet normal 1 0 0
outer loop
vertex -1.226068 7.458889 1.091441
vertex -1.226068 7.458889 0.9039414
vertex -1.226068 7.658889 1.091441
endloop
endfacet
facet normal 1 0 0
outer loop
vertex -1.226068 7.658889 1.091441
vertex -1.226068 7.458889 0.9039414
vertex -1.226068 7.658889 0.9039414
endloop
endfacet
facet normal 1 0 0
outer loop
vertex -1.226068 7.658889 1.091441
vertex -1.226068 7.658889 0.9039414
vertex -1.226068 7.858889 1.091441
endloop
endfacet
facet normal 1 0 0
outer loop
vertex -1.226068 7.858889 1.091441
vertex -1.226068 7.658889 0.9039414
vertex -1.226068 7.858889 0.9039414
endloop
endfacet
facet normal 1 0 0
outer loop
vertex -1.226068 7.858889 1.091441
vertex -1.226068 7.858889 0.9039414
vertex -1.226068 8.058889 1.091441
endloop
endfacet
facet normal 1 0 0
outer loop
vertex -1.226068 8.058889 1.091441
vertex -1.226068 7.858889 0.9039414
vertex -1.226068 8.058889 0.9039414
endloop
endfacet
facet normal 1 0 0
outer loop
vertex -1.226068 8.058889 1.091441
vertex -1.226068 8.058889 0.9039414
vertex -1.226068 8.258889 1.091441
endloop
endfacet
facet normal 1 0 0
outer loop
vertex -1.226068 8.258889 1.091441
vertex -1.226068 8.058889 0.9039414
vertex -1.226068 8.258889 0.9039414
endloop
endfacet
facet normal 1 0 0
outer loop
vertex -1.226068 8.258889 1.091441
vertex -1.226068 8.258889 0.9039414
vertex -1.226068 8.458889 1.091441
endloop
endfacet
facet normal 1 0 0
outer loop
vertex -1.226068 8.458889 1.091441
vertex -1.226068 8.258889 0.9039414
vertex -1.226068 8.458889 0.9039414
endloop
endfacet
facet normal 1 0 0
outer loop
vertex -1.226068 8.458889 0.9039414
vertex -1.226068 8.258889 0.9039414
vertex -1.226068 8.258889 0.7164414
endloop
endfacet
facet normal 1 0 0
outer loop
vertex -1.226068 8.458889 0.9039414
vertex -1.226068 8.258889 0.7164414
vertex -1.226068 8.458889 0.7164414
endloop
endfacet
facet normal 1 0 0
outer loop
vertex -1.226068 8.458889 0.7164414
vertex -1.226068 8.258889 0.7164414
vertex -1.226068 8.258889 0.5289414
endloop
endfacet
facet normal 1 0 0
outer loop
vertex -1.226068 8.458889 0.7164414
vertex -1.226068 8.258889 0.5289414
vertex -1.226068 8.458889 0.5289414
endloop
endfacet
facet normal 1 0 0
outer loop
vertex -1.226068 8.458889 0.5289414
vertex -1.226068 8.258889 0.5289414
vertex -1.226068 8.258889 0.3414414
endloop
endfacet
facet normal 1 0 0
outer loop
vertex -1.226068 8.458889 0.5289414
vertex -1.226068 8.258889 0.3414414
vertex -1.226068 8.458889 0.3414414
endloop
endfacet
facet normal 1 0 0
outer loop
vertex -1.226068 8.458889 0.3414414
vertex -1.226068 8.258889 0.3414414
vertex -1.226068 8.258889 0.1539414
endloop
endfacet
facet normal 1 0 0
outer loop
vertex -1.226068 8.458889 0.3414414
vertex -1.226068 8.258889 0.1539414
vertex -1.226068 8.458889 0.1539414
endloop
endfacet
facet normal 1 0 0
outer loop
vertex -1.226068 8.458889 0.1539414
vertex -1.226068 8.258889 0.1539414
vertex -1.226068 8.258889 -0.03355865
endloop
endfacet
facet normal 1 0 0
outer loop
vertex -1.226068 8.458889 0.1539414
vertex -1.226068 8.258889 -0.03355865
vertex -1.226068 8.458889 -0.03355865
endloop
endfacet
facet normal 1 0 0
outer loop
vertex -1.226068 8.458889 -0.03355865
vertex -1.226068 8.258889 -0.03355865
vertex -1.226068 8.258889 -0.2210586
endloop
endfacet
facet normal 1 0 0
outer loop
vertex -1.226068 8.458889 -0.03355865
vertex -1.226068 8.258889 -0.2210586
vertex -1.226068 8.458889 -0.2210586
endloop
endfacet
facet normal 1 0 0
outer loop
vertex -1.226068 7.458889 0.9039414
vertex -1.226068 7.458889 0.7164414
vertex -1.226068 7.658889 0.9039414
endloop
endfacet
facet normal 1 0 0
outer loop
vertex -1.226068 7.658889 0.9039414
vertex -1.226068 7.458889 0.7164414
vertex -1.226068 7.658889 0.7164414
endloop
endfacet
facet normal 1 0 0
outer loop
vertex -1.226068 7.658889 0.9039414
vertex -1.226068 7.658889 0.7164414
vertex -1.226068 7.858889 0.9039414
endloop
endfacet
facet normal 1 0 0
outer loop
vertex -1.226068 7.858889 0.9039414
vertex -1.226068 7.658889 0.7164414
vertex -1.226068 7.858889 0.7164414
endloop
endfacet
facet normal 1 0 0
outer loop
vertex -1.226068 7.858889 0.9039414
vertex -1.226068 7.858889 0.7164414
vertex -1.226068 8.058889 0.9039414
endloop
endfacet
facet normal 1 0 0
outer loop
vertex -1.226068 8.058889 0.9039414
vertex -1.226068 7.858889 0.7164414
vertex -1.226068 8.058889 0.7164414
endloop
endfacet
facet normal 1 0 0
outer loop
vertex -1.226068 8.058889 0.9039414
vertex -1.226068 8.058889 0.7164414
vertex -1.226068 8.258889 0.9039414
endloop
endfacet
facet normal 1 0 0
outer loop
vertex -1.226068 8.258889 0.9039414
vertex -1.226068 8.058889 0.7164414
vertex -1.226068 8.258889 0.7164414
endloop
endfacet
facet normal 1 0 0
outer loop
vertex -1.226068 7.458889 0.7164414
vertex -1.226068 7.458889 0.5289414
vertex -1.226068 7.658889 0.7164414
endloop
endfacet
facet normal 1 0 0
outer loop
vertex -1.226068 7.658889 0.7164414
vertex -1.226068 7.458889 0.5289414
vertex -1.226068 7.658889 0.5289414
endloop
endfacet
facet normal 1 0 0
outer loop
vertex -1.226068 7.658889 0.7164414
vertex -1.226068 7.658889 0.5289414
vertex -1.226068 7.858889 0.7164414
endloop
endfacet
facet normal 1 0 0
outer loop
vertex -1.226068 7.858889 0.7164414
vertex -1.226068 7.658889 0.5289414
vertex -1.226068 7.858889 0.5289414
endloop
endfacet
facet normal 1 0 0
outer loop
vertex -1.226068 7.858889 0.7164414
vertex -1.226068 7.858889 0.5289414
vertex -1.226068 8.058889 0.7164414
endloop
endfacet
facet normal 1 0 0
outer loop
vertex -1.226068 8.058889 0.7164414
vertex -1.226068 7.858889 0.5289414
vertex -1.226068 8.058889 0.5289414
endloop
endfacet
facet normal 1 0 0
outer loop
vertex -1.226068 8.058889 0.7164414
vertex -1.226068 8.058889 0.5289414
vertex -1.226068 8.258889 0.7164414
endloop
endfacet
facet normal 1 0 0
outer loop
vertex -1.226068 8.258889 0.7164414
vertex -1.226068 8.058889 0.5289414
vertex -1.226068 8.258889 0.5289414
endloop
endfacet
facet normal 1 0 0
outer loop
vertex -1.226068 7.458889 0.5289414
vertex -1.226068 7.458889 0.3414414
vertex -1.226068 7.658889 0.5289414
endloop
endfacet
facet normal 1 0 0
outer loop
vertex -1.226068 7.658889 0.5289414
vertex -1.226068 7.458889 0.3414414
vertex -1.226068 7.658889 0.3414414
endloop
endfacet
facet normal 1 0 0
outer loop
vertex -1.226068 7.658889 0.5289414
vertex -1.226068 7.658889 0.3414414
vertex -1.226068 7.858889 0.5289414
endloop
endfacet
facet normal 1 0 0
outer loop
vertex -1.226068 7.858889 0.5289414
vertex -1.226068 7.658889 0.3414414
vertex -1.226068 7.858889 0.3414414
endloop
endfacet
facet normal 1 0 0
outer loop
vertex -1.226068 7.858889 0.5289414
vertex -1.226068 7.858889 0.3414414
vertex -1.226068 8.058889 0.5289414
endloop
endfacet
facet normal 1 0 0
outer loop
vertex -1.226068 8.058889 0.5289414
vertex -1.226068 7.858889 0.3414414
vertex -1.226068 8.058889 0.3414414
endloop
endfacet
facet normal 1 0 0
outer loop
vertex -1.226068 8.058889 0.5289414
vertex -1.226068 8.058889 0.3414414
vertex -1.226068 8.258889 0.5289414
endloop
endfacet
facet normal 1 0 0
outer loop
vertex -1.226068 8.258889 0.5289414
vertex -1.226068 8.058889 0.3414414
vertex -1.226068 8.258889 0.3414414
endloop
endfacet
facet normal 1 0 0
outer loop
vertex -1.226068 7.458889 0.3414414
vertex -1.226068 7.458889 0.1539414
vertex -1.226068 7.658889 0.3414414
endloop
endfacet
facet normal 1 0 0
outer loop
vertex -1.226068 7.658889 0.3414414
vertex -1.226068 7.458889 0.1539414
vertex -1.226068 7.658889 0.1539414
endloop
endfacet
facet normal 1 0 0
outer loop
vertex -1.226068 7.658889 0.3414414
vertex -1.226068 7.658889 0.1539414
vertex -1.226068 7.858889 0.3414414
endloop
endfacet
facet normal 1 0 0
outer loop
vertex -1.226068 7.858889 0.3414414
vertex -1.226068 7.658889 0.1539414
vertex -1.226068 7.858889 0.1539414
endloop
endfacet
facet normal 1 0 0
outer loop
vertex -1.226068 7.858889 0.3414414
vertex -1.226068 7.858889 0.1539414
vertex -1.226068 8.058889 0.3414414
endloop
endfacet
facet normal 1 0 0
outer loop
vertex -1.226068 8.058889 0.3414414
vertex -1.226068 7.858889 0.1539414
vertex -1.226068 8.058889 0.1539414
endloop
endfacet
facet normal 1 0 0
outer loop
vertex -1.226068 8.058889 0.3414414
vertex -1.226068 8.058889 0.1539414
vertex -1.226068 8.258889 0.3414414
endloop
endfacet
facet normal 1 0 0
outer loop
vertex -1.226068 8.258889 0.3414414
vertex -1.226068 8.058889 0.1539414
vertex -1.226068 8.258889 0.1539414
endloop
endfacet
facet normal 1 0 0
outer loop
vertex -1.226068 7.458889 0.1539414
vertex -1.226068 7.458889 -0.03355865
vertex -1.226068 7.658889 0.1539414
endloop
endfacet
facet normal 1 0 0
outer loop
vertex -1.226068 7.658889 0.1539414
vertex -1.226068 7.458889 -0.03355865
vertex -1.226068 7.658889 -0.03355865
endloop
endfacet
facet normal 1 0 0
outer loop
vertex -1.226068 7.658889 0.1539414
vertex -1.226068 7.658889 -0.03355865
vertex -1.226068 7.858889 0.1539414
endloop
endfacet
facet normal 1 0 0
outer loop
vertex -1.226068 7.858889 0.1539414
vertex -1.226068 7.658889 -0.03355865
vertex -1.226068 7.858889 -0.03355865
endloop
endfacet
facet normal 1 0 0
outer loop
vertex -1.226068 7.858889 0.1539414
vertex -1.226068 7.858889 -0.03355865
vertex -1.226068 8.058889 0.1539414
endloop
endfacet
facet normal 1 0 0
outer loop
vertex -1.226068 8.058889 0.1539414
vertex -1.226068 7.858889 -0.03355865
vertex -1.226068 8.058889 -0.03355865
endloop
endfacet
facet normal 1 0 0
outer loop
vertex -1.226068 8.058889 0.1539414
vertex -1.226068 8.058889 -0.03355865
vertex -1.226068 8.258889 0.1539414
endloop
endfacet
facet normal 1 0 0
outer loop
vertex -1.226068 8.258889 0.1539414
vertex -1.226068 8.058889 -0.03355865
vertex -1.226068 8.258889 -0.03355865
endloop
endfacet
facet normal 1 0 0
outer loop
vertex -1.226068 7.458889 -0.03355865
vertex -1.226068 7.458889 -0.2210586
vertex -1.226068 7.658889 -0.03355865
endloop
endfacet
facet normal 1 0 0
outer loop
vertex -1.226068 7.658889 -0.03355865
vertex -1.226068 7.458889 -0.2210586
vertex -1.226068 7.658889 -0.2210586
endloop
endfacet
facet normal 1 0 0
outer loop
vertex -1.226068 7.658889 -0.03355865
vertex -1.226068 7.658889 -0.2210586
vertex -1.226068 7.858889 -0.03355865
endloop
endfacet
facet normal 1 0 0
outer loop
vertex -1.226068 7.858889 -0.03355865
vertex -1.226068 7.658889 -0.2210586
vertex -1.226068 7.858889 -0.2210586
endloop
endfacet
facet normal 1 0 0
outer loop
vertex -1.226068 7.858889 -0.03355865
vertex -1.226068 7.858889 -0.2210586
vertex -1.226068 8.058889 -0.03355865
endloop
endfacet
facet normal 1 0 0
outer loop
vertex -1.226068 8.058889 -0.03355865
vertex -1.226068 7.858889 -0.2210586
vertex -1.226068 8.058889 -0.2210586
endloop
endfacet
facet normal 1 0 0
outer loop
vertex -1.226068 8.058889 -0.03355865
vertex -1.226068 8.058889 -0.2210586
vertex -1.226068 8.258889 -0.03355865
endloop
endfacet
facet normal 1 0 0
outer loop
vertex -1.226068 8.258889 -0.03355865
vertex -1.226068 8.058889 -0.2210586
vertex -1.226068 8.258889 -0.2210586
endloop
endfacet
endsolid obj1
