solid obj2
facet normal 0 0 1
outer loop
vertex -1.226068 6.758889 1.278941
vertex -1.426068 6.758889 1.278941
vertex -1.226068 6.558889 1.278941
endloop
endfacet
facet normal 0 0 1
outer loop
vertex -1.226068 6.558889 1.278941
vertex -1.426068 6.758889 1.278941
vertex -1.426068 6.558889 1.278941
endloop
endfacet
facet normal 0 0 1
outer loop
vertex -1.226068 6.558889 1.278941
vertex -1.426068 6.558889 1.278941
vertex -1.226068 6.358889 1.278941
endloop
endfacet
facet normal 0 0 1
outer loop
vertex -1.226068 6.358889 1.278941
vertex -1.426068 6.558889 1.278941
vertex -1.426068 6.358889 1.278941
endloop
endfacet
facet normal 0 0 1
outer loop
vertex -1.226068 6.358889 1.278941
vertex -1.426068 6.358889 1.278941
vertex -1.226068 6.158889 1.278941
endloop
endfacet
facet normal 0 0 1
outer loop
vertex -1.226068 6.158889 1.278941
vertex -1.426068 6.358889 1.278941
vertex -1.426068 6.158889 1.278941
endloop
endfacet
facet normal 0 0 1
outer loop
vertex -1.226068 6.158889 1.278941
vertex -1.426068 6.158889 1.278941
vertex -1.226068 5.958889 1.278941
endloop
endfacet
facet normal 0 0 1
outer loop
vertex -1.226068 5.958889 1.278941
vertex -1.426068 6.158889 1.278941
vertex -1.426068 5.958889 1.278941
endloop
endfacet
facet normal 0 0 1
outer loop
vertex -1.226068 5.958889 1.278941
vertex -1.426068 5.958889 1.278941
vertex -1.226068 5.758889 1.278941
endloop
endfacet
facet normal 0 0 1
outer loop
vertex -1.226068 5.758889 1.278941
vertex -1.426068 5.958889 1.278941
vertex -1.426068 5.758889 1.278941
endloop
endfacet
facet normal 0 0 1
outer loop
vertex -1.426068 5.758889 1.278941
vertex -1.426068 5.958889 1.278941
vertex -1.626068 5.958889 1.278941
endloop
endfacet
facet normal 0 0 1
outer loop
vertex -1.426068 5.758889 1.278941
vertex -1.626068 5.958889 1.278941
vertex -1.626068 5.758889 1.278941
endloop
endfacet
facet normal 0 0 1
outer loop
vertex -1.626068 5.758889 1.278941
vertex -1.626068 5.958889 1.278941
vertex -1.826068 5.958889 1.278941
endloop
endfacet
facet normal 0 0 1
outer loop
vertex -1.626068 5.758889 1.278941
vertex -1.826068 5.958889 1.278941
vertex -1.826068 5.758889 1.278941
endloop
endfacet
facet normal 0 0 1
outer loop
vertex -1.826068 5.758889 1.278941
vertex -1.826068 5.958889 1.278941
vertex -2.026068 5.958889 1.278941
endloop
endfacet
facet normal 0 0 1
outer loop
vertex -1.826068 5.758889 1.278941
vertex -2.026068 5.958889 1.278941
vertex -2.026068 5.758889 1.278941
endloop
endfacet
facet normal 0 0 1
outer loop
vertex -2.026068 5.758889 1.278941
vertex -2.026068 5.958889 1.278941
vertex -2.226068 5.958889 1.278941
endloop
endfacet
facet normal 0 0 1
outer loop
vertex -2.026068 5.758889 1.278941
vertex -2.226068 5.958889 1.278941
vertex -2.226068 5.758889 1.278941
endloop
endfacet
facet normal 0 0 1
outer loop
vertex -1.426068 6.758889 1.278941
vertex -1.626068 6.758889 1.278941
vertex -1.426068 6.558889 1.278941
endloop
endfacet
facet normal 0 0 1
outer loop
vertex -1.426068 6.558889 1.278941
vertex -1.626068 6.758889 1.278941
vertex -1.626068 6.558889 1.278941
endloop
endfacet
facet normal 0 0 1
outer loop
vertex -1.426068 6.558889 1.278941
vertex -1.626068 6.558889 1.278941
vertex -1.426068 6.358889 1.278941
endloop
endfacet
facet normal 0 0 1
outer loop
vertex -1.426068 6.358889 1.278941
vertex -1.626068 6.558889 1.278941
vertex -1.626068 6.358889 1.278941
endloop
endfacet
facet normal 0 0 1
outer loop
vertex -1.426068 6.358889 1.278941
vertex -1.626068 6.358889 1.278941
vertex -1.426068 6.158889 1.278941
endloop
endfacet
facet normal 0 0 1
outer loop
vertex -1.426068 6.158889 1.278941
vertex -1.626068 6.358889 1.278941
vertex -1.626068 6.158889 1.278941
endloop
endfacet
facet normal 0 0 1
outer loop
vertex -1.426068 6.158889 1.278941
vertex -1.626068 6.158889 1.278941
vertex -1.426068 5.958889 1.278941
endloop
endfacet
facet normal 0 0 1
outer loop
vertex -1.426068 5.958889 1.278941
vertex -1.626068 6.158889 1.278941
vertex -1.626068 5.958889 1.278941
endloop
endfacet
facet normal 0 0 1
outer loop
vertex -1.626068 6.758889 1.278941
vertex -1.826068 6.758889 1.278941
vertex -1.626068 6.558889 1.278941
endloop
endfacet
facet normal 0 0 1
outer loop
vertex -1.626068 6.558889 1.278941
vertex -1.826068 6.758889 1.278941
vertex -1.826068 6.558889 1.278941
endloop
endfacet
facet normal 0 0 1
outer loop
vertex -1.626068 6.558889 1.278941
vertex -1.826068 6.558889 1.278941
vertex -1.626068 6.358889 1.278941
endloop
endfacet
facet normal 0 0 1
outer loop
vertex -1.626068 6.358889 1.278941
vertex -1.826068 6.558889 1.278941
vertex -1.826068 6.358889 1.278941
endloop
endfacet
facet normal 0 0 1
outer loop
vertex -1.626068 6.358889 1.278941
vertex -1.826068 6.358889 1.278941
vertex -1.626068 6.158889 1.278941
endloop
endfacet
facet normal 0 0 1
outer loop
vertex -1.626068 6.158889 1.278941
vertex -1.826068 6.358889 1.278941
vertex -1.826068 6.158889 1.278941
endloop
endfacet
facet normal 0 0 1
outer loop
vertex -1.626068 6.158889 1.278941
vertex -1.826068 6.158889 1.278941
vertex -1.626068 5.958889 1.278941
endloop
endfacet
facet normal 0 0 1
outer loop
vertex -1.626068 5.958889 1.278941
vertex -1.826068 6.158889 1.278941
vertex -1.826068 5.958889 1.278941
endloop
endfacet
facet normal 0 0 1
outer loop
vertex -1.826068 6.758889 1.278941
vertex -2.026068 6.758889 1.278941
vertex -1.826068 6.558889 1.278941
endloop
endfacet
facet normal 0 0 1
outer loop
vertex -1.826068 6.558889 1.278941
vertex -2.026068 6.758889 1.278941
vertex -2.026068 6.558889 1.278941
endloop
endfacet
facet normal 0 0 1
outer loop
vertex -1.826068 6.558889 1.278941
vertex -2.026068 6.558889 1.278941
vertex -1.826068 6.358889 1.278941
endloop
endfacet
facet normal 0 0 1
outer loop
vertex -1.826068 6.358889 1.278941
vertex -2.026068 6.558889 1.278941
vertex -2.026068 6.358889 1.278941
endloop
endfacet
facet normal 0 0 1
outer loop
vertex -1.826068 6.358889 1.278941
vertex -2.026068 6.358889 1.278941
vertex -1.826068 6.158889 1.278941
endloop
endfacet
facet normal 0 0 1
outer loop
vertex -1.826068 6.158889 1.278941
vertex -2.026068 6.358889 1.278941
vertex -2.026068 6.158889 1.278941
endloop
endfacet
facet normal 0 0 1
outer loop
vertex -1.826068 6.158889 1.278941
vertex -2.026068 6.158889 1.278941
vertex -1.826068 5.958889 1.278941
endloop
endfacet
facet normal 0 0 1
outer loop
vertex -1.826068 5.958889 1.278941
vertex -2.026068 6.158889 1.278941
vertex -2.026068 5.958889 1.278941
endloop
endfacet
facet normal 0 0 1
outer loop
vertex -2.026068 6.758889 1.278941
vertex -2.226068 6.758889 1.278941
vertex -2.026068 6.558889 1.278941
endloop
endfacet
facet normal 0 0 1
outer loop
vertex -2.026068 6.558889 1.278941
vertex -2.226068 6.758889 1.278941
vertex -2.226068 6.558889 1.278941
endloop
endfacet
facet normal 0 0 1
outer loop
vertex -2.026068 6.558889 1.278941
vertex -2.226068 6.558889 1.278941
vertex -2.026068 6.358889 1.278941
endloop
endfacet
facet normal 0 0 1
outer loop
vertex -2.026068 6.358889 1.278941
vertex -2.226068 6.558889 1.278941
vertex -2.226068 6.358889 1.278941
endloop
endfacet
facet normal 0 0 1
outer loop
vertex -2.026068 6.358889 1.278941
vertex -2.226068 6.358889 1.278941
vertex -2.026068 6.158889 1.278941
endloop
endfacet
facet normal 0 0 1
outer loop
vertex -2.026068 6.158889 1.278941
vertex -2.226068 6.358889 1.278941
vertex -2.226068 6.158889 1.278941
endloop
endfacet
facet normal 0 0 1
outer loop
vertex -2.026068 6.158889 1.278941
vertex -2.226068 6.158889 1.278941
vertex -2.026068 5.958889 1.278941
endloop
endfacet
facet normal 0 0 1
outer loop
vertex -2.026068 5.958889 1.278941
vertex -2.226068 6.158889 1.278941
vertex -2.226068 5.958889 1.278941
endloop
endfacet
facet normal 0 0 -1
outer loop
vertex -1.426068 6.758889 -0.2210586
vertex -1.226068 6.758889 -0.2210586
vertex -1.426068 6.558889 -0.2210586
endloop
endfacet
facet normal 0 0 -1
outer loop
vertex -1.426068 6.558889 -0.2210586
vertex -1.226068 6.758889 -0.2210586
vertex -1.226068 6.558889 -0.2210586
endloop
endfacet
facet normal 0 0 -1
outer loop
vertex -1.426068 6.558889 -0.2210586
vertex -1.226068 6.558889 -0.2210586
vertex -1.426068 6.358889 -0.2210586
endloop
endfacet
facet normal 0 0 -1
outer loop
vertex -1.426068 6.358889 -0.2210586
vertex -1.226068 6.558889 -0.2210586
vertex -1.226068 6.358889 -0.2210586
endloop
endfacet
facet normal 0 0 -1
outer loop
vertex -1.426068 6.358889 -0.2210586
vertex -1.226068 6.358889 -0.2210586
vertex -1.426068 6.158889 -0.2210586
endloop
endfacet
facet normal 0 0 -1
outer loop
vertex -1.426068 6.158889 -0.2210586
vertex -1.226068 6.358889 -0.2210586
vertex -1.226068 6.158889 -0.2210586
endloop
endfacet
facet normal 0 0 -1
outer loop
vertex -1.426068 6.158889 -0.2210586
vertex -1.226068 6.158889 -0.2210586
vertex -1.426068 5.958889 -0.2210586
endloop
endfacet
facet normal 0 0 -1
outer loop
vertex -1.426068 5.958889 -0.2210586
vertex -1.226068 6.158889 -0.2210586
vertex -1.226068 5.958889 -0.2210586
endloop
endfacet
facet normal 0 0 -1
outer loop
vertex -1.426068 5.958889 -0.2210586
vertex -1.226068 5.958889 -0.2210586
vertex -1.426068 5.758889 -0.2210586
endloop
endfacet
facet normal 0 0 -1
outer loop
vertex -1.426068 5.758889 -0.2210586
vertex -1.226068 5.958889 -0.2210586
vertex -1.226068 5.758889 -0.2210586
endloop
endfacet
facet normal 0 0 -1
outer loop
vertex -1.426068 5.758889 -0.2210586
vertex -1.626068 5.758889 -0.2210586
vertex -1.426068 5.958889 -0.2210586
endloop
endfacet
facet normal 0 0 -1
outer loop
vertex -1.426068 5.958889 -0.2210586
vertex -1.626068 5.758889 -0.2210586
vertex -1.626068 5.958889 -0.2210586
endloop
endfacet
facet normal 0 0 -1
outer loop
vertex -1.426068 5.958889 -0.2210586
vertex -1.626068 5.958889 -0.2210586
vertex -1.426068 6.158889 -0.2210586
endloop
endfacet
facet normal 0 0 -1
outer loop
vertex -1.426068 6.158889 -0.2210586
vertex -1.626068 5.958889 -0.2210586
vertex -1.626068 6.158889 -0.2210586
endloop
endfacet
facet normal 0 0 -1
outer loop
vertex -1.426068 6.158889 -0.2210586
vertex -1.626068 6.158889 -0.2210586
vertex -1.426068 6.358889 -0.2210586
endloop
endfacet
facet normal 0 0 -1
outer loop
vertex -1.426068 6.358889 -0.2210586
vertex -1.626068 6.158889 -0.2210586
vertex -1.626068 6.358889 -0.2210586
endloop
endfacet
facet normal 0 0 -1
outer loop
vertex -1.426068 6.358889 -0.2210586
vertex -1.626068 6.358889 -0.2210586
vertex -1.426068 6.558889 -0.2210586
endloop
endfacet
facet normal 0 0 -1
outer loop
vertex -1.426068 6.558889 -0.2210586
vertex -1.626068 6.358889 -0.2210586
vertex -1.626068 6.558889 -0.2210586
endloop
endfacet
facet normal 0 0 -1
outer loop
vertex -1.426068 6.558889 -0.2210586
vertex -1.626068 6.558889 -0.2210586
vertex -1.426068 6.758889 -0.2210586
endloop
endfacet
facet normal 0 0 -1
outer loop
vertex -1.426068 6.758889 -0.2210586
vertex -1.626068 6.558889 -0.2210586
vertex -1.626068 6.758889 -0.2210586
endloop
endfacet
facet normal 0 0 -1
outer loop
vertex -1.626068 6.758889 -0.2210586
vertex -1.626068 6.558889 -0.2210586
vertex -1.826068 6.558889 -0.2210586
endloop
endfacet
facet normal 0 0 -1
outer loop
vertex -1.626068 6.758889 -0.2210586
vertex -1.826068 6.558889 -0.2210586
vertex -1.826068 6.758889 -0.2210586
endloop
endfacet
facet normal 0 0 -1
outer loop
vertex -1.826068 6.758889 -0.2210586
vertex -1.826068 6.558889 -0.2210586
vertex -2.026068 6.558889 -0.2210586
endloop
endfacet
facet normal 0 0 -1
outer loop
vertex -1.826068 6.758889 -0.2210586
vertex -2.026068 6.558889 -0.2210586
vertex -2.026068 6.758889 -0.2210586
endloop
endfacet
facet normal 0 0 -1
outer loop
vertex -2.026068 6.758889 -0.2210586
vertex -2.026068 6.558889 -0.2210586
vertex -2.226068 6.558889 -0.2210586
endloop
endfacet
facet normal 0 0 -1
outer loop
vertex -2.026068 6.758889 -0.2210586
vertex -2.226068 6.558889 -0.2210586
vertex -2.226068 6.758889 -0.2210586
endloop
endfacet
facet normal 0 0 -1
outer loop
vertex -1.626068 5.758889 -0.2210586
vertex -1.826068 5.758889 -0.2210586
vertex -1.626068 5.958889 -0.2210586
endloop
endfacet
facet normal 0 0 -1
outer loop
vertex -1.626068 5.958889 -0.2210586
vertex -1.826068 5.758889 -0.2210586
vertex -1.826068 5.958889 -0.2210586
endloop
endfacet
facet normal 0 0 -1
outer loop
vertex -1.626068 5.958889 -0.2210586
vertex -1.826068 5.958889 -0.2210586
vertex -1.626068 6.158889 -0.2210586
endloop
endfacet
facet normal 0 0 -1
outer loop
vertex -1.626068 6.158889 -0.2210586
vertex -1.826068 5.958889 -0.2210586
vertex -1.826068 6.158889 -0.2210586
endloop
endfacet
facet normal 0 0 -1
outer loop
vertex -1.626068 6.158889 -0.2210586
vertex -1.826068 6.158889 -0.2210586
vertex -1.626068 6.358889 -0.2210586
endloop
endfacet
facet normal 0 0 -1
outer loop
vertex -1.626068 6.358889 -0.2210586
vertex -1.826068 6.158889 -0.2210586
vertex -1.826068 6.358889 -0.2210586
endloop
endfacet
facet normal 0 0 -1
outer loop
vertex -1.626068 6.358889 -0.2210586
vertex -1.826068 6.358889 -0.2210586
vertex -1.626068 6.558889 -0.2210586
endloop
endfacet
facet normal 0 0 -1
outer loop
vertex -1.626068 6.558889 -0.2210586
vertex -1.826068 6.358889 -0.2210586
vertex -1.826068 6.558889 -0.2210586
endloop
endfacet
facet normal 0 0 -1
outer loop
vertex -1.826068 5.758889 -0.2210586
vertex -2.026068 5.758889 -0.2210586
vertex -1.826068 5.958889 -0.2210586
endloop
endfacet
facet normal 0 0 -1
outer loop
vertex -1.826068 5.958889 -0.2210586
vertex -2.026068 5.758889 -0.2210586
vertex -2.026068 5.958889 -0.2210586
endloop
endfacet
facet normal 0 0 -1
outer loop
vertex -1.826068 5.958889 -0.2210586
vertex -2.026068 5.958889 -0.2210586
vertex -1.826068 6.158889 -0.2210586
endloop
endfacet
facet normal 0 0 -1
outer loop
vertex -1.826068 6.158889 -0.2210586
vertex -2.026068 5.958889 -0.2210586
vertex -2.026068 6.158889 -0.2210586
endloop
endfacet
facet normal 0 0 -1
outer loop
vertex -1.826068 6.158889 -0.2210586
vertex -2.026068 6.158889 -0.2210586
vertex -1.826068 6.358889 -0.2210586
endloop
endfacet
facet normal 0 0 -1
outer loop
vertex -1.826068 6.358889 -0.2210586
vertex -2.026068 6.158889 -0.2210586
vertex -2.026068 6.358889 -0.2210586
endloop
endfacet
facet normal 0 0 -1
outer loop
vertex -1.826068 6.358889 -0.2210586
vertex -2.026068 6.358889 -0.2210586
vertex -1.826068 6.558889 -0.2210586
endloop
endfacet
facet normal 0 0 -1
outer loop
vertex -1.826068 6.558889 -0.2210586
vertex -2.026068 6.358889 -0.2210586
vertex -2.026068 6.558889 -0.2210586
endloop
endfacet
facet normal 0 0 -1
outer loop
vertex -2.026068 5.758889 -0.2210586
vertex -2.226068 5.758889 -0.2210586
vertex -2.026068 5.958889 -0.2210586
endloop
endfacet
facet normal 0 0 -1
outer loop
vertex -2.026068 5.958889 -0.2210586
vertex -2.226068 5.758889 -0.2210586
vertex -2.226068 5.958889 -0.2210586
endloop
endfacet
facet normal 0 0 -1
outer loop
vertex -2.026068 5.958889 -0.2210586
vertex -2.226068 5.958889 -0.2210586
vertex -2.026068 6.158889 -0.2210586
endloop
endfacet
facet normal 0 0 -1
outer loop
vertex -2.026068 6.158889 -0.2210586
vertex -2.226068 5.958889 -0.2210586
vertex -2.226068 6.158889 -0.2210586
endloop
endfacet
facet normal 0 0 -1
outer loop
vertex -2.026068 6.158889 -0.2210586
vertex -2.226068 6.158889 -0.2210586
vertex -2.026068 6.358889 -0.2210586
endloop
endfacet
facet normal 0 0 -1
outer loop
vertex -2.026068 6.358889 -0.2210586
vertex -2.226068 6.158889 -0.2210586
vertex -2.226068 6.358889 -0.2210586
endloop
endfacet
facet normal 0 0 -1
outer loop
vertex -2.026068 6.358889 -0.2210586
vertex -2.226068 6.358889 -0.2210586
vertex -2.026068 6.558889 -0.2210586
endloop
endfacet
facet normal 0 0 -1
outer loop
vertex -2.026068 6.558889 -0.2210586
vertex -2.226068 6.358889 -0.2210586
vertex -2.226068 6.558889 -0.2210586
endloop
endfacet
facet normal 0 1 0
outer loop
vertex -2.226068 6.758889 1.091441
vertex -2.226068 6.758889 1.278941
vertex -2.026068 6.758889 1.091441
endloop
endfacet
facet normal 0 1 0
outer loop
vertex -2.026068 6.758889 1.091441
vertex -2.226068 6.758889 1.278941
vertex -2.026068 6.758889 1.278941
endloop
endfacet
facet normal 0 1 0
outer loop
vertex -2.026068 6.758889 1.091441
vertex -2.026068 6.758889 1.278941
vertex -1.826068 6.758889 1.091441
endloop
endfacet
facet normal 0 1 0
outer loop
vertex -1.826068 6.758889 1.091441
vertex -2.026068 6.758889 1.278941
vertex -1.826068 6.758889 1.278941
endloop
endfacet
facet normal 0 1 0
outer loop
vertex -1.826068 6.758889 1.091441
vertex -1.826068 6.758889 1.278941
vertex -1.626068 6.758889 1.091441
endloop
endfacet
facet normal 0 1 0
outer loop
vertex -1.626068 6.758889 1.091441
vertex -1.826068 6.758889 1.278941
vertex -1.626068 6.758889 1.278941
endloop
endfacet
facet normal 0 1 0
outer loop
vertex -1.626068 6.758889 1.091441
vertex -1.626068 6.758889 1.278941
vertex -1.426068 6.758889 1.091441
endloop
endfacet
facet normal 0 1 0
outer loop
vertex -1.426068 6.758889 1.091441
vertex -1.626068 6.758889 1.278941
vertex -1.426068 6.758889 1.278941
endloop
endfacet
facet normal 0 1 0
outer loop
vertex -1.426068 6.758889 1.091441
vertex -1.426068 6.758889 1.278941
vertex -1.226068 6.758889 1.091441
endloop
endfacet
facet normal 0 1 0
outer loop
vertex -1.226068 6.758889 1.091441
vertex -1.426068 6.758889 1.278941
vertex -1.226068 6.758889 1.278941
endloop
endfacet
facet normal 0 1 0
outer loop
vertex -1.226068 6.758889 1.091441
vertex -1.226068 6.758889 0.9039414
vertex -1.426068 6.758889 1.091441
endloop
endfacet
facet normal 0 1 0
outer loop
vertex -1.426068 6.758889 1.091441
vertex -1.226068 6.758889 0.9039414
vertex -1.426068 6.758889 0.9039414
endloop
endfacet
facet normal 0 1 0
outer loop
vertex -1.426068 6.758889 1.091441
vertex -1.426068 6.758889 0.9039414
vertex -1.626068 6.758889 1.091441
endloop
endfacet
facet normal 0 1 0
outer loop
vertex -1.626068 6.758889 1.091441
vertex -1.426068 6.758889 0.9039414
vertex -1.626068 6.758889 0.9039414
endloop
endfacet
facet normal 0 1 0
outer loop
vertex -1.626068 6.758889 1.091441
vertex -1.626068 6.758889 0.9039414
vertex -1.826068 6.758889 1.091441
endloop
endfacet
facet normal 0 1 0
outer loop
vertex -1.826068 6.758889 1.091441
vertex -1.626068 6.758889 0.9039414
vertex -1.826068 6.758889 0.9039414
endloop
endfacet
facet normal 0 1 0
outer loop
vertex -1.826068 6.758889 1.091441
vertex -1.826068 6.758889 0.9039414
vertex -2.026068 6.758889 1.091441
endloop
endfacet
facet normal 0 1 0
outer loop
vertex -2.026068 6.758889 1.091441
vertex -1.826068 6.758889 0.9039414
vertex -2.026068 6.758889 0.9039414
endloop
endfacet
facet normal 0 1 0
outer loop
vertex -2.026068 6.758889 1.091441
vertex -2.026068 6.758889 0.9039414
vertex -2.226068 6.758889 1.091441
endloop
endfacet
facet normal 0 1 0
outer loop
vertex -2.226068 6.758889 1.091441
vertex -2.026068 6.758889 0.9039414
vertex -2.226068 6.758889 0.9039414
endloop
endfacet
facet normal 0 1 0
outer loop
vertex -2.226068 6.758889 0.9039414
vertex -2.026068 6.758889 0.9039414
vertex -2.026068 6.758889 0.7164414
endloop
endfacet
facet normal 0 1 0
outer loop
vertex -2.226068 6.758889 0.9039414
vertex -2.026068 6.758889 0.7164414
vertex -2.226068 6.758889 0.7164414
endloop
endfacet
facet normal 0 1 0
outer loop
vertex -2.226068 6.758889 0.7164414
vertex -2.026068 6.758889 0.7164414
vertex -2.026068 6.758889 0.5289414
endloop
endfacet
facet normal 0 1 0
outer loop
vertex -2.226068 6.758889 0.7164414
vertex -2.026068 6.758889 0.5289414
vertex -2.226068 6.758889 0.5289414
endloop
endfacet
facet normal 0 1 0
outer loop
vertex -2.226068 6.758889 0.5289414
vertex -2.026068 6.758889 0.5289414
vertex -2.026068 6.758889 0.3414414
endloop
endfacet
facet normal 0 1 0
outer loop
vertex -2.226068 6.758889 0.5289414
vertex -2.026068 6.758889 0.3414414
vertex -2.226068 6.758889 0.3414414
endloop
endfacet
facet normal 0 1 0
outer loop
vertex -2.226068 6.758889 0.3414414
vertex -2.026068 6.758889 0.3414414
vertex -2.026068 6.758889 0.1539414
endloop
endfacet
facet normal 0 1 0
outer loop
vertex -2.226068 6.758889 0.3414414
vertex -2.026068 6.758889 0.1539414
vertex -2.226068 6.758889 0.1539414
endloop
endfacet
facet normal 0 1 0
outer loop
vertex -2.226068 6.758889 0.1539414
vertex -2.026068 6.758889 0.1539414
vertex -2.026068 6.758889 -0.03355865
endloop
endfacet
facet normal 0 1 0
outer loop
vertex -2.226068 6.758889 0.1539414
vertex -2.026068 6.758889 -0.03355865
vertex -2.226068 6.758889 -0.03355865
endloop
endfacet
facet normal 0 1 0
outer loop
vertex -2.226068 6.758889 -0.03355865
vertex -2.026068 6.758889 -0.03355865
vertex -2.026068 6.758889 -0.2210586
endloop
endfacet
facet normal 0 1 0
outer loop
vertex -2.226068 6.758889 -0.03355865
vertex -2.026068 6.758889 -0.2210586
vertex -2.226068 6.758889 -0.2210586
endloop
endfacet
facet normal 0 1 0
outer loop
vertex -1.226068 6.758889 0.9039414
vertex -1.226068 6.758889 0.7164414
vertex -1.426068 6.758889 0.9039414
endloop
endfacet
facet normal 0 1 0
outer loop
vertex -1.426068 6.758889 0.9039414
vertex -1.226068 6.758889 0.7164414
vertex -1.426068 6.758889 0.7164414
endloop
endfacet
facet normal 0 1 0
outer loop
vertex -1.426068 6.758889 0.9039414
vertex -1.426068 6.758889 0.7164414
vertex -1.626068 6.758889 0.9039414
endloop
endfacet
facet normal 0 1 0
outer loop
vertex -1.626068 6.758889 0.9039414
vertex -1.426068 6.758889 0.7164414
vertex -1.626068 6.758889 0.7164414
endloop
endfacet
facet normal 0 1 0
outer loop
vertex -1.626068 6.758889 0.9039414
vertex -1.626068 6.758889 0.7164414
vertex -1.826068 6.758889 0.9039414
endloop
endfacet
facet normal 0 1 0
outer loop
vertex -1.826068 6.758889 0.9039414
vertex -1.626068 6.758889 0.7164414
vertex -1.826068 6.758889 0.7164414
endloop
endfacet
facet normal 0 1 0
outer loop
vertex -1.826068 6.758889 0.9039414
vertex -1.826068 6.758889 0.7164414
vertex -2.026068 6.758889 0.9039414
endloop
endfacet
facet normal 0 1 0
outer loop
vertex -2.026068 6.758889 0.9039414
vertex -1.826068 6.758889 0.7164414
vertex -2.026068 6.758889 0.7164414
endloop
endfacet
facet normal 0 1 0
outer loop
vertex -1.226068 6.758889 0.7164414
vertex -1.226068 6.758889 0.5289414
vertex -1.426068 6.758889 0.7164414
endloop
endfacet
facet normal 0 1 0
outer loop
vertex -1.426068 6.758889 0.7164414
vertex -1.226068 6.758889 0.5289414
vertex -1.426068 6.758889 0.5289414
endloop
endfacet
facet normal 0 1 0
outer loop
vertex -1.426068 6.758889 0.7164414
vertex -1.426068 6.758889 0.5289414
vertex -1.626068 6.758889 0.7164414
endloop
endfacet
facet normal 0 1 0
outer loop
vertex -1.626068 6.758889 0.7164414
vertex -1.426068 6.758889 0.5289414
vertex -1.626068 6.758889 0.5289414
endloop
endfacet
facet normal 0 1 0
outer loop
vertex -1.626068 6.758889 0.7164414
vertex -1.626068 6.758889 0.5289414
vertex -1.826068 6.758889 0.7164414
endloop
endfacet
facet normal 0 1 0
outer loop
vertex -1.826068 6.758889 0.7164414
vertex -1.626068 6.758889 0.5289414
vertex -1.826068 6.758889 0.5289414
endloop
endfacet
facet normal 0 1 0
outer loop
vertex -1.826068 6.758889 0.7164414
vertex -1.826068 6.758889 0.5289414
vertex -2.026068 6.758889 0.7164414
endloop
endfacet
facet normal 0 1 0
outer loop
vertex -2.026068 6.758889 0.7164414
vertex -1.826068 6.758889 0.5289414
vertex -2.026068 6.758889 0.5289414
endloop
endfacet
facet normal 0 1 0
outer loop
vertex -1.226068 6.758889 0.5289414
vertex -1.226068 6.758889 0.3414414
vertex -1.426068 6.758889 0.5289414
endloop
endfacet
facet normal 0 1 0
outer loop
vertex -1.426068 6.758889 0.5289414
vertex -1.226068 6.758889 0.3414414
vertex -1.426068 6.758889 0.3414414
endloop
endfacet
facet normal 0 1 0
outer loop
vertex -1.426068 6.758889 0.5289414
vertex -1.426068 6.758889 0.3414414
vertex -1.626068 6.758889 0.5289414
endloop
endfacet
facet normal 0 1 0
outer loop
vertex -1.626068 6.758889 0.5289414
vertex -1.426068 6.758889 0.3414414
vertex -1.626068 6.758889 0.3414414
endloop
endfacet
facet normal 0 1 0
outer loop
vertex -1.626068 6.758889 0.5289414
vertex -1.626068 6.758889 0.3414414
vertex -1.826068 6.758889 0.5289414
endloop
endfacet
facet normal 0 1 0
outer loop
vertex -1.826068 6.758889 0.5289414
vertex -1.626068 6.758889 0.3414414
vertex -1.826068 6.758889 0.3414414
endloop
endfacet
facet normal 0 1 0
outer loop
vertex -1.826068 6.758889 0.5289414
vertex -1.826068 6.758889 0.3414414
vertex -2.026068 6.758889 0.5289414
endloop
endfacet
facet normal 0 1 0
outer loop
vertex -2.026068 6.758889 0.5289414
vertex -1.826068 6.758889 0.3414414
vertex -2.026068 6.758889 0.3414414
endloop
endfacet
facet normal 0 1 0
outer loop
vertex -1.226068 6.758889 0.3414414
vertex -1.226068 6.758889 0.1539414
vertex -1.426068 6.758889 0.3414414
endloop
endfacet
facet normal 0 1 0
outer loop
vertex -1.426068 6.758889 0.3414414
vertex -1.226068 6.758889 0.1539414
vertex -1.426068 6.758889 0.1539414
endloop
endfacet
facet normal 0 1 0
outer loop
vertex -1.426068 6.758889 0.3414414
vertex -1.426068 6.758889 0.1539414
vertex -1.626068 6.758889 0.3414414
endloop
endfacet
facet normal 0 1 0
outer loop
vertex -1.626068 6.758889 0.3414414
vertex -1.426068 6.758889 0.1539414
vertex -1.626068 6.758889 0.1539414
endloop
endfacet
facet normal 0 1 0
outer loop
vertex -1.626068 6.758889 0.3414414
vertex -1.626068 6.758889 0.1539414
vertex -1.826068 6.758889 0.3414414
endloop
endfacet
facet normal 0 1 0
outer loop
vertex -1.826068 6.758889 0.3414414
vertex -1.626068 6.758889 0.1539414
vertex -1.826068 6.758889 0.1539414
endloop
endfacet
facet normal 0 1 0
outer loop
vertex -1.826068 6.758889 0.3414414
vertex -1.826068 6.758889 0.1539414
vertex -2.026068 6.758889 0.3414414
endloop
endfacet
facet normal 0 1 0
outer loop
vertex -2.026068 6.758889 0.3414414
vertex -1.826068 6.758889 0.1539414
vertex -2.026068 6.758889 0.1539414
endloop
endfacet
facet normal 0 1 0
outer loop
vertex -1.226068 6.758889 0.1539414
vertex -1.226068 6.758889 -0.03355865
vertex -1.426068 6.758889 0.1539414
endloop
endfacet
facet normal 0 1 0
outer loop
vertex -1.426068 6.758889 0.1539414
vertex -1.226068 6.758889 -0.03355865
vertex -1.426068 6.758889 -0.03355865
endloop
endfacet
facet normal 0 1 0
outer loop
vertex -1.426068 6.758889 0.1539414
vertex -1.426068 6.758889 -0.03355865
vertex -1.626068 6.758889 0.1539414
endloop
endfacet
facet normal 0 1 0
outer loop
vertex -1.626068 6.758889 0.1539414
vertex -1.426068 6.758889 -0.03355865
vertex -1.626068 6.758889 -0.03355865
endloop
endfacet
facet normal 0 1 0
outer loop
vertex -1.626068 6.758889 0.1539414
vertex -1.626068 6.758889 -0.03355865
vertex -1.826068 6.758889 0.1539414
endloop
endfacet
facet normal 0 1 0
outer loop
vertex -1.826068 6.758889 0.1539414
vertex -1.626068 6.758889 -0.03355865
vertex -1.826068 6.758889 -0.03355865
endloop
endfacet
facet normal 0 1 0
outer loop
vertex -1.826068 6.758889 0.1539414
vertex -1.826068 6.758889 -0.03355865
vertex -2.026068 6.758889 0.1539414
endloop
endfacet
facet normal 0 1 0
outer loop
vertex -2.026068 6.758889 0.1539414
vertex -1.826068 6.758889 -0.03355865
vertex -2.026068 6.758889 -0.03355865
endloop
endfacet
facet normal 0 1 0
outer loop
vertex -1.226068 6.758889 -0.03355865
vertex -1.226068 6.758889 -0.2210586
vertex -1.426068 6.758889 -0.03355865
endloop
endfacet
facet normal 0 1 0
outer loop
vertex -1.426068 6.758889 -0.03355865
vertex -1.226068 6.758889 -0.2210586
vertex -1.426068 6.758889 -0.2210586
endloop
endfacet
facet normal 0 1 0
outer loop
vertex -1.426068 6.758889 -0.03355865
vertex -1.426068 6.758889 -0.2210586
vertex -1.626068 6.758889 -0.03355865
endloop
endfacet
facet normal 0 1 0
outer loop
vertex -1.626068 6.758889 -0.03355865
vertex -1.426068 6.758889 -0.2210586
vertex -1.626068 6.758889 -0.2210586
endloop
endfacet
facet normal 0 1 0
outer loop
vertex -1.626068 6.758889 -0.03355865
vertex -1.626068 6.758889 -0.2210586
vertex -1.826068 6.758889 -0.03355865
endloop
endfacet
facet normal 0 1 0
outer loop
vertex -1.826068 6.758889 -0.03355865
vertex -1.626068 6.758889 -0.2210586
vertex -1.826068 6.758889 -0.2210586
endloop
endfacet
facet normal 0 1 0
outer loop
vertex -1.826068 6.758889 -0.03355865
vertex -1.826068 6.758889 -0.2210586
vertex -2.026068 6.758889 -0.03355865
endloop
endfacet
facet normal 0 1 0
outer loop
vertex -2.026068 6.758889 -0.03355865
vertex -1.826068 6.758889 -0.2210586
vertex -2.026068 6.758889 -0.2210586
endloop
endfacet
facet normal -1 0 0
outer loop
vertex -2.226068 5.758889 1.091441
vertex -2.226068 5.758889 1.278941
vertex -2.226068 5.958889 1.091441
endloop
endfacet
facet normal -1 0 0
outer loop
vertex -2.226068 5.958889 1.091441
vertex -2.226068 5.758889 1.278941
vertex -2.226068 5.958889 1.278941
endloop
endfacet
facet normal -1 0 0
outer loop
vertex -2.226068 5.958889 1.091441
vertex -2.226068 5.958889 1.278941
vertex -2.226068 6.158889 1.091441
endloop
endfacet
facet normal -1 0 0
outer loop
vertex -2.226068 6.158889 1.091441
vertex -2.226068 5.958889 1.278941
vertex -2.226068 6.158889 1.278941
endloop
endfacet
facet normal -1 0 0
outer loop
vertex -2.226068 6.158889 1.091441
vertex -2.226068 6.158889 1.278941
vertex -2.226068 6.358889 1.091441
endloop
endfacet
facet normal -1 0 0
outer loop
vertex -2.226068 6.358889 1.091441
vertex -2.226068 6.158889 1.278941
vertex -2.226068 6.358889 1.278941
endloop
endfacet
facet normal -1 0 0
outer loop
vertex -2.226068 6.358889 1.091441
vertex -2.226068 6.358889 1.278941
vertex -2.226068 6.558889 1.091441
endloop
endfacet
facet normal -1 0 0
outer loop
vertex -2.226068 6.558889 1.091441
vertex -2.226068 6.358889 1.278941
vertex -2.226068 6.558889 1.278941
endloop
endfacet
facet normal -1 0 0
outer loop
vertex -2.226068 6.558889 1.091441
vertex -2.226068 6.558889 1.278941
vertex -2.226068 6.758889 1.091441
endloop
endfacet
facet normal -1 0 0
outer loop
vertex -2.226068 6.758889 1.091441
vertex -2.226068 6.558889 1.278941
vertex -2.226068 6.758889 1.278941
endloop
endfacet
facet normal -1 0 0
outer loop
vertex -2.226068 6.758889 1.091441
vertex -2.226068 6.758889 0.9039414
vertex -2.226068 6.558889 1.091441
endloop
endfacet
facet normal -1 0 0
outer loop
vertex -2.226068 6.558889 1.091441
vertex -2.226068 6.758889 0.9039414
vertex -2.226068 6.558889 0.9039414
endloop
endfacet
facet normal -1 0 0
outer loop
vertex -2.226068 6.558889 1.091441
vertex -2.226068 6.558889 0.9039414
vertex -2.226068 6.358889 1.091441
endloop
endfacet
facet normal -1 0 0
outer loop
vertex -2.226068 6.358889 1.091441
vertex -2.226068 6.558889 0.9039414
vertex -2.226068 6.358889 0.9039414
endloop
endfacet
facet normal -1 0 0
outer loop
vertex -2.226068 6.358889 1.091441
vertex -2.226068 6.358889 0.9039414
vertex -2.226068 6.158889 1.091441
endloop
endfacet
facet normal -1 0 0
outer loop
vertex -2.226068 6.158889 1.091441
vertex -2.226068 6.358889 0.9039414
vertex -2.226068 6.158889 0.9039414
endloop
endfacet
facet normal -1 0 0
outer loop
vertex -2.226068 6.158889 1.091441
vertex -2.226068 6.158889 0.9039414
vertex -2.226068 5.958889 1.091441
endloop
endfacet
facet normal -1 0 0
outer loop
vertex -2.226068 5.958889 1.091441
vertex -2.226068 6.158889 0.9039414
vertex -2.226068 5.958889 0.9039414
endloop
endfacet
facet normal -1 0 0
outer loop
vertex -2.226068 5.958889 1.091441
vertex -2.226068 5.958889 0.9039414
vertex -2.226068 5.758889 1.091441
endloop
endfacet
facet normal -1 0 0
outer loop
vertex -2.226068 5.758889 1.091441
vertex -2.226068 5.958889 0.9039414
vertex -2.226068 5.758889 0.9039414
endloop
endfacet
facet normal -1 0 0
outer loop
vertex -2.226068 5.758889 0.9039414
vertex -2.226068 5.958889 0.9039414
vertex -2.226068 5.958889 0.7164414
endloop
endfacet
facet normal -1 0 0
outer loop
vertex -2.226068 5.758889 0.9039414
vertex -2.226068 5.958889 0.7164414
vertex -2.226068 5.758889 0.7164414
endloop
endfacet
facet normal -1 0 0
outer loop
vertex -2.226068 5.758889 0.7164414
vertex -2.226068 5.958889 0.7164414
vertex -2.226068 5.958889 0.5289414
endloop
endfacet
facet normal -1 0 0
outer loop
vertex -2.226068 5.758889 0.7164414
vertex -2.226068 5.958889 0.5289414
vertex -2.226068 5.758889 0.5289414
endloop
endfacet
facet normal -1 0 0
outer loop
vertex -2.226068 5.758889 0.5289414
vertex -2.226068 5.958889 0.5289414
vertex -2.226068 5.958889 0.3414414
endloop
endfacet
facet normal -1 0 0
outer loop
vertex -2.226068 5.758889 0.5289414
vertex -2.226068 5.958889 0.3414414
vertex -2.226068 5.758889 0.3414414
endloop
endfacet
facet normal -1 0 0
outer loop
vertex -2.226068 5.758889 0.3414414
vertex -2.226068 5.958889 0.3414414
vertex -2.226068 5.958889 0.1539414
endloop
endfacet
facet normal -1 0 0
outer loop
vertex -2.226068 5.758889 0.3414414
vertex -2.226068 5.958889 0.1539414
vertex -2.226068 5.758889 0.1539414
endloop
endfacet
facet normal -1 0 0
outer loop
vertex -2.226068 5.758889 0.1539414
vertex -2.226068 5.958889 0.1539414
vertex -2.226068 5.958889 -0.03355865
endloop
endfacet
facet normal -1 0 0
outer loop
vertex -2.226068 5.758889 0.1539414
vertex -2.226068 5.958889 -0.03355865
vertex -2.226068 5.758889 -0.03355865
endloop
endfacet
facet normal -1 0 0
outer loop
vertex -2.226068 5.758889 -0.03355865
vertex -2.226068 5.958889 -0.03355865
vertex -2.226068 5.958889 -0.2210586
endloop
endfacet
facet normal -1 0 0
outer loop
vertex -2.226068 5.758889 -0.03355865
vertex -2.226068 5.958889 -0.2210586
vertex -2.226068 5.758889 -0.2210586
endloop
endfacet
facet normal -1 0 0
outer loop
vertex -2.226068 6.758889 0.9039414
vertex -2.226068 6.758889 0.7164414
vertex -2.226068 6.558889 0.9039414
endloop
endfacet
facet normal -1 0 0
outer loop
vertex -2.226068 6.558889 0.9039414
vertex -2.226068 6.758889 0.7164414
vertex -2.226068 6.558889 0.7164414
endloop
endfacet
facet normal -1 0 0
outer loop
vertex -2.226068 6.558889 0.9039414
vertex -2.226068 6.558889 0.7164414
vertex -2.226068 6.358889 0.9039414
endloop
endfacet
facet normal -1 0 0
outer loop
vertex -2.226068 6.358889 0.9039414
vertex -2.226068 6.558889 0.7164414
vertex -2.226068 6.358889 0.7164414
endloop
endfacet
facet normal -1 0 0
outer loop
vertex -2.226068 6.358889 0.9039414
vertex -2.226068 6.358889 0.7164414
vertex -2.226068 6.158889 0.9039414
endloop
endfacet
facet normal -1 0 0
outer loop
vertex -2.226068 6.158889 0.9039414
vertex -2.226068 6.358889 0.7164414
vertex -2.226068 6.158889 0.7164414
endloop
endfacet
facet normal -1 0 0
outer loop
vertex -2.226068 6.158889 0.9039414
vertex -2.226068 6.158889 0.7164414
vertex -2.226068 5.958889 0.9039414
endloop
endfacet
facet normal -1 0 0
outer loop
vertex -2.226068 5.958889 0.9039414
vertex -2.226068 6.158889 0.7164414
vertex -2.226068 5.958889 0.7164414
endloop
endfacet
facet normal -1 0 0
outer loop
vertex -2.226068 6.758889 0.7164414
vertex -2.226068 6.758889 0.5289414
vertex -2.226068 6.558889 0.7164414
endloop
endfacet
facet normal -1 0 0
outer loop
vertex -2.226068 6.558889 0.7164414
vertex -2.226068 6.758889 0.5289414
vertex -2.226068 6.558889 0.5289414
endloop
endfacet
facet normal -1 0 0
outer loop
vertex -2.226068 6.558889 0.7164414
vertex -2.226068 6.558889 0.5289414
vertex -2.226068 6.358889 0.7164414
endloop
endfacet
facet normal -1 0 0
outer loop
vertex -2.226068 6.358889 0.7164414
vertex -2.226068 6.558889 0.5289414
vertex -2.226068 6.358889 0.5289414
endloop
endfacet
facet normal -1 0 0
outer loop
vertex -2.226068 6.358889 0.7164414
vertex -2.226068 6.358889 0.5289414
vertex -2.226068 6.158889 0.7164414
endloop
endfacet
facet normal -1 0 0
outer loop
vertex -2.226068 6.158889 0.7164414
vertex -2.226068 6.358889 0.5289414
vertex -2.226068 6.158889 0.5289414
endloop
endfacet
facet normal -1 0 0
outer loop
vertex -2.226068 6.158889 0.7164414
vertex -2.226068 6.158889 0.5289414
vertex -2.226068 5.958889 0.7164414
endloop
endfacet
facet normal -1 0 0
outer loop
vertex -2.226068 5.958889 0.7164414
vertex -2.226068 6.158889 0.5289414
vertex -2.226068 5.958889 0.5289414
endloop
endfacet
facet normal -1 0 0
outer loop
vertex -2.226068 6.758889 0.5289414
vertex -2.226068 6.758889 0.3414414
vertex -2.226068 6.558889 0.5289414
endloop
endfacet
facet normal -1 0 0
outer loop
vertex -2.226068 6.558889 0.5289414
vertex -2.226068 6.758889 0.3414414
vertex -2.226068 6.558889 0.3414414
endloop
endfacet
facet normal -1 0 0
outer loop
vertex -2.226068 6.558889 0.5289414
vertex -2.226068 6.558889 0.3414414
vertex -2.226068 6.358889 0.5289414
endloop
endfacet
facet normal -1 0 0
outer loop
vertex -2.226068 6.358889 0.5289414
vertex -2.226068 6.558889 0.3414414
vertex -2.226068 6.358889 0.3414414
endloop
endfacet
facet normal -1 0 0
outer loop
vertex -2.226068 6.358889 0.5289414
vertex -2.226068 6.358889 0.3414414
vertex -2.226068 6.158889 0.5289414
endloop
endfacet
facet normal -1 0 0
outer loop
vertex -2.226068 6.158889 0.5289414
vertex -2.226068 6.358889 0.3414414
vertex -2.226068 6.158889 0.3414414
endloop
endfacet
facet normal -1 0 0
outer loop
vertex -2.226068 6.158889 0.5289414
vertex -2.226068 6.158889 0.3414414
vertex -2.226068 5.958889 0.5289414
endloop
endfacet
facet normal -1 0 0
outer loop
vertex -2.226068 5.958889 0.5289414
vertex -2.226068 6.158889 0.3414414
vertex -2.226068 5.958889 0.3414414
endloop
endfacet
facet normal -1 0 0
outer loop
vertex -2.226068 6.758889 0.3414414
vertex -2.226068 6.758889 0.1539414
vertex -2.226068 6.558889 0.3414414
endloop
endfacet
facet normal -1 0 0
outer loop
vertex -2.226068 6.558889 0.3414414
vertex -2.226068 6.758889 0.1539414
vertex -2.226068 6.558889 0.1539414
endloop
endfacet
facet normal -1 0 0
outer loop
vertex -2.226068 6.558889 0.3414414
vertex -2.226068 6.558889 0.1539414
vertex -2.226068 6.358889 0.3414414
endloop
endfacet
facet normal -1 0 0
outer loop
vertex -2.226068 6.358889 0.3414414
vertex -2.226068 6.558889 0.1539414
vertex -2.226068 6.358889 0.1539414
endloop
endfacet
facet normal -1 0 0
outer loop
vertex -2.226068 6.358889 0.3414414
vertex -2.226068 6.358889 0.1539414
vertex -2.226068 6.158889 0.3414414
endloop
endfacet
facet normal -1 0 0
outer loop
vertex -2.226068 6.158889 0.3414414
vertex -2.226068 6.358889 0.1539414
vertex -2.226068 6.158889 0.1539414
endloop
endfacet
facet normal -1 0 0
outer loop
vertex -2.226068 6.158889 0.3414414
vertex -2.226068 6.158889 0.1539414
vertex -2.226068 5.958889 0.3414414
endloop
endfacet
facet normal -1 0 0
outer loop
vertex -2.226068 5.958889 0.3414414
vertex -2.226068 6.158889 0.1539414
vertex -2.226068 5.958889 0.1539414
endloop
endfacet
facet normal -1 0 0
outer loop
vertex -2.226068 6.758889 0.1539414
vertex -2.226068 6.758889 -0.03355865
vertex -2.226068 6.558889 0.1539414
endloop
endfacet
facet normal -1 0 0
outer loop
vertex -2.226068 6.558889 0.1539414
vertex -2.226068 6.758889 -0.03355865
vertex -2.226068 6.558889 -0.03355865
endloop
endfacet
facet normal -1 0 0
outer loop
vertex -2.226068 6.558889 0.1539414
vertex -2.226068 6.558889 -0.03355865
vertex -2.226068 6.358889 0.1539414
endloop
endfacet
facet normal -1 0 0
outer loop
vertex -2.226068 6.358889 0.1539414
vertex -2.226068 6.558889 -0.03355865
vertex -2.226068 6.358889 -0.03355865
endloop
endfacet
facet normal -1 0 0
outer loop
vertex -2.226068 6.358889 0.1539414
vertex -2.226068 6.358889 -0.03355865
vertex -2.226068 6.158889 0.1539414
endloop
endfacet
facet normal -1 0 0
outer loop
vertex -2.226068 6.158889 0.1539414
vertex -2.226068 6.358889 -0.03355865
vertex -2.226068 6.158889 -0.03355865
endloop
endfacet
facet normal -1 0 0
outer loop
vertex -2.226068 6.158889 0.1539414
vertex -2.226068 6.158889 -0.03355865
vertex -2.226068 5.958889 0.1539414
endloop
endfacet
facet normal -1 0 0
outer loop
vertex -2.226068 5.958889 0.1539414
vertex -2.226068 6.158889 -0.03355865
vertex -2.226068 5.958889 -0.03355865
endloop
endfacet
facet normal -1 0 0
outer loop
vertex -2.226068 6.758889 -0.03355865
vertex -2.226068 6.758889 -0.2210586
vertex -2.226068 6.558889 -0.03355865
endloop
endfacet
facet normal -1 0 0
outer loop
vertex -2.226068 6.558889 -0.03355865
vertex -2.226068 6.758889 -0.2210586
vertex -2.226068 6.558889 -0.2210586
endloop
endfacet
facet normal -1 0 0
outer loop
vertex -2.226068 6.558889 -0.03355865
vertex -2.226068 6.558889 -0.2210586
vertex -2.226068 6.358889 -0.03355865
endloop
endfacet
facet normal -1 0 0
outer loop
vertex -2.226068 6.358889 -0.03355865
vertex -2.226068 6.558889 -0.2210586
vertex -2.226068 6.358889 -0.2210586
endloop
endfacet
facet normal -1 0 0
outer loop
vertex -2.226068 6.358889 -0.03355865
vertex -2.226068 6.358889 -0.2210586
vertex -2.226068 6.158889 -0.03355865
endloop
endfacet
facet normal -1 0 0
outer loop
vertex -2.226068 6.158889 -0.03355865
vertex -2.226068 6.358889 -0.2210586
vertex -2.226068 6.158889 -0.2210586
endloop
endfacet
facet normal -1 0 0
outer loop
vertex -2.226068 6.158889 -0.03355865
vertex -2.226068 6.158889 -0.2210586
vertex -2.226068 5.958889 -0.03355865
endloop
endfacet
facet normal -1 0 0
outer loop
vertex -2.226068 5.958889 -0.03355865
vertex -2.226068 6.158889 -0.2210586
vertex -2.226068 5.958889 -0.2210586
endloop
endfacet
facet normal 0 -1 0
outer loop
vertex -1.226068 5.758889 1.091441
vertex -1.226068 5.758889 1.278941
vertex -1.426068 5.758889 1.091441
endloop
endfacet
facet normal 0 -1 0
outer loop
vertex -1.426068 5.758889 1.091441
vertex -1.226068 5.758889 1.278941
vertex -1.426068 5.758889 1.278941
endloop
endfacet
facet normal 0 -1 0
outer loop
vertex -1.426068 5.758889 1.091441
vertex -1.426068 5.758889 1.278941
vertex -1.626068 5.758889 1.091441
endloop
endfacet
facet normal 0 -1 0
outer loop
vertex -1.626068 5.758889 1.091441
vertex -1.426068 5.758889 1.278941
vertex -1.626068 5.758889 1.278941
endloop
endfacet
facet normal 0 -1 0
outer loop
vertex -1.626068 5.758889 1.091441
vertex -1.626068 5.758889 1.278941
vertex -1.826068 5.758889 1.091441
endloop
endfacet
facet normal 0 -1 0
outer loop
vertex -1.826068 5.758889 1.091441
vertex -1.626068 5.758889 1.278941
vertex -1.826068 5.758889 1.278941
endloop
endfacet
facet normal 0 -1 0
outer loop
vertex -1.826068 5.758889 1.091441
vertex -1.826068 5.758889 1.278941
vertex -2.026068 5.758889 1.091441
endloop
endfacet
facet normal 0 -1 0
outer loop
vertex -2.026068 5.758889 1.091441
vertex -1.826068 5.758889 1.278941
vertex -2.026068 5.758889 1.278941
endloop
endfacet
facet normal 0 -1 0
outer loop
vertex -2.026068 5.758889 1.091441
vertex -2.026068 5.758889 1.278941
vertex -2.226068 5.758889 1.091441
endloop
endfacet
facet normal 0 -1 0
outer loop
vertex -2.226068 5.758889 1.091441
vertex -2.026068 5.758889 1.278941
vertex -2.226068 5.758889 1.278941
endloop
endfacet
facet normal 0 -1 0
outer loop
vertex -2.226068 5.758889 1.091441
vertex -2.226068 5.758889 0.9039414
vertex -2.026068 5.758889 1.091441
endloop
endfacet
facet normal 0 -1 0
outer loop
vertex -2.026068 5.758889 1.091441
vertex -2.226068 5.758889 0.9039414
vertex -2.026068 5.758889 0.9039414
endloop
endfacet
facet normal 0 -1 0
outer loop
vertex -2.026068 5.758889 1.091441
vertex -2.026068 5.758889 0.9039414
vertex -1.826068 5.758889 1.091441
endloop
endfacet
facet normal 0 -1 0
outer loop
vertex -1.826068 5.758889 1.091441
vertex -2.026068 5.758889 0.9039414
vertex -1.826068 5.758889 0.9039414
endloop
endfacet
facet normal 0 -1 0
outer loop
vertex -1.826068 5.758889 1.091441
vertex -1.826068 5.758889 0.9039414
vertex -1.626068 5.758889 1.091441
endloop
endfacet
facet normal 0 -1 0
outer loop
vertex -1.626068 5.758889 1.091441
vertex -1.826068 5.758889 0.9039414
vertex -1.626068 5.758889 0.9039414
endloop
endfacet
facet normal 0 -1 0
outer loop
vertex -1.626068 5.758889 1.091441
vertex -1.626068 5.758889 0.9039414
vertex -1.426068 5.758889 1.091441
endloop
endfacet
facet normal 0 -1 0
outer loop
vertex -1.426068 5.758889 1.091441
vertex -1.626068 5.758889 0.9039414
vertex -1.426068 5.758889 0.9039414
endloop
endfacet
facet normal 0 -1 0
outer loop
vertex -1.426068 5.758889 1.091441
vertex -1.426068 5.758889 0.9039414
vertex -1.226068 5.758889 1.091441
endloop
endfacet
facet normal 0 -1 0
outer loop
vertex -1.226068 5.758889 1.091441
vertex -1.426068 5.758889 0.9039414
vertex -1.226068 5.758889 0.9039414
endloop
endfacet
facet normal 0 -1 0
outer loop
vertex -1.226068 5.758889 0.9039414
vertex -1.426068 5.758889 0.9039414
vertex -1.426068 5.758889 0.7164414
endloop
endfacet
facet normal 0 -1 0
outer loop
vertex -1.226068 5.758889 0.9039414
vertex -1.426068 5.758889 0.7164414
vertex -1.226068 5.758889 0.7164414
endloop
endfacet
facet normal 0 -1 0
outer loop
vertex -1.226068 5.758889 0.7164414
vertex -1.426068 5.758889 0.7164414
vertex -1.426068 5.758889 0.5289414
endloop
endfacet
facet normal 0 -1 0
outer loop
vertex -1.226068 5.758889 0.7164414
vertex -1.426068 5.758889 0.5289414
vertex -1.226068 5.758889 0.5289414
endloop
endfacet
facet normal 0 -1 0
outer loop
vertex -1.226068 5.758889 0.5289414
vertex -1.426068 5.758889 0.5289414
vertex -1.426068 5.758889 0.3414414
endloop
endfacet
facet normal 0 -1 0
outer loop
vertex -1.226068 5.758889 0.5289414
vertex -1.426068 5.758889 0.3414414
vertex -1.226068 5.758889 0.3414414
endloop
endfacet
facet normal 0 -1 0
outer loop
vertex -1.226068 5.758889 0.3414414
vertex -1.426068 5.758889 0.3414414
vertex -1.426068 5.758889 0.1539414
endloop
endfacet
facet normal 0 -1 0
outer loop
vertex -1.226068 5.758889 0.3414414
vertex -1.426068 5.758889 0.1539414
vertex -1.226068 5.758889 0.1539414
endloop
endfacet
facet normal 0 -1 0
outer loop
vertex -1.226068 5.758889 0.1539414
vertex -1.426068 5.758889 0.1539414
vertex -1.426068 5.758889 -0.03355865
endloop
endfacet
facet normal 0 -1 0
outer loop
vertex -1.226068 5.758889 0.1539414
vertex -1.426068 5.758889 -0.03355865
vertex -1.226068 5.758889 -0.03355865
endloop
endfacet
facet normal 0 -1 0
outer loop
vertex -1.226068 5.758889 -0.03355865
vertex -1.426068 5.758889 -0.03355865
vertex -1.426068 5.758889 -0.2210586
endloop
endfacet
facet normal 0 -1 0
outer loop
vertex -1.226068 5.758889 -0.03355865
vertex -1.426068 5.758889 -0.2210586
vertex -1.226068 5.758889 -0.2210586
endloop
endfacet
facet normal 0 -1 0
outer loop
vertex -2.226068 5.758889 0.9039414
vertex -2.226068 5.758889 0.7164414
vertex -2.026068 5.758889 0.9039414
endloop
endfacet
facet normal 0 -1 0
outer loop
vertex -2.026068 5.758889 0.9039414
vertex -2.226068 5.758889 0.7164414
vertex -2.026068 5.758889 0.7164414
endloop
endfacet
facet normal 0 -1 0
outer loop
vertex -2.026068 5.758889 0.9039414
vertex -2.026068 5.758889 0.7164414
vertex -1.826068 5.758889 0.9039414
endloop
endfacet
facet normal 0 -1 0
outer loop
vertex -1.826068 5.758889 0.9039414
vertex -2.026068 5.758889 0.7164414
vertex -1.826068 5.758889 0.7164414
endloop
endfacet
facet normal 0 -1 0
outer loop
vertex -1.826068 5.758889 0.9039414
vertex -1.826068 5.758889 0.7164414
vertex -1.626068 5.758889 0.9039414
endloop
endfacet
facet normal 0 -1 0
outer loop
vertex -1.626068 5.758889 0.9039414
vertex -1.826068 5.758889 0.7164414
vertex -1.626068 5.758889 0.7164414
endloop
endfacet
facet normal 0 -1 0
outer loop
vertex -1.626068 5.758889 0.9039414
vertex -1.626068 5.758889 0.7164414
vertex -1.426068 5.758889 0.9039414
endloop
endfacet
facet normal 0 -1 0
outer loop
vertex -1.426068 5.758889 0.9039414
vertex -1.626068 5.758889 0.7164414
vertex -1.426068 5.758889 0.7164414
endloop
endfacet
facet normal 0 -1 0
outer loop
vertex -2.226068 5.758889 0.7164414
vertex -2.226068 5.758889 0.5289414
vertex -2.026068 5.758889 0.7164414
endloop
endfacet
facet normal 0 -1 0
outer loop
vertex -2.026068 5.758889 0.7164414
vertex -2.226068 5.758889 0.5289414
vertex -2.026068 5.758889 0.5289414
endloop
endfacet
facet normal 0 -1 0
outer loop
vertex -2.026068 5.758889 0.7164414
vertex -2.026068 5.758889 0.5289414
vertex -1.826068 5.758889 0.7164414
endloop
endfacet
facet normal 0 -1 0
outer loop
vertex -1.826068 5.758889 0.7164414
vertex -2.026068 5.758889 0.5289414
vertex -1.826068 5.758889 0.5289414
endloop
endfacet
facet normal 0 -1 0
outer loop
vertex -1.826068 5.758889 0.7164414
vertex -1.826068 5.758889 0.5289414
vertex -1.626068 5.758889 0.7164414
endloop
endfacet
facet normal 0 -1 0
outer loop
vertex -1.626068 5.758889 0.7164414
vertex -1.826068 5.758889 0.5289414
vertex -1.626068 5.758889 0.5289414
endloop
endfacet
facet normal 0 -1 0
outer loop
vertex -1.626068 5.758889 0.7164414
vertex -1.626068 5.758889 0.5289414
vertex -1.426068 5.758889 0.7164414
endloop
endfacet
facet normal 0 -1 0
outer loop
vertex -1.426068 5.758889 0.7164414
vertex -1.626068 5.758889 0.5289414
vertex -1.426068 5.758889 0.5289414
endloop
endfacet
facet normal 0 -1 0
outer loop
vertex -2.226068 5.758889 0.5289414
vertex -2.226068 5.758889 0.3414414
vertex -2.026068 5.758889 0.5289414
endloop
endfacet
facet normal 0 -1 0
outer loop
vertex -2.026068 5.758889 0.5289414
vertex -2.226068 5.758889 0.3414414
vertex -2.026068 5.758889 0.3414414
endloop
endfacet
facet normal 0 -1 0
outer loop
vertex -2.026068 5.758889 0.5289414
vertex -2.026068 5.758889 0.3414414
vertex -1.826068 5.758889 0.5289414
endloop
endfacet
facet normal 0 -1 0
outer loop
vertex -1.826068 5.758889 0.5289414
vertex -2.026068 5.758889 0.3414414
vertex -1.826068 5.758889 0.3414414
endloop
endfacet
facet normal 0 -1 0
outer loop
vertex -1.826068 5.758889 0.5289414
vertex -1.826068 5.758889 0.3414414
vertex -1.626068 5.758889 0.5289414
endloop
endfacet
facet normal 0 -1 0
outer loop
vertex -1.626068 5.758889 0.5289414
vertex -1.826068 5.758889 0.3414414
vertex -1.626068 5.758889 0.3414414
endloop
endfacet
facet normal 0 -1 0
outer loop
vertex -1.626068 5.758889 0.5289414
vertex -1.626068 5.758889 0.3414414
vertex -1.426068 5.758889 0.5289414
endloop
endfacet
facet normal 0 -1 0
outer loop
vertex -1.426068 5.758889 0.5289414
vertex -1.626068 5.758889 0.3414414
vertex -1.426068 5.758889 0.3414414
endloop
endfacet
facet normal 0 -1 0
outer loop
vertex -2.226068 5.758889 0.3414414
vertex -2.226068 5.758889 0.1539414
vertex -2.026068 5.758889 0.3414414
endloop
endfacet
facet normal 0 -1 0
outer loop
vertex -2.026068 5.758889 0.3414414
vertex -2.226068 5.758889 0.1539414
vertex -2.026068 5.758889 0.1539414
endloop
endfacet
facet normal 0 -1 0
outer loop
vertex -2.026068 5.758889 0.3414414
vertex -2.026068 5.758889 0.1539414
vertex -1.826068 5.758889 0.3414414
endloop
endfacet
facet normal 0 -1 0
outer loop
vertex -1.826068 5.758889 0.3414414
vertex -2.026068 5.758889 0.1539414
vertex -1.826068 5.758889 0.1539414
endloop
endfacet
facet normal 0 -1 0
outer loop
vertex -1.826068 5.758889 0.3414414
vertex -1.826068 5.758889 0.1539414
vertex -1.626068 5.758889 0.3414414
endloop
endfacet
facet normal 0 -1 0
outer loop
vertex -1.626068 5.758889 0.3414414
vertex -1.826068 5.758889 0.1539414
vertex -1.626068 5.758889 0.1539414
endloop
endfacet
facet normal 0 -1 0
outer loop
vertex -1.626068 5.758889 0.3414414
vertex -1.626068 5.758889 0.1539414
vertex -1.426068 5.758889 0.3414414
endloop
endfacet
facet normal 0 -1 0
outer loop
vertex -1.426068 5.758889 0.3414414
vertex -1.626068 5.758889 0.1539414
vertex -1.426068 5.758889 0.1539414
endloop
endfacet
facet normal 0 -1 0
outer loop
vertex -2.226068 5.758889 0.1539414
vertex -2.226068 5.758889 -0.03355865
vertex -2.026068 5.758889 0.1539414
endloop
endfacet
facet normal 0 -1 0
outer loop
vertex -2.026068 5.758889 0.1539414
vertex -2.226068 5.758889 -0.03355865
vertex -2.026068 5.758889 -0.03355865
endloop
endfacet
facet normal 0 -1 0
outer loop
vertex -2.026068 5.758889 0.1539414
vertex -2.026068 5.758889 -0.03355865
vertex -1.826068 5.758889 0.1539414
endloop
endfacet
facet normal 0 -1 0
outer loop
vertex -1.826068 5.758889 0.1539414
vertex -2.026068 5.758889 -0.03355865
vertex -1.826068 5.758889 -0.03355865
endloop
endfacet
facet normal 0 -1 0
outer loop
vertex -1.826068 5.758889 0.1539414
vertex -1.826068 5.758889 -0.03355865
vertex -1.626068 5.758889 0.1539414
endloop
endfacet
facet normal 0 -1 0
outer loop
vertex -1.626068 5.758889 0.1539414
vertex -1.826068 5.758889 -0.03355865
vertex -1.626068 5.758889 -0.03355865
endloop
endfacet
facet normal 0 -1 0
outer loop
vertex -1.626068 5.758889 0.1539414
vertex -1.626068 5.758889 -0.03355865
vertex -1.426068 5.758889 0.1539414
endloop
endfacet
facet normal 0 -1 0
outer loop
vertex -1.426068 5.758889 0.1539414
vertex -1.626068 5.758889 -0.03355865
vertex -1.426068 5.758889 -0.03355865
endloop
endfacet
facet normal 0 -1 0
outer loop
vertex -2.226068 5.758889 -0.03355865
vertex -2.226068 5.758889 -0.2210586
vertex -2.026068 5.758889 -0.03355865
endloop
endfacet
facet normal 0 -1 0
outer loop
vertex -2.026068 5.758889 -0.03355865
vertex -2.226068 5.758889 -0.2210586
vertex -2.026068 5.758889 -0.2210586
endloop
endfacet
facet normal 0 -1 0
outer loop
vertex -2.026068 5.758889 -0.03355865
vertex -2.026068 5.758889 -0.2210586
vertex -1.826068 5.758889 -0.03355865
endloop
endfacet
facet normal 0 -1 0
outer loop
vertex -1.826068 5.758889 -0.03355865
vertex -2.026068 5.758889 -0.2210586
vertex -1.826068 5.758889 -0.2210586
endloop
endfacet
facet normal 0 -1 0
outer loop
vertex -1.826068 5.758889 -0.03355865
vertex -1.826068 5.758889 -0.2210586
vertex -1.626068 5.758889 -0.03355865
endloop
endfacet
facet normal 0 -1 0
outer loop
vertex -1.626068 5.758889 -0.03355865
vertex -1.826068 5.758889 -0.2210586
vertex -1.626068 5.758889 -0.2210586
endloop
endfacet
facet normal 0 -1 0
outer loop
vertex -1.626068 5.758889 -0.03355865
vertex -1.626068 5.758889 -0.2210586
vertex -1.426068 5.758889 -0.03355865
endloop
endfacet
facet normal 0 -1 0
outer loop
vertex -1.426068 5.758889 -0.03355865
vertex -1.626068 5.758889 -0.2210586
vertex -1.426068 5.758889 -0.2210586
endloop
endfacet
facet normal 1 0 0
outer loop
vertex -1.226068 6.758889 1.091441
vertex -1.226068 6.758889 1.278941
vertex -1.226068 6.558889 1.091441
endloop
endfacet
facet normal 1 0 0
outer loop
vertex -1.226068 6.558889 1.091441
vertex -1.226068 6.758889 1.278941
vertex -1.226068 6.558889 1.278941
endloop
endfacet
facet normal 1 0 0
outer loop
vertex -1.226068 6.558889 1.091441
vertex -1.226068 6.558889 1.278941
vertex -1.226068 6.358889 1.091441
endloop
endfacet
facet normal 1 0 0
outer loop
vertex -1.226068 6.358889 1.091441
vertex -1.226068 6.558889 1.278941
vertex -1.226068 6.358889 1.278941
endloop
endfacet
facet normal 1 0 0
outer loop
vertex -1.226068 6.358889 1.091441
vertex -1.226068 6.358889 1.278941
vertex -1.226068 6.158889 1.091441
endloop
endfacet
facet normal 1 0 0
outer loop
vertex -1.226068 6.158889 1.091441
vertex -1.226068 6.358889 1.278941
vertex -1.226068 6.158889 1.278941
endloop
endfacet
facet normal 1 0 0
outer loop
vertex -1.226068 6.158889 1.091441
vertex -1.226068 6.158889 1.278941
vertex -1.226068 5.958889 1.091441
endloop
endfacet
facet normal 1 0 0
outer loop
vertex -1.226068 5.958889 1.091441
vertex -1.226068 6.158889 1.278941
vertex -1.226068 5.958889 1.278941
endloop
endfacet
facet normal 1 0 0
outer loop
vertex -1.226068 5.958889 1.091441
vertex -1.226068 5.958889 1.278941
vertex -1.226068 5.758889 1.091441
endloop
endfacet
facet normal 1 0 0
outer loop
vertex -1.226068 5.758889 1.091441
vertex -1.226068 5.958889 1.278941
vertex -1.226068 5.758889 1.278941
endloop
endfacet
facet normal 1 0 0
outer loop
vertex -1.226068 5.758889 1.091441
vertex -1.226068 5.758889 0.9039414
vertex -1.226068 5.958889 1.091441
endloop
endfacet
facet normal 1 0 0
outer loop
vertex -1.226068 5.958889 1.091441
vertex -1.226068 5.758889 0.9039414
vertex -1.226068 5.958889 0.9039414
endloop
endfacet
facet normal 1 0 0
outer loop
vertex -1.226068 5.958889 1.091441
vertex -1.226068 5.958889 0.9039414
vertex -1.226068 6.158889 1.091441
endloop
endfacet
facet normal 1 0 0
outer loop
vertex -1.226068 6.158889 1.091441
vertex -1.226068 5.958889 0.9039414
vertex -1.226068 6.158889 0.9039414
endloop
endfacet
facet normal 1 0 0
outer loop
vertex -1.226068 6.158889 1.091441
vertex -1.226068 6.158889 0.9039414
vertex -1.226068 6.358889 1.091441
endloop
endfacet
facet normal 1 0 0
outer loop
vertex -1.226068 6.358889 1.091441
vertex -1.226068 6.158889 0.9039414
vertex -1.226068 6.358889 0.9039414
endloop
endfacet
facet normal 1 0 0
outer loop
vertex -1.226068 6.358889 1.091441
vertex -1.226068 6.358889 0.9039414
vertex -1.226068 6.558889 1.091441
endloop
endfacet
facet normal 1 0 0
outer loop
vertex -1.226068 6.558889 1.091441
vertex -1.226068 6.358889 0.9039414
vertex -1.226068 6.558889 0.9039414
endloop
endfacet
facet normal 1 0 0
outer loop
vertex -1.226068 6.558889 1.091441
vertex -1.226068 6.558889 0.9039414
vertex -1.226068 6.758889 1.091441
endloop
endfacet
facet normal 1 0 0
outer loop
vertex -1.226068 6.758889 1.091441
vertex -1.226068 6.558889 0.9039414
vertex -1.226068 6.758889 0.9039414
endloop
endfacet
facet normal 1 0 0
outer loop
vertex -1.226068 6.758889 0.9039414
vertex -1.226068 6.558889 0.9039414
vertex -1.226068 6.558889 0.7164414
endloop
endfacet
facet normal 1 0 0
outer loop
vertex -1.226068 6.758889 0.9039414
vertex -1.226068 6.558889 0.7164414
vertex -1.226068 6.758889 0.7164414
endloop
endfacet
facet normal 1 0 0
outer loop
vertex -1.226068 6.758889 0.7164414
vertex -1.226068 6.558889 0.7164414
vertex -1.226068 6.558889 0.5289414
endloop
endfacet
facet normal 1 0 0
outer loop
vertex -1.226068 6.758889 0.7164414
vertex -1.226068 6.558889 0.5289414
vertex -1.226068 6.758889 0.5289414
endloop
endfacet
facet normal 1 0 0
outer loop
vertex -1.226068 6.758889 0.5289414
vertex -1.226068 6.558889 0.5289414
vertex -1.226068 6.558889 0.3414414
endloop
endfacet
facet normal 1 0 0
outer loop
vertex -1.226068 6.758889 0.5289414
vertex -1.226068 6.558889 0.3414414
vertex -1.226068 6.758889 0.3414414
endloop
endfacet
facet normal 1 0 0
outer loop
vertex -1.226068 6.758889 0.3414414
vertex -1.226068 6.558889 0.3414414
vertex -1.226068 6.558889 0.1539414
endloop
endfacet
facet normal 1 0 0
outer loop
vertex -1.226068 6.758889 0.3414414
vertex -1.226068 6.558889 0.1539414
vertex -1.226068 6.758889 0.1539414
endloop
endfacet
facet normal 1 0 0
outer loop
vertex -1.226068 6.758889 0.1539414
vertex -1.226068 6.558889 0.1539414
vertex -1.226068 6.558889 -0.03355865
endloop
endfacet
facet normal 1 0 0
outer loop
vertex -1.226068 6.758889 0.1539414
vertex -1.226068 6.558889 -0.03355865
vertex -1.226068 6.758889 -0.03355865
endloop
endfacet
facet normal 1 0 0
outer loop
vertex -1.226068 6.758889 -0.03355865
vertex -1.226068 6.558889 -0.03355865
vertex -1.226068 6.558889 -0.2210586
endloop
endfacet
facet normal 1 0 0
outer loop
vertex -1.226068 6.758889 -0.03355865
vertex -1.226068 6.558889 -0.2210586
vertex -1.226068 6.758889 -0.2210586
endloop
endfacet
facet normal 1 0 0
outer loop
vertex -1.226068 5.758889 0.9039414
vertex -1.226068 5.758889 0.7164414
vertex -1.226068 5.958889 0.9039414
endloop
endfacet
facet normal 1 0 0
outer loop
vertex -1.226068 5.958889 0.9039414
vertex -1.226068 5.758889 0.7164414
vertex -1.226068 5.958889 0.7164414
endloop
endfacet
facet normal 1 0 0
outer loop
vertex -1.226068 5.958889 0.9039414
vertex -1.226068 5.958889 0.7164414
vertex -1.226068 6.158889 0.9039414
endloop
endfacet
facet normal 1 0 0
outer loop
vertex -1.226068 6.158889 0.9039414
vertex -1.226068 5.958889 0.7164414
vertex -1.226068 6.158889 0.7164414
endloop
endfacet
facet normal 1 0 0
outer loop
vertex -1.226068 6.158889 0.9039414
vertex -1.226068 6.158889 0.7164414
vertex -1.226068 6.358889 0.9039414
endloop
endfacet
facet normal 1 0 0
outer loop
vertex -1.226068 6.358889 0.9039414
vertex -1.226068 6.158889 0.7164414
vertex -1.226068 6.358889 0.7164414
endloop
endfacet
facet normal 1 0 0
outer loop
vertex -1.226068 6.358889 0.9039414
vertex -1.226068 6.358889 0.7164414
vertex -1.226068 6.558889 0.9039414
endloop
endfacet
facet normal 1 0 0
outer loop
vertex -1.226068 6.558889 0.9039414
vertex -1.226068 6.358889 0.7164414
vertex -1.226068 6.558889 0.7164414
endloop
endfacet
facet normal 1 0 0
outer loop
vertex -1.226068 5.758889 0.7164414
vertex -1.226068 5.758889 0.5289414
vertex -1.226068 5.958889 0.7164414
endloop
endfacet
facet normal 1 0 0
outer loop
vertex -1.226068 5.958889 0.7164414
vertex -1.226068 5.758889 0.5289414
vertex -1.226068 5.958889 0.5289414
endloop
endfacet
facet normal 1 0 0
outer loop
vertex -1.226068 5.958889 0.7164414
vertex -1.226068 5.958889 0.5289414
vertex -1.226068 6.158889 0.7164414
endloop
endfacet
facet normal 1 0 0
outer loop
vertex -1.226068 6.158889 0.7164414
vertex -1.226068 5.958889 0.5289414
vertex -1.226068 6.158889 0.5289414
endloop
endfacet
facet normal 1 0 0
outer loop
vertex -1.226068 6.158889 0.7164414
vertex -1.226068 6.158889 0.5289414
vertex -1.226068 6.358889 0.7164414
endloop
endfacet
facet normal 1 0 0
outer loop
vertex -1.226068 6.358889 0.7164414
vertex -1.226068 6.158889 0.5289414
vertex -1.226068 6.358889 0.5289414
endloop
endfacet
facet normal 1 0 0
outer loop
vertex -1.226068 6.358889 0.7164414
vertex -1.226068 6.358889 0.5289414
vertex -1.226068 6.558889 0.7164414
endloop
endfacet
facet normal 1 0 0
outer loop
vertex -1.226068 6.558889 0.7164414
vertex -1.226068 6.358889 0.5289414
vertex -1.226068 6.558889 0.5289414
endloop
endfacet
facet normal 1 0 0
outer loop
vertex -1.226068 5.758889 0.5289414
vertex -1.226068 5.758889 0.3414414
vertex -1.226068 5.958889 0.5289414
endloop
endfacet
facet normal 1 0 0
outer loop
vertex -1.226068 5.958889 0.5289414
vertex -1.226068 5.758889 0.3414414
vertex -1.226068 5.958889 0.3414414
endloop
endfacet
facet normal 1 0 0
outer loop
vertex -1.226068 5.958889 0.5289414
vertex -1.226068 5.958889 0.3414414
vertex -1.226068 6.158889 0.5289414
endloop
endfacet
facet normal 1 0 0
outer loop
vertex -1.226068 6.158889 0.5289414
vertex -1.226068 5.958889 0.3414414
vertex -1.226068 6.158889 0.3414414
endloop
endfacet
facet normal 1 0 0
outer loop
vertex -1.226068 6.158889 0.5289414
vertex -1.226068 6.158889 0.3414414
vertex -1.226068 6.358889 0.5289414
endloop
endfacet
facet normal 1 0 0
outer loop
vertex -1.226068 6.358889 0.5289414
vertex -1.226068 6.158889 0.3414414
vertex -1.226068 6.358889 0.3414414
endloop
endfacet
facet normal 1 0 0
outer loop
vertex -1.226068 6.358889 0.5289414
vertex -1.226068 6.358889 0.3414414
vertex -1.226068 6.558889 0.5289414
endloop
endfacet
facet normal 1 0 0
outer loop
vertex -1.226068 6.558889 0.5289414
vertex -1.226068 6.358889 0.3414414
vertex -1.226068 6.558889 0.3414414
endloop
endfacet
facet normal 1 0 0
outer loop
vertex -1.226068 5.758889 0.3414414
vertex -1.226068 5.758889 0.1539414
vertex -1.226068 5.958889 0.3414414
endloop
endfacet
facet normal 1 0 0
outer loop
vertex -1.226068 5.958889 0.3414414
vertex -1.226068 5.758889 0.1539414
vertex -1.226068 5.958889 0.1539414
endloop
endfacet
facet normal 1 0 0
outer loop
vertex -1.226068 5.958889 0.3414414
vertex -1.226068 5.958889 0.1539414
vertex -1.226068 6.158889 0.3414414
endloop
endfacet
facet normal 1 0 0
outer loop
vertex -1.226068 6.158889 0.3414414
vertex -1.226068 5.958889 0.1539414
vertex -1.226068 6.158889 0.1539414
endloop
endfacet
facet normal 1 0 0
outer loop
vertex -1.226068 6.158889 0.3414414
vertex -1.226068 6.158889 0.1539414
vertex -1.226068 6.358889 0.3414414
endloop
endfacet
facet normal 1 0 0
outer loop
vertex -1.226068 6.358889 0.3414414
vertex -1.226068 6.158889 0.1539414
vertex -1.226068 6.358889 0.1539414
endloop
endfacet
facet normal 1 0 0
outer loop
vertex -1.226068 6.358889 0.3414414
vertex -1.226068 6.358889 0.1539414
vertex -1.226068 6.558889 0.3414414
endloop
endfacet
facet normal 1 0 0
outer loop
vertex -1.226068 6.558889 0.3414414
vertex -1.226068 6.358889 0.1539414
vertex -1.226068 6.558889 0.1539414
endloop
endfacet
facet normal 1 0 0
outer loop
vertex -1.226068 5.758889 0.1539414
vertex -1.226068 5.758889 -0.03355865
vertex -1.226068 5.958889 0.1539414
endloop
endfacet
facet normal 1 0 0
outer loop
vertex -1.226068 5.958889 0.1539414
vertex -1.226068 5.758889 -0.03355865
vertex -1.226068 5.958889 -0.03355865
endloop
endfacet
facet normal 1 0 0
outer loop
vertex -1.226068 5.958889 0.1539414
vertex -1.226068 5.958889 -0.03355865
vertex -1.226068 6.158889 0.1539414
endloop
endfacet
facet normal 1 0 0
outer loop
vertex -1.226068 6.158889 0.1539414
vertex -1.226068 5.958889 -0.03355865
vertex -1.226068 6.158889 -0.03355865
endloop
endfacet
facet normal 1 0 0
outer loop
vertex -1.226068 6.158889 0.1539414
vertex -1.226068 6.158889 -0.03355865
vertex -1.226068 6.358889 0.1539414
endloop
endfacet
facet normal 1 0 0
outer loop
vertex -1.226068 6.358889 0.1539414
vertex -1.226068 6.158889 -0.03355865
vertex -1.226068 6.358889 -0.03355865
endloop
endfacet
facet normal 1 0 0
outer loop
vertex -1.226068 6.358889 0.1539414
vertex -1.226068 6.358889 -0.03355865
vertex -1.226068 6.558889 0.1539414
endloop
endfacet
facet normal 1 0 0
outer loop
vertex -1.226068 6.558889 0.1539414
vertex -1.226068 6.358889 -0.03355865
vertex -1.226068 6.558889 -0.03355865
endloop
endfacet
facet normal 1 0 0
outer loop
vertex -1.226068 5.758889 -0.03355865
vertex -1.226068 5.758889 -0.2210586
vertex -1.226068 5.958889 -0.03355865
endloop
endfacet
facet normal 1 0 0
outer loop
vertex -1.226068 5.958889 -0.03355865
vertex -1.226068 5.758889 -0.2210586
vertex -1.226068 5.958889 -0.2210586
endloop
endfacet
facet normal 1 0 0
outer loop
vertex -1.226068 5.958889 -0.03355865
vertex -1.226068 5.958889 -0.2210586
vertex -1.226068 6.158889 -0.03355865
endloop
endfacet
facet normal 1 0 0
outer loop
vertex -1.226068 6.158889 -0.03355865
vertex -1.226068 5.958889 -0.2210586
vertex -1.226068 6.158889 -0.2210586
endloop
endfacet
facet normal 1 0 0
outer loop
vertex -1.226068 6.158889 -0.03355865
vertex -1.226068 6.158889 -0.2210586
vertex -1.226068 6.358889 -0.03355865
endloop
endfacet
facet normal 1 0 0
outer loop
vertex -1.226068 6.358889 -0.03355865
vertex -1.226068 6.158889 -0.2210586
vertex -1.226068 6.358889 -0.2210586
endloop
endfacet
facet normal 1 0 0
outer loop
vertex -1.226068 6.358889 -0.03355865
vertex -1.226068 6.358889 -0.2210586
vertex -1.226068 6.558889 -0.03355865
endloop
endfacet
facet normal 1 0 0
outer loop
vertex -1.226068 6.558889 -0.03355865
vertex -1.226068 6.358889 -0.2210586
vertex -1.226068 6.558889 -0.2210586
endloop
endfacet
endsolid obj2
