solid steel_partition
facet normal 5.684342e-15 1 -1.18083e-26
outer loop
vertex 0.8285771 9.724118 -0.7210586
vertex 0.2035771 9.724118 -0.7210586
vertex 0.8285771 9.724118 -0.1496301
endloop
endfacet
facet normal 5.684342e-15 1 -1.036374e-26
outer loop
vertex 0.8285771 9.724118 -0.1496301
vertex 0.2035771 9.724118 -0.7210586
vertex 0.2035771 9.724118 -0.1496301
endloop
endfacet
facet normal 5.684342e-15 1 -4.759616e-16
outer loop
vertex 0.8285771 9.724118 -0.1496301
vertex 0.2035771 9.724118 -0.1496301
vertex 0.2285771 9.724118 0.1489414
endloop
endfacet
facet normal 0 1 0
outer loop
vertex 0.2285771 9.724118 0.1489414
vertex 0.2035771 9.724118 -0.1496301
vertex -0.3547563 9.724118 0.1489414
endloop
endfacet
facet normal 0 1 0
outer loop
vertex -0.3547563 9.724118 0.1489414
vertex 0.2035771 9.724118 -0.1496301
vertex -0.4214229 9.724118 -0.1496301
endloop
endfacet
facet normal 6.090366e-15 1 -1.35989e-15
outer loop
vertex -0.3547563 9.724118 0.1489414
vertex -0.4214229 9.724118 -0.1496301
vertex -0.9380896 9.724118 0.1489414
endloop
endfacet
facet normal 5.684342e-15 1 -2.0625e-15
outer loop
vertex -0.9380896 9.724118 0.1489414
vertex -0.4214229 9.724118 -0.1496301
vertex -1.046423 9.724118 -0.1496301
endloop
endfacet
facet normal 0 1 0
outer loop
vertex -0.9380896 9.724118 0.1489414
vertex -1.046423 9.724118 -0.1496301
vertex -1.521423 9.724118 0.1489414
endloop
endfacet
facet normal 2.842171e-15 1 4.521636e-15
outer loop
vertex -1.521423 9.724118 0.1489414
vertex -1.046423 9.724118 -0.1496301
vertex -1.671423 9.724118 -0.1496301
endloop
endfacet
facet normal 6.090366e-15 1 2.889767e-15
outer loop
vertex -1.521423 9.724118 0.1489414
vertex -1.671423 9.724118 -0.1496301
vertex -2.104756 9.724118 0.1489414
endloop
endfacet
facet normal 2.842171e-15 1 -1.82452e-15
outer loop
vertex -2.104756 9.724118 0.1489414
vertex -1.671423 9.724118 -0.1496301
vertex -2.296423 9.724118 -0.1496301
endloop
endfacet
facet normal 0 1 0
outer loop
vertex -2.104756 9.724118 0.1489414
vertex -2.296423 9.724118 -0.1496301
vertex -2.68809 9.724118 0.1489414
endloop
endfacet
facet normal 2.842171e-15 1 3.728366e-15
outer loop
vertex -2.68809 9.724118 0.1489414
vertex -2.296423 9.724118 -0.1496301
vertex -2.921423 9.724118 -0.1496301
endloop
endfacet
facet normal 3.045183e-15 1 3.569712e-15
outer loop
vertex -2.68809 9.724118 0.1489414
vertex -2.921423 9.724118 -0.1496301
vertex -3.271423 9.724118 0.1489414
endloop
endfacet
facet normal 2.842171e-15 1 3.331731e-15
outer loop
vertex -3.271423 9.724118 0.1489414
vertex -2.921423 9.724118 -0.1496301
vertex -3.546423 9.724118 -0.1496301
endloop
endfacet
facet normal 6.459479e-15 1 0
outer loop
vertex -3.271423 9.724118 0.1489414
vertex -3.546423 9.724118 -0.1496301
vertex -3.546423 9.724118 0.4217985
endloop
endfacet
facet normal 2.842171e-15 1 0
outer loop
vertex -3.546423 9.724118 0.4217985
vertex -3.546423 9.724118 -0.1496301
vertex -4.171423 9.724118 -0.1496301
endloop
endfacet
facet normal 2.842171e-15 1 0
outer loop
vertex -3.546423 9.724118 0.4217985
vertex -4.171423 9.724118 -0.1496301
vertex -4.171423 9.724118 0.4217985
endloop
endfacet
facet normal 2.842171e-15 1 -5.181317e-27
outer loop
vertex 0.2035771 9.724118 -0.7210586
vertex -0.4214229 9.724118 -0.7210586
vertex 0.2035771 9.724118 -0.1496301
endloop
endfacet
facet normal 4.14152e-31 1 3.108624e-15
outer loop
vertex 0.2035771 9.724118 -0.1496301
vertex -0.4214229 9.724118 -0.7210586
vertex -0.4214229 9.724118 -0.1496301
endloop
endfacet
facet normal 2.842171e-15 1 3.108624e-15
outer loop
vertex -0.4214229 9.724118 -0.7210586
vertex -1.046423 9.724118 -0.7210586
vertex -0.4214229 9.724118 -0.1496301
endloop
endfacet
facet normal 5.684342e-15 1 -7.286866e-27
outer loop
vertex -0.4214229 9.724118 -0.1496301
vertex -1.046423 9.724118 -0.7210586
vertex -1.046423 9.724118 -0.1496301
endloop
endfacet
facet normal 2.842171e-15 1 -3.643433e-27
outer loop
vertex -1.046423 9.724118 -0.7210586
vertex -1.671423 9.724118 -0.7210586
vertex -1.046423 9.724118 -0.1496301
endloop
endfacet
facet normal 2.842171e-15 1 -2.963119e-27
outer loop
vertex -1.046423 9.724118 -0.1496301
vertex -1.671423 9.724118 -0.7210586
vertex -1.671423 9.724118 -0.1496301
endloop
endfacet
facet normal 2.842171e-15 1 -2.963119e-27
outer loop
vertex -1.671423 9.724118 -0.7210586
vertex -2.296423 9.724118 -0.7210586
vertex -1.671423 9.724118 -0.1496301
endloop
endfacet
facet normal 2.842171e-15 1 -2.237525e-27
outer loop
vertex -1.671423 9.724118 -0.1496301
vertex -2.296423 9.724118 -0.7210586
vertex -2.296423 9.724118 -0.1496301
endloop
endfacet
facet normal 2.842171e-15 1 -2.237525e-27
outer loop
vertex -2.296423 9.724118 -0.7210586
vertex -2.921423 9.724118 -0.7210586
vertex -2.296423 9.724118 -0.1496301
endloop
endfacet
facet normal 2.842171e-15 1 -1.468859e-27
outer loop
vertex -2.296423 9.724118 -0.1496301
vertex -2.921423 9.724118 -0.7210586
vertex -2.921423 9.724118 -0.1496301
endloop
endfacet
facet normal 5.684342e-15 1 -2.937718e-27
outer loop
vertex -2.921423 9.724118 -0.7210586
vertex -3.546423 9.724118 -0.7210586
vertex -2.921423 9.724118 -0.1496301
endloop
endfacet
facet normal 2.842171e-15 1 3.108624e-15
outer loop
vertex -2.921423 9.724118 -0.1496301
vertex -3.546423 9.724118 -0.7210586
vertex -3.546423 9.724118 -0.1496301
endloop
endfacet
facet normal 0 1 3.108624e-15
outer loop
vertex -3.546423 9.724118 -0.7210586
vertex -4.171423 9.724118 -0.7210586
vertex -3.546423 9.724118 -0.1496301
endloop
endfacet
facet normal 2.842171e-15 1 0
outer loop
vertex -3.546423 9.724118 -0.1496301
vertex -4.171423 9.724118 -0.7210586
vertex -4.171423 9.724118 -0.1496301
endloop
endfacet
facet normal 2.842171e-15 1 0
outer loop
vertex -3.546423 9.724118 0.4217985
vertex -4.171423 9.724118 0.4217985
vertex -3.546423 9.724118 0.9932271
endloop
endfacet
facet normal 2.842171e-15 1 0
outer loop
vertex -3.546423 9.724118 0.9932271
vertex -4.171423 9.724118 0.4217985
vertex -4.171423 9.724118 0.9932271
endloop
endfacet
facet normal 2.842171e-15 1 0
outer loop
vertex -3.546423 9.724118 0.9932271
vertex -4.171423 9.724118 0.9932271
vertex -3.546423 9.724118 1.564656
endloop
endfacet
facet normal 2.842171e-15 1 0
outer loop
vertex -3.546423 9.724118 1.564656
vertex -4.171423 9.724118 0.9932271
vertex -4.171423 9.724118 1.564656
endloop
endfacet
facet normal 2.842171e-15 1 0
outer loop
vertex -3.546423 9.724118 1.564656
vertex -4.171423 9.724118 1.564656
vertex -3.546423 9.724118 2.136084
endloop
endfacet
facet normal 2.842171e-15 1 0
outer loop
vertex -3.546423 9.724118 2.136084
vertex -4.171423 9.724118 1.564656
vertex -4.171423 9.724118 2.136084
endloop
endfacet
facet normal 2.842171e-15 1 0
outer loop
vertex -3.546423 9.724118 2.136084
vertex -4.171423 9.724118 2.136084
vertex -3.546423 9.724118 2.707513
endloop
endfacet
facet normal 2.842171e-15 1 0
outer loop
vertex -3.546423 9.724118 2.707513
vertex -4.171423 9.724118 2.136084
vertex -4.171423 9.724118 2.707513
endloop
endfacet
facet normal 2.842171e-15 1 6.979841e-28
outer loop
vertex -3.546423 9.724118 2.707513
vertex -4.171423 9.724118 2.707513
vertex -3.546423 9.724118 3.278941
endloop
endfacet
facet normal 2.842171e-15 1 0
outer loop
vertex -3.546423 9.724118 3.278941
vertex -4.171423 9.724118 2.707513
vertex -4.171423 9.724118 3.278941
endloop
endfacet
facet normal 2.842171e-15 1 6.979841e-28
outer loop
vertex -3.546423 9.724118 3.278941
vertex -2.921423 9.724118 3.278941
vertex -3.546423 9.724118 2.707513
endloop
endfacet
facet normal 2.842171e-15 1 1.468859e-27
outer loop
vertex -3.546423 9.724118 2.707513
vertex -2.921423 9.724118 3.278941
vertex -2.921423 9.724118 2.707513
endloop
endfacet
facet normal 2.842171e-15 1 -1.881978e-15
outer loop
vertex -3.546423 9.724118 2.707513
vertex -2.921423 9.724118 2.707513
vertex -3.271423 9.724118 2.178941
endloop
endfacet
facet normal 0 1 0
outer loop
vertex -3.271423 9.724118 2.178941
vertex -2.921423 9.724118 2.707513
vertex -2.68809 9.724118 2.178941
endloop
endfacet
facet normal 2.842171e-15 1 1.254652e-15
outer loop
vertex -2.68809 9.724118 2.178941
vertex -2.921423 9.724118 2.707513
vertex -2.296423 9.724118 2.707513
endloop
endfacet
facet normal 3.045183e-15 1 1.104222e-15
outer loop
vertex -2.68809 9.724118 2.178941
vertex -2.296423 9.724118 2.707513
vertex -2.104756 9.724118 2.178941
endloop
endfacet
facet normal 2.842171e-15 1 1.030607e-15
outer loop
vertex -2.104756 9.724118 2.178941
vertex -2.296423 9.724118 2.707513
vertex -1.671423 9.724118 2.707513
endloop
endfacet
facet normal 3.045183e-15 1 8.641736e-16
outer loop
vertex -2.104756 9.724118 2.178941
vertex -1.671423 9.724118 2.707513
vertex -1.521423 9.724118 2.178941
endloop
endfacet
facet normal 2.842171e-15 1 8.06562e-16
outer loop
vertex -1.521423 9.724118 2.178941
vertex -1.671423 9.724118 2.707513
vertex -1.046423 9.724118 2.707513
endloop
endfacet
facet normal 3.045183e-15 1 6.241254e-16
outer loop
vertex -1.521423 9.724118 2.178941
vertex -1.046423 9.724118 2.707513
vertex -0.9380896 9.724118 2.178941
endloop
endfacet
facet normal 5.684342e-15 1 1.165034e-15
outer loop
vertex -0.9380896 9.724118 2.178941
vertex -1.046423 9.724118 2.707513
vertex -0.4214229 9.724118 2.707513
endloop
endfacet
facet normal 3.045183e-15 1 3.744752e-15
outer loop
vertex -0.9380896 9.724118 2.178941
vertex -0.4214229 9.724118 2.707513
vertex -0.3547563 9.724118 2.178941
endloop
endfacet
facet normal 0 1 3.360675e-15
outer loop
vertex -0.3547563 9.724118 2.178941
vertex -0.4214229 9.724118 2.707513
vertex 0.2035771 9.724118 2.707513
endloop
endfacet
facet normal 3.045183e-15 1 1.440289e-16
outer loop
vertex -0.3547563 9.724118 2.178941
vertex 0.2035771 9.724118 2.707513
vertex 0.2285771 9.724118 2.178941
endloop
endfacet
facet normal 5.684342e-15 1 2.68854e-16
outer loop
vertex 0.2285771 9.724118 2.178941
vertex 0.2035771 9.724118 2.707513
vertex 0.8285771 9.724118 2.707513
endloop
endfacet
facet normal 5.921189e-15 1 2.052353e-27
outer loop
vertex 0.2285771 9.724118 2.178941
vertex 0.8285771 9.724118 2.707513
vertex 0.8285771 9.724118 2.136084
endloop
endfacet
facet normal 2.842171e-15 1 1.468859e-27
outer loop
vertex -2.921423 9.724118 3.278941
vertex -2.296423 9.724118 3.278941
vertex -2.921423 9.724118 2.707513
endloop
endfacet
facet normal 2.842171e-15 1 2.237525e-27
outer loop
vertex -2.921423 9.724118 2.707513
vertex -2.296423 9.724118 3.278941
vertex -2.296423 9.724118 2.707513
endloop
endfacet
facet normal 2.842171e-15 1 2.237525e-27
outer loop
vertex -2.296423 9.724118 3.278941
vertex -1.671423 9.724118 3.278941
vertex -2.296423 9.724118 2.707513
endloop
endfacet
facet normal 2.842171e-15 1 2.963119e-27
outer loop
vertex -2.296423 9.724118 2.707513
vertex -1.671423 9.724118 3.278941
vertex -1.671423 9.724118 2.707513
endloop
endfacet
facet normal 2.842171e-15 1 2.963119e-27
outer loop
vertex -1.671423 9.724118 3.278941
vertex -1.046423 9.724118 3.278941
vertex -1.671423 9.724118 2.707513
endloop
endfacet
facet normal 2.842171e-15 1 3.642329e-27
outer loop
vertex -1.671423 9.724118 2.707513
vertex -1.046423 9.724118 3.278941
vertex -1.046423 9.724118 2.707513
endloop
endfacet
facet normal 5.684342e-15 1 7.284657e-27
outer loop
vertex -1.046423 9.724118 3.278941
vertex -0.4214229 9.724118 3.278941
vertex -1.046423 9.724118 2.707513
endloop
endfacet
facet normal 5.684342e-15 1 8.821989e-27
outer loop
vertex -1.046423 9.724118 2.707513
vertex -0.4214229 9.724118 3.278941
vertex -0.4214229 9.724118 2.707513
endloop
endfacet
facet normal 2.842171e-15 1 4.410719e-27
outer loop
vertex -0.4214229 9.724118 3.278941
vertex 0.2035771 9.724118 3.278941
vertex -0.4214229 9.724118 2.707513
endloop
endfacet
facet normal 0 1 3.108624e-15
outer loop
vertex -0.4214229 9.724118 2.707513
vertex 0.2035771 9.724118 3.278941
vertex 0.2035771 9.724118 2.707513
endloop
endfacet
facet normal 2.842171e-15 1 3.108624e-15
outer loop
vertex 0.2035771 9.724118 3.278941
vertex 0.8285771 9.724118 3.278941
vertex 0.2035771 9.724118 2.707513
endloop
endfacet
facet normal 5.684342e-15 1 1.961424e-27
outer loop
vertex 0.2035771 9.724118 2.707513
vertex 0.8285771 9.724118 3.278941
vertex 0.8285771 9.724118 2.707513
endloop
endfacet
facet normal 5.921189e-15 1 1.457255e-29
outer loop
vertex 0.2285771 9.724118 2.178941
vertex 0.8285771 9.724118 2.136084
vertex 0.2285771 9.724118 1.671441
endloop
endfacet
facet normal 5.921189e-15 1 2.051203e-27
outer loop
vertex 0.2285771 9.724118 1.671441
vertex 0.8285771 9.724118 2.136084
vertex 0.8285771 9.724118 1.564656
endloop
endfacet
facet normal 5.921189e-15 1 0
outer loop
vertex 0.2285771 9.724118 1.671441
vertex 0.8285771 9.724118 1.564656
vertex 0.2285771 9.724118 1.163941
endloop
endfacet
facet normal 5.921189e-15 1 2.052353e-27
outer loop
vertex 0.2285771 9.724118 1.163941
vertex 0.8285771 9.724118 1.564656
vertex 0.8285771 9.724118 0.9932271
endloop
endfacet
facet normal 5.921189e-15 1 0
outer loop
vertex 0.2285771 9.724118 1.163941
vertex 0.8285771 9.724118 0.9932271
vertex 0.2285771 9.724118 0.6564414
endloop
endfacet
facet normal 5.921189e-15 1 2.052353e-27
outer loop
vertex 0.2285771 9.724118 0.6564414
vertex 0.8285771 9.724118 0.9932271
vertex 0.8285771 9.724118 0.4217985
endloop
endfacet
facet normal 5.921189e-15 1 -1.554406e-29
outer loop
vertex 0.2285771 9.724118 0.6564414
vertex 0.8285771 9.724118 0.4217985
vertex 0.2285771 9.724118 0.1489414
endloop
endfacet
facet normal 5.921189e-15 1 2.051203e-27
outer loop
vertex 0.2285771 9.724118 0.1489414
vertex 0.8285771 9.724118 0.4217985
vertex 0.8285771 9.724118 -0.1496301
endloop
endfacet
facet normal 6.459479e-15 1 0
outer loop
vertex -3.546423 9.724118 2.707513
vertex -3.271423 9.724118 2.178941
vertex -3.546423 9.724118 2.136084
endloop
endfacet
facet normal 6.459479e-15 1 0
outer loop
vertex -3.546423 9.724118 2.136084
vertex -3.271423 9.724118 2.178941
vertex -3.271423 9.724118 1.671441
endloop
endfacet
facet normal 6.459479e-15 1 0
outer loop
vertex -3.546423 9.724118 2.136084
vertex -3.271423 9.724118 1.671441
vertex -3.546423 9.724118 1.564656
endloop
endfacet
facet normal 6.459479e-15 1 0
outer loop
vertex -3.546423 9.724118 1.564656
vertex -3.271423 9.724118 1.671441
vertex -3.271423 9.724118 1.163941
endloop
endfacet
facet normal 6.459479e-15 1 0
outer loop
vertex -3.546423 9.724118 1.564656
vertex -3.271423 9.724118 1.163941
vertex -3.546423 9.724118 0.9932271
endloop
endfacet
facet normal 6.459479e-15 1 0
outer loop
vertex -3.546423 9.724118 0.9932271
vertex -3.271423 9.724118 1.163941
vertex -3.271423 9.724118 0.6564414
endloop
endfacet
facet normal 6.459479e-15 1 0
outer loop
vertex -3.546423 9.724118 0.9932271
vertex -3.271423 9.724118 0.6564414
vertex -3.546423 9.724118 0.4217985
endloop
endfacet
facet normal 6.459479e-15 1 0
outer loop
vertex -3.546423 9.724118 0.4217985
vertex -3.271423 9.724118 0.6564414
vertex -3.271423 9.724118 0.1489414
endloop
endfacet
facet normal -2.842171e-15 -1 0
outer loop
vertex -4.171423 9.524118 -0.7210586
vertex -3.546423 9.524118 -0.7210586
vertex -4.171423 9.524118 -0.1496301
endloop
endfacet
facet normal -2.842171e-15 -1 -2.650573e-29
outer loop
vertex -4.171423 9.524118 -0.1496301
vertex -3.546423 9.524118 -0.7210586
vertex -3.546423 9.524118 -0.1496301
endloop
endfacet
facet normal -2.842171e-15 -1 0
outer loop
vertex -4.171423 9.524118 -0.1496301
vertex -3.546423 9.524118 -0.1496301
vertex -3.546423 9.524118 0.0577112
endloop
endfacet
facet normal 0 -1 0
outer loop
vertex -3.546423 9.524118 0.0577112
vertex -3.546423 9.524118 -0.1496301
vertex -3.271423 9.524118 0.1489414
endloop
endfacet
facet normal 0 -1 0
outer loop
vertex -3.546423 9.524118 0.0577112
vertex -3.271423 9.524118 0.1489414
vertex -3.546423 9.524118 0.4217985
endloop
endfacet
facet normal -3.472936e-15 -1 -3.500211e-15
outer loop
vertex -3.546423 9.524118 0.4217985
vertex -3.271423 9.524118 0.1489414
vertex -3.271423 9.524118 0.6564414
endloop
endfacet
facet normal -6.459479e-15 -1 0
outer loop
vertex -3.546423 9.524118 0.4217985
vertex -3.271423 9.524118 0.6564414
vertex -3.546423 9.524118 0.9932271
endloop
endfacet
facet normal -6.459479e-15 -1 0
outer loop
vertex -3.546423 9.524118 0.9932271
vertex -3.271423 9.524118 0.6564414
vertex -3.271423 9.524118 1.163941
endloop
endfacet
facet normal -6.459479e-15 -1 0
outer loop
vertex -3.546423 9.524118 0.9932271
vertex -3.271423 9.524118 1.163941
vertex -3.546423 9.524118 1.564656
endloop
endfacet
facet normal -6.459479e-15 -1 0
outer loop
vertex -3.546423 9.524118 1.564656
vertex -3.271423 9.524118 1.163941
vertex -3.271423 9.524118 1.671441
endloop
endfacet
facet normal -6.459479e-15 -1 0
outer loop
vertex -3.546423 9.524118 1.564656
vertex -3.271423 9.524118 1.671441
vertex -3.546423 9.524118 2.136084
endloop
endfacet
facet normal -5.454874e-16 -1 3.500211e-15
outer loop
vertex -3.546423 9.524118 2.136084
vertex -3.271423 9.524118 1.671441
vertex -3.271423 9.524118 2.178941
endloop
endfacet
facet normal 0 -1 0
outer loop
vertex -3.546423 9.524118 2.136084
vertex -3.271423 9.524118 2.178941
vertex -3.546423 9.524118 2.707513
endloop
endfacet
facet normal -5.684342e-15 -1 -2.957394e-15
outer loop
vertex -3.546423 9.524118 2.707513
vertex -3.271423 9.524118 2.178941
vertex -2.921423 9.524118 2.707513
endloop
endfacet
facet normal -5.684342e-15 -1 4.859383e-29
outer loop
vertex -3.546423 9.524118 2.707513
vertex -2.921423 9.524118 2.707513
vertex -3.546423 9.524118 3.278941
endloop
endfacet
facet normal -2.842171e-15 -1 3.108624e-15
outer loop
vertex -3.546423 9.524118 3.278941
vertex -2.921423 9.524118 2.707513
vertex -2.921423 9.524118 3.278941
endloop
endfacet
facet normal 0 -1 3.108624e-15
outer loop
vertex -2.921423 9.524118 3.278941
vertex -2.921423 9.524118 2.707513
vertex -2.296423 9.524118 2.707513
endloop
endfacet
facet normal -2.842171e-15 -1 2.208811e-29
outer loop
vertex -2.921423 9.524118 3.278941
vertex -2.296423 9.524118 2.707513
vertex -2.296423 9.524118 3.278941
endloop
endfacet
facet normal -2.842171e-15 -1 2.208811e-29
outer loop
vertex -2.296423 9.524118 3.278941
vertex -2.296423 9.524118 2.707513
vertex -1.671423 9.524118 2.707513
endloop
endfacet
facet normal -2.842171e-15 -1 1.987929e-29
outer loop
vertex -2.296423 9.524118 3.278941
vertex -1.671423 9.524118 2.707513
vertex -1.671423 9.524118 3.278941
endloop
endfacet
facet normal -5.684342e-15 -1 3.975859e-29
outer loop
vertex -1.671423 9.524118 3.278941
vertex -1.671423 9.524118 2.707513
vertex -1.046423 9.524118 2.707513
endloop
endfacet
facet normal -5.684342e-15 -1 1.325286e-28
outer loop
vertex -1.671423 9.524118 3.278941
vertex -1.046423 9.524118 2.707513
vertex -1.046423 9.524118 3.278941
endloop
endfacet
facet normal -2.842171e-15 -1 6.626432e-29
outer loop
vertex -1.046423 9.524118 3.278941
vertex -1.046423 9.524118 2.707513
vertex -0.4214229 9.524118 2.707513
endloop
endfacet
facet normal 0 -1 3.108624e-15
outer loop
vertex -1.046423 9.524118 3.278941
vertex -0.4214229 9.524118 2.707513
vertex -0.4214229 9.524118 3.278941
endloop
endfacet
facet normal -2.842171e-15 -1 3.108624e-15
outer loop
vertex -0.4214229 9.524118 3.278941
vertex -0.4214229 9.524118 2.707513
vertex 0.2035771 9.524118 2.707513
endloop
endfacet
facet normal -5.684342e-15 -1 3.865418e-29
outer loop
vertex -0.4214229 9.524118 3.278941
vertex 0.2035771 9.524118 2.707513
vertex 0.2035771 9.524118 3.278941
endloop
endfacet
facet normal -2.842171e-15 -1 1.946514e-29
outer loop
vertex 0.2035771 9.524118 3.278941
vertex 0.2035771 9.524118 2.707513
vertex 0.8285771 9.524118 2.707513
endloop
endfacet
facet normal -5.684342e-15 -1 -3.108624e-15
outer loop
vertex 0.2035771 9.524118 3.278941
vertex 0.8285771 9.524118 2.707513
vertex 0.8285771 9.524118 3.278941
endloop
endfacet
facet normal -5.684342e-15 -1 -5.301145e-29
outer loop
vertex -3.546423 9.524118 -0.7210586
vertex -2.921423 9.524118 -0.7210586
vertex -3.546423 9.524118 -0.1496301
endloop
endfacet
facet normal -5.684342e-15 -1 4.417621e-29
outer loop
vertex -3.546423 9.524118 -0.1496301
vertex -2.921423 9.524118 -0.7210586
vertex -2.921423 9.524118 -0.1496301
endloop
endfacet
facet normal -5.684342e-15 -1 5.235578e-15
outer loop
vertex -3.546423 9.524118 -0.1496301
vertex -2.921423 9.524118 -0.1496301
vertex -3.271423 9.524118 0.1489414
endloop
endfacet
facet normal -6.090366e-15 -1 4.759616e-15
outer loop
vertex -3.271423 9.524118 0.1489414
vertex -2.921423 9.524118 -0.1496301
vertex -2.68809 9.524118 0.1489414
endloop
endfacet
facet normal 0 -1 0
outer loop
vertex -2.68809 9.524118 0.1489414
vertex -2.921423 9.524118 -0.1496301
vertex -2.296423 9.524118 -0.1496301
endloop
endfacet
facet normal -3.045183e-15 -1 -3.994678e-15
outer loop
vertex -2.68809 9.524118 0.1489414
vertex -2.296423 9.524118 -0.1496301
vertex -2.104756 9.524118 0.1489414
endloop
endfacet
facet normal -2.842171e-15 -1 -4.125001e-15
outer loop
vertex -2.104756 9.524118 0.1489414
vertex -2.296423 9.524118 -0.1496301
vertex -1.671423 9.524118 -0.1496301
endloop
endfacet
facet normal 0 -1 0
outer loop
vertex -2.104756 9.524118 0.1489414
vertex -1.671423 9.524118 -0.1496301
vertex -1.521423 9.524118 0.1489414
endloop
endfacet
facet normal -5.684342e-15 -1 2.85577e-15
outer loop
vertex -1.521423 9.524118 0.1489414
vertex -1.671423 9.524118 -0.1496301
vertex -1.046423 9.524118 -0.1496301
endloop
endfacet
facet normal -6.090366e-15 -1 2.209822e-15
outer loop
vertex -1.521423 9.524118 0.1489414
vertex -1.046423 9.524118 -0.1496301
vertex -0.9380896 9.524118 0.1489414
endloop
endfacet
facet normal -2.842171e-15 -1 1.03125e-15
outer loop
vertex -0.9380896 9.524118 0.1489414
vertex -1.046423 9.524118 -0.1496301
vertex -0.4214229 9.524118 -0.1496301
endloop
endfacet
facet normal 0 -1 5.949521e-15
outer loop
vertex -0.9380896 9.524118 0.1489414
vertex -0.4214229 9.524118 -0.1496301
vertex -0.3547563 9.524118 0.1489414
endloop
endfacet
facet normal -2.842171e-15 -1 6.584136e-15
outer loop
vertex -0.3547563 9.524118 0.1489414
vertex -0.4214229 9.524118 -0.1496301
vertex 0.2035771 9.524118 -0.1496301
endloop
endfacet
facet normal -6.090366e-15 -1 5.099589e-16
outer loop
vertex -0.3547563 9.524118 0.1489414
vertex 0.2035771 9.524118 -0.1496301
vertex 0.2285771 9.524118 0.1489414
endloop
endfacet
facet normal -2.842171e-15 -1 2.379808e-16
outer loop
vertex 0.2285771 9.524118 0.1489414
vertex 0.2035771 9.524118 -0.1496301
vertex 0.8285771 9.524118 -0.1496301
endloop
endfacet
facet normal -2.960595e-15 -1 0
outer loop
vertex 0.2285771 9.524118 0.1489414
vertex 0.8285771 9.524118 -0.1496301
vertex 0.8285771 9.524118 0.4217985
endloop
endfacet
facet normal 0 -1 0
outer loop
vertex -2.921423 9.524118 -0.7210586
vertex -2.296423 9.524118 -0.7210586
vertex -2.921423 9.524118 -0.1496301
endloop
endfacet
facet normal 0 -1 0
outer loop
vertex -2.921423 9.524118 -0.1496301
vertex -2.296423 9.524118 -0.7210586
vertex -2.296423 9.524118 -0.1496301
endloop
endfacet
facet normal -2.842171e-15 -1 -2.429692e-29
outer loop
vertex -2.296423 9.524118 -0.7210586
vertex -1.671423 9.524118 -0.7210586
vertex -2.296423 9.524118 -0.1496301
endloop
endfacet
facet normal -2.842171e-15 -1 -2.208811e-29
outer loop
vertex -2.296423 9.524118 -0.1496301
vertex -1.671423 9.524118 -0.7210586
vertex -1.671423 9.524118 -0.1496301
endloop
endfacet
facet normal -5.684342e-15 -1 -4.417621e-29
outer loop
vertex -1.671423 9.524118 -0.7210586
vertex -1.046423 9.524118 -0.7210586
vertex -1.671423 9.524118 -0.1496301
endloop
endfacet
facet normal -5.684342e-15 -1 -1.347374e-28
outer loop
vertex -1.671423 9.524118 -0.1496301
vertex -1.046423 9.524118 -0.7210586
vertex -1.046423 9.524118 -0.1496301
endloop
endfacet
facet normal -2.842171e-15 -1 -6.736872e-29
outer loop
vertex -1.046423 9.524118 -0.7210586
vertex -0.4214229 9.524118 -0.7210586
vertex -1.046423 9.524118 -0.1496301
endloop
endfacet
facet normal -2.842171e-15 -1 -6.736872e-29
outer loop
vertex -1.046423 9.524118 -0.1496301
vertex -0.4214229 9.524118 -0.7210586
vertex -0.4214229 9.524118 -0.1496301
endloop
endfacet
facet normal -2.842171e-15 -1 -6.764482e-29
outer loop
vertex -0.4214229 9.524118 -0.7210586
vertex 0.2035771 9.524118 -0.7210586
vertex -0.4214229 9.524118 -0.1496301
endloop
endfacet
facet normal -2.842171e-15 -1 -2.264031e-29
outer loop
vertex -0.4214229 9.524118 -0.1496301
vertex 0.2035771 9.524118 -0.7210586
vertex 0.2035771 9.524118 -0.1496301
endloop
endfacet
facet normal -5.684342e-15 -1 -4.528062e-29
outer loop
vertex 0.2035771 9.524118 -0.7210586
vertex 0.8285771 9.524118 -0.7210586
vertex 0.2035771 9.524118 -0.1496301
endloop
endfacet
facet normal -2.842171e-15 -1 3.108624e-15
outer loop
vertex 0.2035771 9.524118 -0.1496301
vertex 0.8285771 9.524118 -0.7210586
vertex 0.8285771 9.524118 -0.1496301
endloop
endfacet
facet normal -2.960595e-15 -1 -6.152856e-30
outer loop
vertex 0.2285771 9.524118 0.1489414
vertex 0.8285771 9.524118 0.4217985
vertex 0.2285771 9.524118 0.6564414
endloop
endfacet
facet normal -2.960595e-15 -1 0
outer loop
vertex 0.2285771 9.524118 0.6564414
vertex 0.8285771 9.524118 0.4217985
vertex 0.8285771 9.524118 0.9932271
endloop
endfacet
facet normal -2.960595e-15 -1 0
outer loop
vertex 0.2285771 9.524118 0.6564414
vertex 0.8285771 9.524118 0.9932271
vertex 0.2285771 9.524118 1.163941
endloop
endfacet
facet normal -2.960595e-15 -1 0
outer loop
vertex 0.2285771 9.524118 1.163941
vertex 0.8285771 9.524118 0.9932271
vertex 0.8285771 9.524118 1.564656
endloop
endfacet
facet normal -2.960595e-15 -1 0
outer loop
vertex 0.2285771 9.524118 1.163941
vertex 0.8285771 9.524118 1.564656
vertex 0.2285771 9.524118 1.671441
endloop
endfacet
facet normal -2.960595e-15 -1 0
outer loop
vertex 0.2285771 9.524118 1.671441
vertex 0.8285771 9.524118 1.564656
vertex 0.8285771 9.524118 2.136084
endloop
endfacet
facet normal -2.960595e-15 -1 6.800525e-30
outer loop
vertex 0.2285771 9.524118 1.671441
vertex 0.8285771 9.524118 2.136084
vertex 0.2285771 9.524118 2.178941
endloop
endfacet
facet normal -2.960595e-15 -1 0
outer loop
vertex 0.2285771 9.524118 2.178941
vertex 0.8285771 9.524118 2.136084
vertex 0.8285771 9.524118 2.707513
endloop
endfacet
facet normal -2.842171e-15 -1 -1.34427e-16
outer loop
vertex 0.2285771 9.524118 2.178941
vertex 0.8285771 9.524118 2.707513
vertex 0.2035771 9.524118 2.707513
endloop
endfacet
facet normal -2.842171e-15 -1 2.429692e-29
outer loop
vertex -3.546423 9.524118 3.278941
vertex -4.171423 9.524118 3.278941
vertex -3.546423 9.524118 2.707513
endloop
endfacet
facet normal -2.842171e-15 -1 0
outer loop
vertex -3.546423 9.524118 2.707513
vertex -4.171423 9.524118 3.278941
vertex -4.171423 9.524118 2.707513
endloop
endfacet
facet normal -2.842171e-15 -1 0
outer loop
vertex -3.546423 9.524118 2.707513
vertex -4.171423 9.524118 2.707513
vertex -3.546423 9.524118 2.136084
endloop
endfacet
facet normal -2.842171e-15 -1 0
outer loop
vertex -3.546423 9.524118 2.136084
vertex -4.171423 9.524118 2.707513
vertex -4.171423 9.524118 2.136084
endloop
endfacet
facet normal -2.842171e-15 -1 0
outer loop
vertex -3.546423 9.524118 2.136084
vertex -4.171423 9.524118 2.136084
vertex -3.546423 9.524118 1.564656
endloop
endfacet
facet normal -2.842171e-15 -1 0
outer loop
vertex -3.546423 9.524118 1.564656
vertex -4.171423 9.524118 2.136084
vertex -4.171423 9.524118 1.564656
endloop
endfacet
facet normal -2.842171e-15 -1 0
outer loop
vertex -3.546423 9.524118 1.564656
vertex -4.171423 9.524118 1.564656
vertex -3.546423 9.524118 0.9932271
endloop
endfacet
facet normal -2.842171e-15 -1 0
outer loop
vertex -3.546423 9.524118 0.9932271
vertex -4.171423 9.524118 1.564656
vertex -4.171423 9.524118 0.9932271
endloop
endfacet
facet normal -2.842171e-15 -1 0
outer loop
vertex -3.546423 9.524118 0.9932271
vertex -4.171423 9.524118 0.9932271
vertex -3.546423 9.524118 0.4217985
endloop
endfacet
facet normal -2.842171e-15 -1 0
outer loop
vertex -3.546423 9.524118 0.4217985
vertex -4.171423 9.524118 0.9932271
vertex -4.171423 9.524118 0.4217985
endloop
endfacet
facet normal -2.842171e-15 -1 0
outer loop
vertex -3.546423 9.524118 0.4217985
vertex -4.171423 9.524118 0.4217985
vertex -3.546423 9.524118 0.0577112
endloop
endfacet
facet normal -2.842171e-15 -1 0
outer loop
vertex -3.546423 9.524118 0.0577112
vertex -4.171423 9.524118 0.4217985
vertex -4.171423 9.524118 -0.1496301
endloop
endfacet
facet normal -6.090366e-15 -1 -2.68854e-15
outer loop
vertex -3.271423 9.524118 2.178941
vertex -2.68809 9.524118 2.178941
vertex -2.921423 9.524118 2.707513
endloop
endfacet
facet normal 0 -1 0
outer loop
vertex -2.921423 9.524118 2.707513
vertex -2.68809 9.524118 2.178941
vertex -2.296423 9.524118 2.707513
endloop
endfacet
facet normal -3.045183e-15 -1 2.256453e-15
outer loop
vertex -2.68809 9.524118 2.178941
vertex -2.104756 9.524118 2.178941
vertex -2.296423 9.524118 2.707513
endloop
endfacet
facet normal -2.842171e-15 -1 2.330068e-15
outer loop
vertex -2.296423 9.524118 2.707513
vertex -2.104756 9.524118 2.178941
vertex -1.671423 9.524118 2.707513
endloop
endfacet
facet normal -3.045183e-15 -1 2.496502e-15
outer loop
vertex -2.104756 9.524118 2.178941
vertex -1.521423 9.524118 2.178941
vertex -1.671423 9.524118 2.707513
endloop
endfacet
facet normal -5.684342e-15 -1 1.747551e-15
outer loop
vertex -1.671423 9.524118 2.707513
vertex -1.521423 9.524118 2.178941
vertex -1.046423 9.524118 2.707513
endloop
endfacet
facet normal -3.045183e-15 -1 -6.241254e-16
outer loop
vertex -1.521423 9.524118 2.178941
vertex -0.9380896 9.524118 2.178941
vertex -1.046423 9.524118 2.707513
endloop
endfacet
facet normal -2.842171e-15 -1 -5.82517e-16
outer loop
vertex -1.046423 9.524118 2.707513
vertex -0.9380896 9.524118 2.178941
vertex -0.4214229 9.524118 2.707513
endloop
endfacet
facet normal -3.045183e-15 -1 -3.840772e-16
outer loop
vertex -0.9380896 9.524118 2.178941
vertex -0.3547563 9.524118 2.178941
vertex -0.4214229 9.524118 2.707513
endloop
endfacet
facet normal -2.842171e-15 -1 -3.58472e-16
outer loop
vertex -0.4214229 9.524118 2.707513
vertex -0.3547563 9.524118 2.178941
vertex 0.2035771 9.524118 2.707513
endloop
endfacet
facet normal -3.045183e-15 -1 -1.440289e-16
outer loop
vertex -0.3547563 9.524118 2.178941
vertex 0.2285771 9.524118 2.178941
vertex 0.2035771 9.524118 2.707513
endloop
endfacet
facet normal 0 0 -1
outer loop
vertex -4.171423 9.524118 -0.7210586
vertex -4.171423 9.724118 -0.7210586
vertex -3.546423 9.524118 -0.7210586
endloop
endfacet
facet normal 0 0 -1
outer loop
vertex -3.546423 9.524118 -0.7210586
vertex -4.171423 9.724118 -0.7210586
vertex -3.546423 9.724118 -0.7210586
endloop
endfacet
facet normal 0 0 -1
outer loop
vertex -3.546423 9.524118 -0.7210586
vertex -3.546423 9.724118 -0.7210586
vertex -2.921423 9.524118 -0.7210586
endloop
endfacet
facet normal 0 0 -1
outer loop
vertex -2.921423 9.524118 -0.7210586
vertex -3.546423 9.724118 -0.7210586
vertex -2.921423 9.724118 -0.7210586
endloop
endfacet
facet normal 0 0 -1
outer loop
vertex -2.921423 9.524118 -0.7210586
vertex -2.921423 9.724118 -0.7210586
vertex -2.296423 9.524118 -0.7210586
endloop
endfacet
facet normal 0 0 -1
outer loop
vertex -2.296423 9.524118 -0.7210586
vertex -2.921423 9.724118 -0.7210586
vertex -2.296423 9.724118 -0.7210586
endloop
endfacet
facet normal 0 0 -1
outer loop
vertex -2.296423 9.524118 -0.7210586
vertex -2.296423 9.724118 -0.7210586
vertex -1.671423 9.524118 -0.7210586
endloop
endfacet
facet normal 0 0 -1
outer loop
vertex -1.671423 9.524118 -0.7210586
vertex -2.296423 9.724118 -0.7210586
vertex -1.671423 9.724118 -0.7210586
endloop
endfacet
facet normal 0 0 -1
outer loop
vertex -1.671423 9.524118 -0.7210586
vertex -1.671423 9.724118 -0.7210586
vertex -1.046423 9.524118 -0.7210586
endloop
endfacet
facet normal 0 0 -1
outer loop
vertex -1.046423 9.524118 -0.7210586
vertex -1.671423 9.724118 -0.7210586
vertex -1.046423 9.724118 -0.7210586
endloop
endfacet
facet normal 0 0 -1
outer loop
vertex -1.046423 9.524118 -0.7210586
vertex -1.046423 9.724118 -0.7210586
vertex -0.4214229 9.524118 -0.7210586
endloop
endfacet
facet normal 0 0 -1
outer loop
vertex -0.4214229 9.524118 -0.7210586
vertex -1.046423 9.724118 -0.7210586
vertex -0.4214229 9.724118 -0.7210586
endloop
endfacet
facet normal 0 0 -1
outer loop
vertex -0.4214229 9.524118 -0.7210586
vertex -0.4214229 9.724118 -0.7210586
vertex 0.2035771 9.524118 -0.7210586
endloop
endfacet
facet normal 0 0 -1
outer loop
vertex 0.2035771 9.524118 -0.7210586
vertex -0.4214229 9.724118 -0.7210586
vertex 0.2035771 9.724118 -0.7210586
endloop
endfacet
facet normal 0 0 -1
outer loop
vertex 0.2035771 9.524118 -0.7210586
vertex 0.2035771 9.724118 -0.7210586
vertex 0.8285771 9.524118 -0.7210586
endloop
endfacet
facet normal 0 0 -1
outer loop
vertex 0.8285771 9.524118 -0.7210586
vertex 0.2035771 9.724118 -0.7210586
vertex 0.8285771 9.724118 -0.7210586
endloop
endfacet
facet normal 0 0 1
outer loop
vertex 0.8285771 9.524118 3.278941
vertex 0.8285771 9.724118 3.278941
vertex 0.2035771 9.524118 3.278941
endloop
endfacet
facet normal 0 0 1
outer loop
vertex 0.2035771 9.524118 3.278941
vertex 0.8285771 9.724118 3.278941
vertex 0.2035771 9.724118 3.278941
endloop
endfacet
facet normal 0 0 1
outer loop
vertex 0.2035771 9.524118 3.278941
vertex 0.2035771 9.724118 3.278941
vertex -0.4214229 9.524118 3.278941
endloop
endfacet
facet normal 0 0 1
outer loop
vertex -0.4214229 9.524118 3.278941
vertex 0.2035771 9.724118 3.278941
vertex -0.4214229 9.724118 3.278941
endloop
endfacet
facet normal 0 0 1
outer loop
vertex -0.4214229 9.524118 3.278941
vertex -0.4214229 9.724118 3.278941
vertex -1.046423 9.524118 3.278941
endloop
endfacet
facet normal 0 0 1
outer loop
vertex -1.046423 9.524118 3.278941
vertex -0.4214229 9.724118 3.278941
vertex -1.046423 9.724118 3.278941
endloop
endfacet
facet normal 0 0 1
outer loop
vertex -1.046423 9.524118 3.278941
vertex -1.046423 9.724118 3.278941
vertex -1.671423 9.524118 3.278941
endloop
endfacet
facet normal 0 0 1
outer loop
vertex -1.671423 9.524118 3.278941
vertex -1.046423 9.724118 3.278941
vertex -1.671423 9.724118 3.278941
endloop
endfacet
facet normal 0 0 1
outer loop
vertex -1.671423 9.524118 3.278941
vertex -1.671423 9.724118 3.278941
vertex -2.296423 9.524118 3.278941
endloop
endfacet
facet normal 0 0 1
outer loop
vertex -2.296423 9.524118 3.278941
vertex -1.671423 9.724118 3.278941
vertex -2.296423 9.724118 3.278941
endloop
endfacet
facet normal 0 0 1
outer loop
vertex -2.296423 9.524118 3.278941
vertex -2.296423 9.724118 3.278941
vertex -2.921423 9.524118 3.278941
endloop
endfacet
facet normal 0 0 1
outer loop
vertex -2.921423 9.524118 3.278941
vertex -2.296423 9.724118 3.278941
vertex -2.921423 9.724118 3.278941
endloop
endfacet
facet normal 0 0 1
outer loop
vertex -2.921423 9.524118 3.278941
vertex -2.921423 9.724118 3.278941
vertex -3.546423 9.524118 3.278941
endloop
endfacet
facet normal 0 0 1
outer loop
vertex -3.546423 9.524118 3.278941
vertex -2.921423 9.724118 3.278941
vertex -3.546423 9.724118 3.278941
endloop
endfacet
facet normal 0 0 1
outer loop
vertex -3.546423 9.524118 3.278941
vertex -3.546423 9.724118 3.278941
vertex -4.171423 9.524118 3.278941
endloop
endfacet
facet normal 0 0 1
outer loop
vertex -4.171423 9.524118 3.278941
vertex -3.546423 9.724118 3.278941
vertex -4.171423 9.724118 3.278941
endloop
endfacet
facet normal -1 0 0
outer loop
vertex -4.171423 9.524118 3.278941
vertex -4.171423 9.724118 3.278941
vertex -4.171423 9.524118 2.707513
endloop
endfacet
facet normal -1 0 0
outer loop
vertex -4.171423 9.524118 2.707513
vertex -4.171423 9.724118 3.278941
vertex -4.171423 9.724118 2.707513
endloop
endfacet
facet normal -1 0 0
outer loop
vertex -4.171423 9.524118 2.707513
vertex -4.171423 9.724118 2.707513
vertex -4.171423 9.524118 2.136084
endloop
endfacet
facet normal -1 0 0
outer loop
vertex -4.171423 9.524118 2.136084
vertex -4.171423 9.724118 2.707513
vertex -4.171423 9.724118 2.136084
endloop
endfacet
facet normal -1 0 0
outer loop
vertex -4.171423 9.524118 2.136084
vertex -4.171423 9.724118 2.136084
vertex -4.171423 9.524118 1.564656
endloop
endfacet
facet normal -1 0 0
outer loop
vertex -4.171423 9.524118 1.564656
vertex -4.171423 9.724118 2.136084
vertex -4.171423 9.724118 1.564656
endloop
endfacet
facet normal -1 0 0
outer loop
vertex -4.171423 9.524118 1.564656
vertex -4.171423 9.724118 1.564656
vertex -4.171423 9.524118 0.9932271
endloop
endfacet
facet normal -1 0 0
outer loop
vertex -4.171423 9.524118 0.9932271
vertex -4.171423 9.724118 1.564656
vertex -4.171423 9.724118 0.9932271
endloop
endfacet
facet normal -1 0 0
outer loop
vertex -4.171423 9.524118 0.9932271
vertex -4.171423 9.724118 0.9932271
vertex -4.171423 9.524118 0.4217985
endloop
endfacet
facet normal -1 0 0
outer loop
vertex -4.171423 9.524118 0.4217985
vertex -4.171423 9.724118 0.9932271
vertex -4.171423 9.724118 0.4217985
endloop
endfacet
facet normal -1 0 0
outer loop
vertex -4.171423 9.524118 0.4217985
vertex -4.171423 9.724118 0.4217985
vertex -4.171423 9.524118 -0.1496301
endloop
endfacet
facet normal -1 0 0
outer loop
vertex -4.171423 9.524118 -0.1496301
vertex -4.171423 9.724118 0.4217985
vertex -4.171423 9.724118 -0.1496301
endloop
endfacet
facet normal -1 0 0
outer loop
vertex -4.171423 9.524118 -0.1496301
vertex -4.171423 9.724118 -0.1496301
vertex -4.171423 9.524118 -0.7210586
endloop
endfacet
facet normal -1 0 0
outer loop
vertex -4.171423 9.524118 -0.7210586
vertex -4.171423 9.724118 -0.1496301
vertex -4.171423 9.724118 -0.7210586
endloop
endfacet
facet normal 1 -1.665335e-15 1.165734e-15
outer loop
vertex 0.8285771 9.524118 -0.7210586
vertex 0.8285771 9.724118 -0.7210586
vertex 0.8285771 9.524118 -0.1496301
endloop
endfacet
facet normal 1 -5.940248e-12 -2.077338e-12
outer loop
vertex 0.8285771 9.524118 -0.1496301
vertex 0.8285771 9.724118 -0.7210586
vertex 0.8285771 9.724118 -0.1496301
endloop
endfacet
facet normal 1 -5.940248e-12 0
outer loop
vertex 0.8285771 9.524118 -0.1496301
vertex 0.8285771 9.724118 -0.1496301
vertex 0.8285771 9.524118 0.4217985
endloop
endfacet
facet normal 1 -4.950484e-12 3.464173e-13
outer loop
vertex 0.8285771 9.524118 0.4217985
vertex 0.8285771 9.724118 -0.1496301
vertex 0.8285771 9.724118 0.4217985
endloop
endfacet
facet normal 1 -4.950484e-12 0
outer loop
vertex 0.8285771 9.524118 0.4217985
vertex 0.8285771 9.724118 0.4217985
vertex 0.8285771 9.524118 0.9932271
endloop
endfacet
facet normal 1 -3.960166e-12 3.466116e-13
outer loop
vertex 0.8285771 9.524118 0.9932271
vertex 0.8285771 9.724118 0.4217985
vertex 0.8285771 9.724118 0.9932271
endloop
endfacet
facet normal 1 -3.960166e-12 0
outer loop
vertex 0.8285771 9.524118 0.9932271
vertex 0.8285771 9.724118 0.9932271
vertex 0.8285771 9.524118 1.564656
endloop
endfacet
facet normal 1 -2.969847e-12 3.466116e-13
outer loop
vertex 0.8285771 9.524118 1.564656
vertex 0.8285771 9.724118 0.9932271
vertex 0.8285771 9.724118 1.564656
endloop
endfacet
facet normal 1 -2.969847e-12 0
outer loop
vertex 0.8285771 9.524118 1.564656
vertex 0.8285771 9.724118 1.564656
vertex 0.8285771 9.524118 2.136084
endloop
endfacet
facet normal 1 -1.980083e-12 3.464173e-13
outer loop
vertex 0.8285771 9.524118 2.136084
vertex 0.8285771 9.724118 1.564656
vertex 0.8285771 9.724118 2.136084
endloop
endfacet
facet normal 1 -1.980083e-12 0
outer loop
vertex 0.8285771 9.524118 2.136084
vertex 0.8285771 9.724118 2.136084
vertex 0.8285771 9.524118 2.707513
endloop
endfacet
facet normal 1 -9.897638e-13 3.466116e-13
outer loop
vertex 0.8285771 9.524118 2.707513
vertex 0.8285771 9.724118 2.136084
vertex 0.8285771 9.724118 2.707513
endloop
endfacet
facet normal 1 -9.897638e-13 -1.165734e-15
outer loop
vertex 0.8285771 9.524118 2.707513
vertex 0.8285771 9.724118 2.707513
vertex 0.8285771 9.524118 3.278941
endloop
endfacet
facet normal 1 0 3.452516e-13
outer loop
vertex 0.8285771 9.524118 3.278941
vertex 0.8285771 9.724118 2.707513
vertex 0.8285771 9.724118 3.278941
endloop
endfacet
facet normal -1 3.13638e-14 2.625158e-15
outer loop
vertex 0.2285771 9.724118 0.1489414
vertex 0.2285771 9.524118 0.1489414
vertex 0.2285771 9.724118 0.6564414
endloop
endfacet
facet normal -1 4.32987e-14 -2.07825e-15
outer loop
vertex 0.2285771 9.724118 0.6564414
vertex 0.2285771 9.524118 0.1489414
vertex 0.2285771 9.524118 0.6564414
endloop
endfacet
facet normal -1 4.32987e-14 0
outer loop
vertex 0.2285771 9.724118 0.6564414
vertex 0.2285771 9.524118 0.6564414
vertex 0.2285771 9.724118 1.163941
endloop
endfacet
facet normal -1 4.32987e-14 0
outer loop
vertex 0.2285771 9.724118 1.163941
vertex 0.2285771 9.524118 0.6564414
vertex 0.2285771 9.524118 1.163941
endloop
endfacet
facet normal -1 4.32987e-14 0
outer loop
vertex 0.2285771 9.724118 1.163941
vertex 0.2285771 9.524118 1.163941
vertex 0.2285771 9.724118 1.671441
endloop
endfacet
facet normal -1 4.32987e-14 0
outer loop
vertex 0.2285771 9.724118 1.671441
vertex 0.2285771 9.524118 1.163941
vertex 0.2285771 9.524118 1.671441
endloop
endfacet
facet normal -1 4.32987e-14 -2.461086e-15
outer loop
vertex 0.2285771 9.724118 1.671441
vertex 0.2285771 9.524118 1.671441
vertex 0.2285771 9.724118 2.178941
endloop
endfacet
facet normal -1 3.122502e-14 2.297013e-15
outer loop
vertex 0.2285771 9.724118 2.178941
vertex 0.2285771 9.524118 1.671441
vertex 0.2285771 9.524118 2.178941
endloop
endfacet
facet normal 1 0 0
outer loop
vertex -3.271423 9.724118 2.178941
vertex -3.271423 9.524118 2.178941
vertex -3.271423 9.724118 1.671441
endloop
endfacet
facet normal 1 0 0
outer loop
vertex -3.271423 9.724118 1.671441
vertex -3.271423 9.524118 2.178941
vertex -3.271423 9.524118 1.671441
endloop
endfacet
facet normal 1 0 0
outer loop
vertex -3.271423 9.724118 1.671441
vertex -3.271423 9.524118 1.671441
vertex -3.271423 9.724118 1.163941
endloop
endfacet
facet normal 1 0 0
outer loop
vertex -3.271423 9.724118 1.163941
vertex -3.271423 9.524118 1.671441
vertex -3.271423 9.524118 1.163941
endloop
endfacet
facet normal 1 0 0
outer loop
vertex -3.271423 9.724118 1.163941
vertex -3.271423 9.524118 1.163941
vertex -3.271423 9.724118 0.6564414
endloop
endfacet
facet normal 1 0 0
outer loop
vertex -3.271423 9.724118 0.6564414
vertex -3.271423 9.524118 1.163941
vertex -3.271423 9.524118 0.6564414
endloop
endfacet
facet normal 1 0 0
outer loop
vertex -3.271423 9.724118 0.6564414
vertex -3.271423 9.524118 0.6564414
vertex -3.271423 9.724118 0.1489414
endloop
endfacet
facet normal 1 0 0
outer loop
vertex -3.271423 9.724118 0.1489414
vertex -3.271423 9.524118 0.6564414
vertex -3.271423 9.524118 0.1489414
endloop
endfacet
facet normal 0 0 1
outer loop
vertex 0.2285771 9.524118 0.1489414
vertex 0.2285771 9.724118 0.1489414
vertex -0.3547563 9.524118 0.1489414
endloop
endfacet
facet normal 0 0 1
outer loop
vertex -0.3547563 9.524118 0.1489414
vertex 0.2285771 9.724118 0.1489414
vertex -0.3547563 9.724118 0.1489414
endloop
endfacet
facet normal 0 0 1
outer loop
vertex -0.3547563 9.524118 0.1489414
vertex -0.3547563 9.724118 0.1489414
vertex -0.9380896 9.524118 0.1489414
endloop
endfacet
facet normal 0 0 1
outer loop
vertex -0.9380896 9.524118 0.1489414
vertex -0.3547563 9.724118 0.1489414
vertex -0.9380896 9.724118 0.1489414
endloop
endfacet
facet normal 0 0 1
outer loop
vertex -0.9380896 9.524118 0.1489414
vertex -0.9380896 9.724118 0.1489414
vertex -1.521423 9.524118 0.1489414
endloop
endfacet
facet normal 0 0 1
outer loop
vertex -1.521423 9.524118 0.1489414
vertex -0.9380896 9.724118 0.1489414
vertex -1.521423 9.724118 0.1489414
endloop
endfacet
facet normal 0 0 1
outer loop
vertex -1.521423 9.524118 0.1489414
vertex -1.521423 9.724118 0.1489414
vertex -2.104756 9.524118 0.1489414
endloop
endfacet
facet normal 0 0 1
outer loop
vertex -2.104756 9.524118 0.1489414
vertex -1.521423 9.724118 0.1489414
vertex -2.104756 9.724118 0.1489414
endloop
endfacet
facet normal 0 0 1
outer loop
vertex -2.104756 9.524118 0.1489414
vertex -2.104756 9.724118 0.1489414
vertex -2.68809 9.524118 0.1489414
endloop
endfacet
facet normal 0 0 1
outer loop
vertex -2.68809 9.524118 0.1489414
vertex -2.104756 9.724118 0.1489414
vertex -2.68809 9.724118 0.1489414
endloop
endfacet
facet normal 0 0 1
outer loop
vertex -2.68809 9.524118 0.1489414
vertex -2.68809 9.724118 0.1489414
vertex -3.271423 9.524118 0.1489414
endloop
endfacet
facet normal 0 0 1
outer loop
vertex -3.271423 9.524118 0.1489414
vertex -2.68809 9.724118 0.1489414
vertex -3.271423 9.724118 0.1489414
endloop
endfacet
facet normal 0 0 -1
outer loop
vertex -3.271423 9.524118 2.178941
vertex -3.271423 9.724118 2.178941
vertex -2.68809 9.524118 2.178941
endloop
endfacet
facet normal 0 0 -1
outer loop
vertex -2.68809 9.524118 2.178941
vertex -3.271423 9.724118 2.178941
vertex -2.68809 9.724118 2.178941
endloop
endfacet
facet normal 0 0 -1
outer loop
vertex -2.68809 9.524118 2.178941
vertex -2.68809 9.724118 2.178941
vertex -2.104756 9.524118 2.178941
endloop
endfacet
facet normal 0 0 -1
outer loop
vertex -2.104756 9.524118 2.178941
vertex -2.68809 9.724118 2.178941
vertex -2.104756 9.724118 2.178941
endloop
endfacet
facet normal 0 0 -1
outer loop
vertex -2.104756 9.524118 2.178941
vertex -2.104756 9.724118 2.178941
vertex -1.521423 9.524118 2.178941
endloop
endfacet
facet normal 0 0 -1
outer loop
vertex -1.521423 9.524118 2.178941
vertex -2.104756 9.724118 2.178941
vertex -1.521423 9.724118 2.178941
endloop
endfacet
facet normal 0 0 -1
outer loop
vertex -1.521423 9.524118 2.178941
vertex -1.521423 9.724118 2.178941
vertex -0.9380896 9.524118 2.178941
endloop
endfacet
facet normal 0 0 -1
outer loop
vertex -0.9380896 9.524118 2.178941
vertex -1.521423 9.724118 2.178941
vertex -0.9380896 9.724118 2.178941
endloop
endfacet
facet normal 0 0 -1
outer loop
vertex -0.9380896 9.524118 2.178941
vertex -0.9380896 9.724118 2.178941
vertex -0.3547563 9.524118 2.178941
endloop
endfacet
facet normal 0 0 -1
outer loop
vertex -0.3547563 9.524118 2.178941
vertex -0.9380896 9.724118 2.178941
vertex -0.3547563 9.724118 2.178941
endloop
endfacet
facet normal 0 0 -1
outer loop
vertex -0.3547563 9.524118 2.178941
vertex -0.3547563 9.724118 2.178941
vertex 0.2285771 9.524118 2.178941
endloop
endfacet
facet normal 0 0 -1
outer loop
vertex 0.2285771 9.524118 2.178941
vertex -0.3547563 9.724118 2.178941
vertex 0.2285771 9.724118 2.178941
endloop
endfacet
endsolid steel_partition
