solid vinyl_sheet
facet normal -4.099285e-15 -1 -7.820439e-16
outer loop
vertex -4.371423 3.042261 -0.7210586
vertex -3.721423 3.042261 -0.7210586
vertex -4.371423 3.042261 -0.1532015
endloop
endfacet
facet normal -2.830459e-15 -1 6.703233e-16
outer loop
vertex -4.371423 3.042261 -0.1532015
vertex -3.721423 3.042261 -0.7210586
vertex -3.721423 3.042261 -0.05855865
endloop
endfacet
facet normal -2.732857e-15 -1 0
outer loop
vertex -4.371423 3.042261 -0.1532015
vertex -3.721423 3.042261 -0.05855865
vertex -4.371423 3.042261 0.4146556
endloop
endfacet
facet normal -2.732857e-15 -1 0
outer loop
vertex -4.371423 3.042261 0.4146556
vertex -3.721423 3.042261 -0.05855865
vertex -3.721423 3.042261 0.6039414
endloop
endfacet
facet normal -2.732857e-15 -1 0
outer loop
vertex -4.371423 3.042261 0.4146556
vertex -3.721423 3.042261 0.6039414
vertex -4.371423 3.042261 0.9825128
endloop
endfacet
facet normal -2.732857e-15 -1 0
outer loop
vertex -4.371423 3.042261 0.9825128
vertex -3.721423 3.042261 0.6039414
vertex -3.721423 3.042261 1.266441
endloop
endfacet
facet normal -2.732857e-15 -1 4.274428e-30
outer loop
vertex -4.371423 3.042261 0.9825128
vertex -3.721423 3.042261 1.266441
vertex -4.371423 3.042261 1.55037
endloop
endfacet
facet normal -2.732857e-15 -1 0
outer loop
vertex -4.371423 3.042261 1.55037
vertex -3.721423 3.042261 1.266441
vertex -3.721423 3.042261 1.928941
endloop
endfacet
facet normal -2.732857e-15 -1 0
outer loop
vertex -4.371423 3.042261 1.55037
vertex -3.721423 3.042261 1.928941
vertex -4.371423 3.042261 2.118227
endloop
endfacet
facet normal -2.732857e-15 -1 0
outer loop
vertex -4.371423 3.042261 2.118227
vertex -3.721423 3.042261 1.928941
vertex -3.721423 3.042261 2.591441
endloop
endfacet
facet normal -2.732857e-15 -1 0
outer loop
vertex -4.371423 3.042261 2.118227
vertex -3.721423 3.042261 2.591441
vertex -4.371423 3.042261 2.686084
endloop
endfacet
facet normal -2.732857e-15 -1 5.495693e-30
outer loop
vertex -4.371423 3.042261 2.686084
vertex -3.721423 3.042261 2.591441
vertex -3.721423 3.042261 3.253941
endloop
endfacet
facet normal -3.416071e-15 -1 7.820439e-16
outer loop
vertex -4.371423 3.042261 2.686084
vertex -3.721423 3.042261 3.253941
vertex -4.371423 3.042261 3.253941
endloop
endfacet
facet normal -2.732857e-15 -1 6.703233e-16
outer loop
vertex -3.721423 3.042261 -0.7210586
vertex -3.071423 3.042261 -0.7210586
vertex -3.721423 3.042261 -0.05855865
endloop
endfacet
facet normal -3.416071e-15 -1 0
outer loop
vertex -3.721423 3.042261 -0.05855865
vertex -3.071423 3.042261 -0.7210586
vertex -3.071423 3.042261 -0.05855865
endloop
endfacet
facet normal -3.416071e-15 -1 0
outer loop
vertex -3.721423 3.042261 -0.05855865
vertex -3.071423 3.042261 -0.05855865
vertex -3.721423 3.042261 0.6039414
endloop
endfacet
facet normal -3.416071e-15 -1 0
outer loop
vertex -3.721423 3.042261 0.6039414
vertex -3.071423 3.042261 -0.05855865
vertex -3.071423 3.042261 0.6039414
endloop
endfacet
facet normal -3.416071e-15 -1 0
outer loop
vertex -3.721423 3.042261 0.6039414
vertex -3.071423 3.042261 0.6039414
vertex -3.721423 3.042261 1.266441
endloop
endfacet
facet normal -3.416071e-15 -1 0
outer loop
vertex -3.721423 3.042261 1.266441
vertex -3.071423 3.042261 0.6039414
vertex -3.071423 3.042261 1.266441
endloop
endfacet
facet normal -3.416071e-15 -1 0
outer loop
vertex -3.721423 3.042261 1.266441
vertex -3.071423 3.042261 1.266441
vertex -3.721423 3.042261 1.928941
endloop
endfacet
facet normal -3.416071e-15 -1 0
outer loop
vertex -3.721423 3.042261 1.928941
vertex -3.071423 3.042261 1.266441
vertex -3.071423 3.042261 1.928941
endloop
endfacet
facet normal -3.416071e-15 -1 0
outer loop
vertex -3.721423 3.042261 1.928941
vertex -3.071423 3.042261 1.928941
vertex -3.721423 3.042261 2.591441
endloop
endfacet
facet normal -3.416071e-15 -1 0
outer loop
vertex -3.721423 3.042261 2.591441
vertex -3.071423 3.042261 1.928941
vertex -3.071423 3.042261 2.591441
endloop
endfacet
facet normal -3.416071e-15 -1 6.869616e-30
outer loop
vertex -3.721423 3.042261 2.591441
vertex -3.071423 3.042261 2.591441
vertex -3.721423 3.042261 3.253941
endloop
endfacet
facet normal -3.416071e-15 -1 2.289872e-30
outer loop
vertex -3.721423 3.042261 3.253941
vertex -3.071423 3.042261 2.591441
vertex -3.071423 3.042261 3.253941
endloop
endfacet
facet normal -3.416071e-15 -1 2.289872e-30
outer loop
vertex -3.071423 3.042261 3.253941
vertex -3.071423 3.042261 2.591441
vertex -2.421423 3.042261 2.591441
endloop
endfacet
facet normal -2.732857e-15 -1 6.703233e-16
outer loop
vertex -3.071423 3.042261 3.253941
vertex -2.421423 3.042261 2.591441
vertex -2.421423 3.042261 3.253941
endloop
endfacet
facet normal -2.732857e-15 -1 6.703233e-16
outer loop
vertex -2.421423 3.042261 3.253941
vertex -2.421423 3.042261 2.591441
vertex -1.771423 3.042261 2.591441
endloop
endfacet
facet normal -3.416071e-15 -1 1.373923e-30
outer loop
vertex -2.421423 3.042261 3.253941
vertex -1.771423 3.042261 2.591441
vertex -1.771423 3.042261 3.253941
endloop
endfacet
facet normal -3.416071e-15 -1 1.144936e-30
outer loop
vertex -1.771423 3.042261 3.253941
vertex -1.771423 3.042261 2.591441
vertex -1.121423 3.042261 2.591441
endloop
endfacet
facet normal -2.732857e-15 -1 6.703233e-16
outer loop
vertex -1.771423 3.042261 3.253941
vertex -1.121423 3.042261 2.591441
vertex -1.121423 3.042261 3.253941
endloop
endfacet
facet normal -3.416071e-15 -1 6.703233e-16
outer loop
vertex -1.121423 3.042261 3.253941
vertex -1.121423 3.042261 2.591441
vertex -0.4714229 3.042261 2.591441
endloop
endfacet
facet normal -3.416071e-15 -1 6.703233e-16
outer loop
vertex -1.121423 3.042261 3.253941
vertex -0.4714229 3.042261 2.591441
vertex -0.4714229 3.042261 3.253941
endloop
endfacet
facet normal -2.732857e-15 -1 6.703233e-16
outer loop
vertex -0.4714229 3.042261 3.253941
vertex -0.4714229 3.042261 2.591441
vertex 0.1785771 3.042261 2.591441
endloop
endfacet
facet normal -2.732857e-15 -1 6.703233e-16
outer loop
vertex -0.4714229 3.042261 3.253941
vertex 0.1785771 3.042261 2.591441
vertex 0.1785771 3.042261 3.253941
endloop
endfacet
facet normal -2.830459e-15 -1 6.703233e-16
outer loop
vertex 0.1785771 3.042261 3.253941
vertex 0.1785771 3.042261 2.591441
vertex 0.8285771 3.042261 2.686084
endloop
endfacet
facet normal -3.416071e-15 -1 0
outer loop
vertex 0.1785771 3.042261 3.253941
vertex 0.8285771 3.042261 2.686084
vertex 0.8285771 3.042261 3.253941
endloop
endfacet
facet normal -3.416071e-15 -1 0
outer loop
vertex -3.071423 3.042261 -0.7210586
vertex -2.421423 3.042261 -0.7210586
vertex -3.071423 3.042261 -0.05855865
endloop
endfacet
facet normal -3.416071e-15 -1 0
outer loop
vertex -3.071423 3.042261 -0.05855865
vertex -2.421423 3.042261 -0.7210586
vertex -2.421423 3.042261 -0.05855865
endloop
endfacet
facet normal -3.416071e-15 -1 0
outer loop
vertex -3.071423 3.042261 -0.05855865
vertex -2.421423 3.042261 -0.05855865
vertex -3.071423 3.042261 0.6039414
endloop
endfacet
facet normal -3.416071e-15 -1 0
outer loop
vertex -3.071423 3.042261 0.6039414
vertex -2.421423 3.042261 -0.05855865
vertex -2.421423 3.042261 0.6039414
endloop
endfacet
facet normal -3.416071e-15 -1 0
outer loop
vertex -3.071423 3.042261 0.6039414
vertex -2.421423 3.042261 0.6039414
vertex -3.071423 3.042261 1.266441
endloop
endfacet
facet normal -3.416071e-15 -1 0
outer loop
vertex -3.071423 3.042261 1.266441
vertex -2.421423 3.042261 0.6039414
vertex -2.421423 3.042261 1.266441
endloop
endfacet
facet normal -3.416071e-15 -1 0
outer loop
vertex -3.071423 3.042261 1.266441
vertex -2.421423 3.042261 1.266441
vertex -3.071423 3.042261 1.928941
endloop
endfacet
facet normal -3.416071e-15 -1 0
outer loop
vertex -3.071423 3.042261 1.928941
vertex -2.421423 3.042261 1.266441
vertex -2.421423 3.042261 1.928941
endloop
endfacet
facet normal -3.416071e-15 -1 0
outer loop
vertex -3.071423 3.042261 1.928941
vertex -2.421423 3.042261 1.928941
vertex -3.071423 3.042261 2.591441
endloop
endfacet
facet normal -3.416071e-15 -1 0
outer loop
vertex -3.071423 3.042261 2.591441
vertex -2.421423 3.042261 1.928941
vertex -2.421423 3.042261 2.591441
endloop
endfacet
facet normal -2.732857e-15 -1 0
outer loop
vertex -2.421423 3.042261 -0.7210586
vertex -1.771423 3.042261 -0.7210586
vertex -2.421423 3.042261 -0.05855865
endloop
endfacet
facet normal -2.732857e-15 -1 9.159488e-31
outer loop
vertex -2.421423 3.042261 -0.05855865
vertex -1.771423 3.042261 -0.7210586
vertex -1.771423 3.042261 -0.05855865
endloop
endfacet
facet normal -2.732857e-15 -1 0
outer loop
vertex -2.421423 3.042261 -0.05855865
vertex -1.771423 3.042261 -0.05855865
vertex -2.421423 3.042261 0.6039414
endloop
endfacet
facet normal -2.732857e-15 -1 0
outer loop
vertex -2.421423 3.042261 0.6039414
vertex -1.771423 3.042261 -0.05855865
vertex -1.771423 3.042261 0.6039414
endloop
endfacet
facet normal -2.732857e-15 -1 0
outer loop
vertex -2.421423 3.042261 0.6039414
vertex -1.771423 3.042261 0.6039414
vertex -2.421423 3.042261 1.266441
endloop
endfacet
facet normal -2.732857e-15 -1 0
outer loop
vertex -2.421423 3.042261 1.266441
vertex -1.771423 3.042261 0.6039414
vertex -1.771423 3.042261 1.266441
endloop
endfacet
facet normal -2.732857e-15 -1 0
outer loop
vertex -2.421423 3.042261 1.266441
vertex -1.771423 3.042261 1.266441
vertex -2.421423 3.042261 1.928941
endloop
endfacet
facet normal -2.732857e-15 -1 0
outer loop
vertex -2.421423 3.042261 1.928941
vertex -1.771423 3.042261 1.266441
vertex -1.771423 3.042261 1.928941
endloop
endfacet
facet normal -2.732857e-15 -1 0
outer loop
vertex -2.421423 3.042261 1.928941
vertex -1.771423 3.042261 1.928941
vertex -2.421423 3.042261 2.591441
endloop
endfacet
facet normal -2.732857e-15 -1 0
outer loop
vertex -2.421423 3.042261 2.591441
vertex -1.771423 3.042261 1.928941
vertex -1.771423 3.042261 2.591441
endloop
endfacet
facet normal -3.416071e-15 -1 1.144936e-30
outer loop
vertex -1.771423 3.042261 -0.7210586
vertex -1.121423 3.042261 -0.7210586
vertex -1.771423 3.042261 -0.05855865
endloop
endfacet
facet normal -3.416071e-15 -1 0
outer loop
vertex -1.771423 3.042261 -0.05855865
vertex -1.121423 3.042261 -0.7210586
vertex -1.121423 3.042261 -0.05855865
endloop
endfacet
facet normal -3.416071e-15 -1 0
outer loop
vertex -1.771423 3.042261 -0.05855865
vertex -1.121423 3.042261 -0.05855865
vertex -1.771423 3.042261 0.6039414
endloop
endfacet
facet normal -3.416071e-15 -1 0
outer loop
vertex -1.771423 3.042261 0.6039414
vertex -1.121423 3.042261 -0.05855865
vertex -1.121423 3.042261 0.6039414
endloop
endfacet
facet normal -3.416071e-15 -1 0
outer loop
vertex -1.771423 3.042261 0.6039414
vertex -1.121423 3.042261 0.6039414
vertex -1.771423 3.042261 1.266441
endloop
endfacet
facet normal -3.416071e-15 -1 0
outer loop
vertex -1.771423 3.042261 1.266441
vertex -1.121423 3.042261 0.6039414
vertex -1.121423 3.042261 1.266441
endloop
endfacet
facet normal -3.416071e-15 -1 0
outer loop
vertex -1.771423 3.042261 1.266441
vertex -1.121423 3.042261 1.266441
vertex -1.771423 3.042261 1.928941
endloop
endfacet
facet normal -3.416071e-15 -1 0
outer loop
vertex -1.771423 3.042261 1.928941
vertex -1.121423 3.042261 1.266441
vertex -1.121423 3.042261 1.928941
endloop
endfacet
facet normal -3.416071e-15 -1 0
outer loop
vertex -1.771423 3.042261 1.928941
vertex -1.121423 3.042261 1.928941
vertex -1.771423 3.042261 2.591441
endloop
endfacet
facet normal -3.416071e-15 -1 0
outer loop
vertex -1.771423 3.042261 2.591441
vertex -1.121423 3.042261 1.928941
vertex -1.121423 3.042261 2.591441
endloop
endfacet
facet normal -2.732857e-15 -1 0
outer loop
vertex -1.121423 3.042261 -0.7210586
vertex -0.4714229 3.042261 -0.7210586
vertex -1.121423 3.042261 -0.05855865
endloop
endfacet
facet normal -3.416071e-15 -1 -6.703233e-16
outer loop
vertex -1.121423 3.042261 -0.05855865
vertex -0.4714229 3.042261 -0.7210586
vertex -0.4714229 3.042261 -0.05855865
endloop
endfacet
facet normal -3.416071e-15 -1 0
outer loop
vertex -1.121423 3.042261 -0.05855865
vertex -0.4714229 3.042261 -0.05855865
vertex -1.121423 3.042261 0.6039414
endloop
endfacet
facet normal -3.416071e-15 -1 0
outer loop
vertex -1.121423 3.042261 0.6039414
vertex -0.4714229 3.042261 -0.05855865
vertex -0.4714229 3.042261 0.6039414
endloop
endfacet
facet normal -3.416071e-15 -1 0
outer loop
vertex -1.121423 3.042261 0.6039414
vertex -0.4714229 3.042261 0.6039414
vertex -1.121423 3.042261 1.266441
endloop
endfacet
facet normal -3.416071e-15 -1 0
outer loop
vertex -1.121423 3.042261 1.266441
vertex -0.4714229 3.042261 0.6039414
vertex -0.4714229 3.042261 1.266441
endloop
endfacet
facet normal -3.416071e-15 -1 0
outer loop
vertex -1.121423 3.042261 1.266441
vertex -0.4714229 3.042261 1.266441
vertex -1.121423 3.042261 1.928941
endloop
endfacet
facet normal -3.416071e-15 -1 0
outer loop
vertex -1.121423 3.042261 1.928941
vertex -0.4714229 3.042261 1.266441
vertex -0.4714229 3.042261 1.928941
endloop
endfacet
facet normal -3.416071e-15 -1 0
outer loop
vertex -1.121423 3.042261 1.928941
vertex -0.4714229 3.042261 1.928941
vertex -1.121423 3.042261 2.591441
endloop
endfacet
facet normal -3.416071e-15 -1 0
outer loop
vertex -1.121423 3.042261 2.591441
vertex -0.4714229 3.042261 1.928941
vertex -0.4714229 3.042261 2.591441
endloop
endfacet
facet normal -3.416071e-15 -1 -6.703233e-16
outer loop
vertex -0.4714229 3.042261 -0.7210586
vertex 0.1785771 3.042261 -0.7210586
vertex -0.4714229 3.042261 -0.05855865
endloop
endfacet
facet normal -2.732857e-15 -1 0
outer loop
vertex -0.4714229 3.042261 -0.05855865
vertex 0.1785771 3.042261 -0.7210586
vertex 0.1785771 3.042261 -0.05855865
endloop
endfacet
facet normal -2.732857e-15 -1 0
outer loop
vertex -0.4714229 3.042261 -0.05855865
vertex 0.1785771 3.042261 -0.05855865
vertex -0.4714229 3.042261 0.6039414
endloop
endfacet
facet normal -2.732857e-15 -1 0
outer loop
vertex -0.4714229 3.042261 0.6039414
vertex 0.1785771 3.042261 -0.05855865
vertex 0.1785771 3.042261 0.6039414
endloop
endfacet
facet normal -2.732857e-15 -1 0
outer loop
vertex -0.4714229 3.042261 0.6039414
vertex 0.1785771 3.042261 0.6039414
vertex -0.4714229 3.042261 1.266441
endloop
endfacet
facet normal -2.732857e-15 -1 0
outer loop
vertex -0.4714229 3.042261 1.266441
vertex 0.1785771 3.042261 0.6039414
vertex 0.1785771 3.042261 1.266441
endloop
endfacet
facet normal -2.732857e-15 -1 0
outer loop
vertex -0.4714229 3.042261 1.266441
vertex 0.1785771 3.042261 1.266441
vertex -0.4714229 3.042261 1.928941
endloop
endfacet
facet normal -2.732857e-15 -1 0
outer loop
vertex -0.4714229 3.042261 1.928941
vertex 0.1785771 3.042261 1.266441
vertex 0.1785771 3.042261 1.928941
endloop
endfacet
facet normal -2.732857e-15 -1 0
outer loop
vertex -0.4714229 3.042261 1.928941
vertex 0.1785771 3.042261 1.928941
vertex -0.4714229 3.042261 2.591441
endloop
endfacet
facet normal -2.732857e-15 -1 0
outer loop
vertex -0.4714229 3.042261 2.591441
vertex 0.1785771 3.042261 1.928941
vertex 0.1785771 3.042261 2.591441
endloop
endfacet
facet normal -2.732857e-15 -1 -1.068607e-30
outer loop
vertex 0.8285771 3.042261 -0.7210586
vertex 0.8285771 3.042261 -0.1532015
vertex 0.1785771 3.042261 -0.7210586
endloop
endfacet
facet normal -2.732857e-15 -1 0
outer loop
vertex 0.1785771 3.042261 -0.7210586
vertex 0.8285771 3.042261 -0.1532015
vertex 0.1785771 3.042261 -0.05855865
endloop
endfacet
facet normal -2.732857e-15 -1 0
outer loop
vertex 0.8285771 3.042261 -0.1532015
vertex 0.8285771 3.042261 0.4146556
vertex 0.1785771 3.042261 -0.05855865
endloop
endfacet
facet normal -2.732857e-15 -1 0
outer loop
vertex 0.1785771 3.042261 -0.05855865
vertex 0.8285771 3.042261 0.4146556
vertex 0.1785771 3.042261 0.6039414
endloop
endfacet
facet normal -2.732857e-15 -1 0
outer loop
vertex 0.8285771 3.042261 0.4146556
vertex 0.8285771 3.042261 0.9825128
vertex 0.1785771 3.042261 0.6039414
endloop
endfacet
facet normal -2.732857e-15 -1 0
outer loop
vertex 0.1785771 3.042261 0.6039414
vertex 0.8285771 3.042261 0.9825128
vertex 0.1785771 3.042261 1.266441
endloop
endfacet
facet normal -2.732857e-15 -1 0
outer loop
vertex 0.8285771 3.042261 0.9825128
vertex 0.8285771 3.042261 1.55037
vertex 0.1785771 3.042261 1.266441
endloop
endfacet
facet normal -2.732857e-15 -1 0
outer loop
vertex 0.1785771 3.042261 1.266441
vertex 0.8285771 3.042261 1.55037
vertex 0.1785771 3.042261 1.928941
endloop
endfacet
facet normal -2.732857e-15 -1 0
outer loop
vertex 0.8285771 3.042261 1.55037
vertex 0.8285771 3.042261 2.118227
vertex 0.1785771 3.042261 1.928941
endloop
endfacet
facet normal -2.732857e-15 -1 0
outer loop
vertex 0.1785771 3.042261 1.928941
vertex 0.8285771 3.042261 2.118227
vertex 0.1785771 3.042261 2.591441
endloop
endfacet
facet normal -2.732857e-15 -1 0
outer loop
vertex 0.8285771 3.042261 2.118227
vertex 0.8285771 3.042261 2.686084
vertex 0.1785771 3.042261 2.591441
endloop
endfacet
facet normal 3.416071e-15 1 1.564088e-15
outer loop
vertex -4.371423 3.242261 -0.7210586
vertex -4.371423 3.242261 -0.1532015
vertex -3.721423 3.242261 -0.7210586
endloop
endfacet
facet normal 2.049643e-15 1 -2.747846e-30
outer loop
vertex -3.721423 3.242261 -0.7210586
vertex -4.371423 3.242261 -0.1532015
vertex -3.721423 3.242261 -0.05855865
endloop
endfacet
facet normal 4.099285e-15 1 -5.495693e-30
outer loop
vertex -3.721423 3.242261 -0.7210586
vertex -3.721423 3.242261 -0.05855865
vertex -3.071423 3.242261 -0.05855865
endloop
endfacet
facet normal 4.099285e-15 1 0
outer loop
vertex -3.071423 3.242261 -0.05855865
vertex -3.721423 3.242261 -0.05855865
vertex -3.071423 3.242261 0.6039414
endloop
endfacet
facet normal 3.416071e-15 1 0
outer loop
vertex -3.071423 3.242261 -0.05855865
vertex -3.071423 3.242261 0.6039414
vertex -2.421423 3.242261 0.6039414
endloop
endfacet
facet normal 3.416071e-15 1 0
outer loop
vertex -2.421423 3.242261 0.6039414
vertex -3.071423 3.242261 0.6039414
vertex -2.421423 3.242261 1.266441
endloop
endfacet
facet normal 2.049643e-15 1 0
outer loop
vertex -2.421423 3.242261 0.6039414
vertex -2.421423 3.242261 1.266441
vertex -1.771423 3.242261 1.266441
endloop
endfacet
facet normal 2.049643e-15 1 0
outer loop
vertex -1.771423 3.242261 1.266441
vertex -2.421423 3.242261 1.266441
vertex -1.771423 3.242261 1.928941
endloop
endfacet
facet normal 4.099285e-15 1 0
outer loop
vertex -1.771423 3.242261 1.266441
vertex -1.771423 3.242261 1.928941
vertex -1.121423 3.242261 1.928941
endloop
endfacet
facet normal 4.099285e-15 1 0
outer loop
vertex -1.121423 3.242261 1.928941
vertex -1.771423 3.242261 1.928941
vertex -1.121423 3.242261 2.591441
endloop
endfacet
facet normal 3.416071e-15 1 0
outer loop
vertex -1.121423 3.242261 1.928941
vertex -1.121423 3.242261 2.591441
vertex -0.4714229 3.242261 2.591441
endloop
endfacet
facet normal 3.416071e-15 1 -1.340647e-15
outer loop
vertex -0.4714229 3.242261 2.591441
vertex -1.121423 3.242261 2.591441
vertex -0.4714229 3.242261 3.253941
endloop
endfacet
facet normal 4.099285e-15 1 -1.340647e-15
outer loop
vertex -0.4714229 3.242261 2.591441
vertex -0.4714229 3.242261 3.253941
vertex 0.1785771 3.242261 3.253941
endloop
endfacet
facet normal 2.049643e-15 1 0
outer loop
vertex -4.371423 3.242261 -0.1532015
vertex -4.371423 3.242261 0.4146556
vertex -3.721423 3.242261 -0.05855865
endloop
endfacet
facet normal 2.049643e-15 1 0
outer loop
vertex -3.721423 3.242261 -0.05855865
vertex -4.371423 3.242261 0.4146556
vertex -3.721423 3.242261 0.6039414
endloop
endfacet
facet normal 4.099285e-15 1 0
outer loop
vertex -3.721423 3.242261 -0.05855865
vertex -3.721423 3.242261 0.6039414
vertex -3.071423 3.242261 0.6039414
endloop
endfacet
facet normal 4.099285e-15 1 0
outer loop
vertex -3.071423 3.242261 0.6039414
vertex -3.721423 3.242261 0.6039414
vertex -3.071423 3.242261 1.266441
endloop
endfacet
facet normal 3.416071e-15 1 0
outer loop
vertex -3.071423 3.242261 0.6039414
vertex -3.071423 3.242261 1.266441
vertex -2.421423 3.242261 1.266441
endloop
endfacet
facet normal 3.416071e-15 1 0
outer loop
vertex -2.421423 3.242261 1.266441
vertex -3.071423 3.242261 1.266441
vertex -2.421423 3.242261 1.928941
endloop
endfacet
facet normal 2.049643e-15 1 0
outer loop
vertex -2.421423 3.242261 1.266441
vertex -2.421423 3.242261 1.928941
vertex -1.771423 3.242261 1.928941
endloop
endfacet
facet normal 2.049643e-15 1 0
outer loop
vertex -1.771423 3.242261 1.928941
vertex -2.421423 3.242261 1.928941
vertex -1.771423 3.242261 2.591441
endloop
endfacet
facet normal 4.099285e-15 1 0
outer loop
vertex -1.771423 3.242261 1.928941
vertex -1.771423 3.242261 2.591441
vertex -1.121423 3.242261 2.591441
endloop
endfacet
facet normal 4.099285e-15 1 2.747846e-30
outer loop
vertex -1.121423 3.242261 2.591441
vertex -1.771423 3.242261 2.591441
vertex -1.121423 3.242261 3.253941
endloop
endfacet
facet normal 2.049643e-15 1 1.373923e-30
outer loop
vertex -1.121423 3.242261 2.591441
vertex -1.121423 3.242261 3.253941
vertex -0.4714229 3.242261 3.253941
endloop
endfacet
facet normal 2.049643e-15 1 0
outer loop
vertex -4.371423 3.242261 0.4146556
vertex -4.371423 3.242261 0.9825128
vertex -3.721423 3.242261 0.6039414
endloop
endfacet
facet normal 2.049643e-15 1 0
outer loop
vertex -3.721423 3.242261 0.6039414
vertex -4.371423 3.242261 0.9825128
vertex -3.721423 3.242261 1.266441
endloop
endfacet
facet normal 4.099285e-15 1 0
outer loop
vertex -3.721423 3.242261 0.6039414
vertex -3.721423 3.242261 1.266441
vertex -3.071423 3.242261 1.266441
endloop
endfacet
facet normal 4.099285e-15 1 0
outer loop
vertex -3.071423 3.242261 1.266441
vertex -3.721423 3.242261 1.266441
vertex -3.071423 3.242261 1.928941
endloop
endfacet
facet normal 3.416071e-15 1 0
outer loop
vertex -3.071423 3.242261 1.266441
vertex -3.071423 3.242261 1.928941
vertex -2.421423 3.242261 1.928941
endloop
endfacet
facet normal 3.416071e-15 1 0
outer loop
vertex -2.421423 3.242261 1.928941
vertex -3.071423 3.242261 1.928941
vertex -2.421423 3.242261 2.591441
endloop
endfacet
facet normal 2.049643e-15 1 0
outer loop
vertex -2.421423 3.242261 1.928941
vertex -2.421423 3.242261 2.591441
vertex -1.771423 3.242261 2.591441
endloop
endfacet
facet normal 2.049643e-15 1 0
outer loop
vertex -1.771423 3.242261 2.591441
vertex -2.421423 3.242261 2.591441
vertex -1.771423 3.242261 3.253941
endloop
endfacet
facet normal 4.099285e-15 1 0
outer loop
vertex -1.771423 3.242261 2.591441
vertex -1.771423 3.242261 3.253941
vertex -1.121423 3.242261 3.253941
endloop
endfacet
facet normal 2.049643e-15 1 -3.205821e-30
outer loop
vertex -4.371423 3.242261 0.9825128
vertex -4.371423 3.242261 1.55037
vertex -3.721423 3.242261 1.266441
endloop
endfacet
facet normal 2.049643e-15 1 0
outer loop
vertex -3.721423 3.242261 1.266441
vertex -4.371423 3.242261 1.55037
vertex -3.721423 3.242261 1.928941
endloop
endfacet
facet normal 4.099285e-15 1 0
outer loop
vertex -3.721423 3.242261 1.266441
vertex -3.721423 3.242261 1.928941
vertex -3.071423 3.242261 1.928941
endloop
endfacet
facet normal 4.099285e-15 1 0
outer loop
vertex -3.071423 3.242261 1.928941
vertex -3.721423 3.242261 1.928941
vertex -3.071423 3.242261 2.591441
endloop
endfacet
facet normal 3.416071e-15 1 0
outer loop
vertex -3.071423 3.242261 1.928941
vertex -3.071423 3.242261 2.591441
vertex -2.421423 3.242261 2.591441
endloop
endfacet
facet normal 3.416071e-15 1 -2.289872e-30
outer loop
vertex -2.421423 3.242261 2.591441
vertex -3.071423 3.242261 2.591441
vertex -2.421423 3.242261 3.253941
endloop
endfacet
facet normal 2.049643e-15 1 -1.373923e-30
outer loop
vertex -2.421423 3.242261 2.591441
vertex -2.421423 3.242261 3.253941
vertex -1.771423 3.242261 3.253941
endloop
endfacet
facet normal 2.049643e-15 1 0
outer loop
vertex -4.371423 3.242261 1.55037
vertex -4.371423 3.242261 2.118227
vertex -3.721423 3.242261 1.928941
endloop
endfacet
facet normal 2.049643e-15 1 0
outer loop
vertex -3.721423 3.242261 1.928941
vertex -4.371423 3.242261 2.118227
vertex -3.721423 3.242261 2.591441
endloop
endfacet
facet normal 4.099285e-15 1 0
outer loop
vertex -3.721423 3.242261 1.928941
vertex -3.721423 3.242261 2.591441
vertex -3.071423 3.242261 2.591441
endloop
endfacet
facet normal 4.099285e-15 1 -2.747846e-30
outer loop
vertex -3.071423 3.242261 2.591441
vertex -3.721423 3.242261 2.591441
vertex -3.071423 3.242261 3.253941
endloop
endfacet
facet normal 3.416071e-15 1 -2.289872e-30
outer loop
vertex -3.071423 3.242261 2.591441
vertex -3.071423 3.242261 3.253941
vertex -2.421423 3.242261 3.253941
endloop
endfacet
facet normal 2.049643e-15 1 0
outer loop
vertex -4.371423 3.242261 2.118227
vertex -4.371423 3.242261 2.686084
vertex -3.721423 3.242261 2.591441
endloop
endfacet
facet normal 2.244847e-15 1 1.340647e-15
outer loop
vertex -3.721423 3.242261 2.591441
vertex -4.371423 3.242261 2.686084
vertex -3.721423 3.242261 3.253941
endloop
endfacet
facet normal 2.732857e-15 1 1.340647e-15
outer loop
vertex -3.721423 3.242261 2.591441
vertex -3.721423 3.242261 3.253941
vertex -3.071423 3.242261 3.253941
endloop
endfacet
facet normal 4.782499e-15 1 -1.564088e-15
outer loop
vertex -4.371423 3.242261 2.686084
vertex -4.371423 3.242261 3.253941
vertex -3.721423 3.242261 3.253941
endloop
endfacet
facet normal 2.049643e-15 1 -4.007276e-31
outer loop
vertex 0.8285771 3.242261 3.253941
vertex 0.8285771 3.242261 2.686084
vertex 0.1785771 3.242261 3.253941
endloop
endfacet
facet normal 2.049643e-15 1 1.717404e-30
outer loop
vertex 0.1785771 3.242261 3.253941
vertex 0.8285771 3.242261 2.686084
vertex 0.1785771 3.242261 2.591441
endloop
endfacet
facet normal 2.732857e-15 1 2.289872e-30
outer loop
vertex 0.1785771 3.242261 3.253941
vertex 0.1785771 3.242261 2.591441
vertex -0.4714229 3.242261 2.591441
endloop
endfacet
facet normal 2.732857e-15 1 0
outer loop
vertex -0.4714229 3.242261 2.591441
vertex 0.1785771 3.242261 2.591441
vertex -0.4714229 3.242261 1.928941
endloop
endfacet
facet normal 3.416071e-15 1 0
outer loop
vertex -0.4714229 3.242261 2.591441
vertex -0.4714229 3.242261 1.928941
vertex -1.121423 3.242261 1.928941
endloop
endfacet
facet normal 3.416071e-15 1 0
outer loop
vertex -1.121423 3.242261 1.928941
vertex -0.4714229 3.242261 1.928941
vertex -1.121423 3.242261 1.266441
endloop
endfacet
facet normal 4.099285e-15 1 0
outer loop
vertex -1.121423 3.242261 1.928941
vertex -1.121423 3.242261 1.266441
vertex -1.771423 3.242261 1.266441
endloop
endfacet
facet normal 4.099285e-15 1 0
outer loop
vertex -1.771423 3.242261 1.266441
vertex -1.121423 3.242261 1.266441
vertex -1.771423 3.242261 0.6039414
endloop
endfacet
facet normal 2.049643e-15 1 0
outer loop
vertex -1.771423 3.242261 1.266441
vertex -1.771423 3.242261 0.6039414
vertex -2.421423 3.242261 0.6039414
endloop
endfacet
facet normal 2.049643e-15 1 0
outer loop
vertex -2.421423 3.242261 0.6039414
vertex -1.771423 3.242261 0.6039414
vertex -2.421423 3.242261 -0.05855865
endloop
endfacet
facet normal 3.416071e-15 1 0
outer loop
vertex -2.421423 3.242261 0.6039414
vertex -2.421423 3.242261 -0.05855865
vertex -3.071423 3.242261 -0.05855865
endloop
endfacet
facet normal 3.416071e-15 1 1.340647e-15
outer loop
vertex -3.071423 3.242261 -0.05855865
vertex -2.421423 3.242261 -0.05855865
vertex -3.071423 3.242261 -0.7210586
endloop
endfacet
facet normal 2.732857e-15 1 1.340647e-15
outer loop
vertex -3.071423 3.242261 -0.05855865
vertex -3.071423 3.242261 -0.7210586
vertex -3.721423 3.242261 -0.7210586
endloop
endfacet
facet normal 2.049643e-15 1 0
outer loop
vertex 0.8285771 3.242261 2.686084
vertex 0.8285771 3.242261 2.118227
vertex 0.1785771 3.242261 2.591441
endloop
endfacet
facet normal 2.049643e-15 1 0
outer loop
vertex 0.1785771 3.242261 2.591441
vertex 0.8285771 3.242261 2.118227
vertex 0.1785771 3.242261 1.928941
endloop
endfacet
facet normal 2.732857e-15 1 0
outer loop
vertex 0.1785771 3.242261 2.591441
vertex 0.1785771 3.242261 1.928941
vertex -0.4714229 3.242261 1.928941
endloop
endfacet
facet normal 2.732857e-15 1 0
outer loop
vertex -0.4714229 3.242261 1.928941
vertex 0.1785771 3.242261 1.928941
vertex -0.4714229 3.242261 1.266441
endloop
endfacet
facet normal 3.416071e-15 1 0
outer loop
vertex -0.4714229 3.242261 1.928941
vertex -0.4714229 3.242261 1.266441
vertex -1.121423 3.242261 1.266441
endloop
endfacet
facet normal 3.416071e-15 1 0
outer loop
vertex -1.121423 3.242261 1.266441
vertex -0.4714229 3.242261 1.266441
vertex -1.121423 3.242261 0.6039414
endloop
endfacet
facet normal 4.099285e-15 1 0
outer loop
vertex -1.121423 3.242261 1.266441
vertex -1.121423 3.242261 0.6039414
vertex -1.771423 3.242261 0.6039414
endloop
endfacet
facet normal 4.099285e-15 1 0
outer loop
vertex -1.771423 3.242261 0.6039414
vertex -1.121423 3.242261 0.6039414
vertex -1.771423 3.242261 -0.05855865
endloop
endfacet
facet normal 2.049643e-15 1 0
outer loop
vertex -1.771423 3.242261 0.6039414
vertex -1.771423 3.242261 -0.05855865
vertex -2.421423 3.242261 -0.05855865
endloop
endfacet
facet normal 2.049643e-15 1 1.340647e-15
outer loop
vertex -2.421423 3.242261 -0.05855865
vertex -1.771423 3.242261 -0.05855865
vertex -2.421423 3.242261 -0.7210586
endloop
endfacet
facet normal 3.416071e-15 1 1.340647e-15
outer loop
vertex -2.421423 3.242261 -0.05855865
vertex -2.421423 3.242261 -0.7210586
vertex -3.071423 3.242261 -0.7210586
endloop
endfacet
facet normal 2.049643e-15 1 -4.007276e-31
outer loop
vertex 0.8285771 3.242261 2.118227
vertex 0.8285771 3.242261 1.55037
vertex 0.1785771 3.242261 1.928941
endloop
endfacet
facet normal 2.049643e-15 1 0
outer loop
vertex 0.1785771 3.242261 1.928941
vertex 0.8285771 3.242261 1.55037
vertex 0.1785771 3.242261 1.266441
endloop
endfacet
facet normal 2.732857e-15 1 0
outer loop
vertex 0.1785771 3.242261 1.928941
vertex 0.1785771 3.242261 1.266441
vertex -0.4714229 3.242261 1.266441
endloop
endfacet
facet normal 2.732857e-15 1 0
outer loop
vertex -0.4714229 3.242261 1.266441
vertex 0.1785771 3.242261 1.266441
vertex -0.4714229 3.242261 0.6039414
endloop
endfacet
facet normal 3.416071e-15 1 0
outer loop
vertex -0.4714229 3.242261 1.266441
vertex -0.4714229 3.242261 0.6039414
vertex -1.121423 3.242261 0.6039414
endloop
endfacet
facet normal 3.416071e-15 1 0
outer loop
vertex -1.121423 3.242261 0.6039414
vertex -0.4714229 3.242261 0.6039414
vertex -1.121423 3.242261 -0.05855865
endloop
endfacet
facet normal 4.099285e-15 1 0
outer loop
vertex -1.121423 3.242261 0.6039414
vertex -1.121423 3.242261 -0.05855865
vertex -1.771423 3.242261 -0.05855865
endloop
endfacet
facet normal 4.099285e-15 1 -2.747846e-30
outer loop
vertex -1.771423 3.242261 -0.05855865
vertex -1.121423 3.242261 -0.05855865
vertex -1.771423 3.242261 -0.7210586
endloop
endfacet
facet normal 3.416071e-15 1 -2.289872e-30
outer loop
vertex -1.771423 3.242261 -0.05855865
vertex -1.771423 3.242261 -0.7210586
vertex -2.421423 3.242261 -0.7210586
endloop
endfacet
facet normal 2.049643e-15 1 0
outer loop
vertex 0.8285771 3.242261 1.55037
vertex 0.8285771 3.242261 0.9825128
vertex 0.1785771 3.242261 1.266441
endloop
endfacet
facet normal 2.049643e-15 1 0
outer loop
vertex 0.1785771 3.242261 1.266441
vertex 0.8285771 3.242261 0.9825128
vertex 0.1785771 3.242261 0.6039414
endloop
endfacet
facet normal 2.732857e-15 1 0
outer loop
vertex 0.1785771 3.242261 1.266441
vertex 0.1785771 3.242261 0.6039414
vertex -0.4714229 3.242261 0.6039414
endloop
endfacet
facet normal 2.732857e-15 1 0
outer loop
vertex -0.4714229 3.242261 0.6039414
vertex 0.1785771 3.242261 0.6039414
vertex -0.4714229 3.242261 -0.05855865
endloop
endfacet
facet normal 3.416071e-15 1 0
outer loop
vertex -0.4714229 3.242261 0.6039414
vertex -0.4714229 3.242261 -0.05855865
vertex -1.121423 3.242261 -0.05855865
endloop
endfacet
facet normal 3.416071e-15 1 1.340647e-15
outer loop
vertex -1.121423 3.242261 -0.05855865
vertex -0.4714229 3.242261 -0.05855865
vertex -1.121423 3.242261 -0.7210586
endloop
endfacet
facet normal 2.732857e-15 1 1.340647e-15
outer loop
vertex -1.121423 3.242261 -0.05855865
vertex -1.121423 3.242261 -0.7210586
vertex -1.771423 3.242261 -0.7210586
endloop
endfacet
facet normal 2.049643e-15 1 -8.014552e-31
outer loop
vertex 0.8285771 3.242261 0.9825128
vertex 0.8285771 3.242261 0.4146556
vertex 0.1785771 3.242261 0.6039414
endloop
endfacet
facet normal 2.049643e-15 1 0
outer loop
vertex 0.1785771 3.242261 0.6039414
vertex 0.8285771 3.242261 0.4146556
vertex 0.1785771 3.242261 -0.05855865
endloop
endfacet
facet normal 2.732857e-15 1 0
outer loop
vertex 0.1785771 3.242261 0.6039414
vertex 0.1785771 3.242261 -0.05855865
vertex -0.4714229 3.242261 -0.05855865
endloop
endfacet
facet normal 2.732857e-15 1 1.340647e-15
outer loop
vertex -0.4714229 3.242261 -0.05855865
vertex 0.1785771 3.242261 -0.05855865
vertex -0.4714229 3.242261 -0.7210586
endloop
endfacet
facet normal 3.416071e-15 1 1.340647e-15
outer loop
vertex -0.4714229 3.242261 -0.05855865
vertex -0.4714229 3.242261 -0.7210586
vertex -1.121423 3.242261 -0.7210586
endloop
endfacet
facet normal 2.049643e-15 1 0
outer loop
vertex 0.8285771 3.242261 0.4146556
vertex 0.8285771 3.242261 -0.1532015
vertex 0.1785771 3.242261 -0.05855865
endloop
endfacet
facet normal 2.244847e-15 1 1.340647e-15
outer loop
vertex 0.1785771 3.242261 -0.05855865
vertex 0.8285771 3.242261 -0.1532015
vertex 0.1785771 3.242261 -0.7210586
endloop
endfacet
facet normal 2.732857e-15 1 1.340647e-15
outer loop
vertex 0.1785771 3.242261 -0.05855865
vertex 0.1785771 3.242261 -0.7210586
vertex -0.4714229 3.242261 -0.7210586
endloop
endfacet
facet normal 3.416071e-15 1 1.335759e-30
outer loop
vertex 0.8285771 3.242261 -0.1532015
vertex 0.8285771 3.242261 -0.7210586
vertex 0.1785771 3.242261 -0.7210586
endloop
endfacet
facet normal 0 0 -1
outer loop
vertex 0.8285771 3.242261 -0.7210586
vertex 0.8285771 3.042261 -0.7210586
vertex 0.1785771 3.242261 -0.7210586
endloop
endfacet
facet normal 0 0 -1
outer loop
vertex 0.1785771 3.242261 -0.7210586
vertex 0.8285771 3.042261 -0.7210586
vertex 0.1785771 3.042261 -0.7210586
endloop
endfacet
facet normal 0 0 -1
outer loop
vertex 0.1785771 3.242261 -0.7210586
vertex 0.1785771 3.042261 -0.7210586
vertex -0.4714229 3.242261 -0.7210586
endloop
endfacet
facet normal 0 0 -1
outer loop
vertex -0.4714229 3.242261 -0.7210586
vertex 0.1785771 3.042261 -0.7210586
vertex -0.4714229 3.042261 -0.7210586
endloop
endfacet
facet normal 0 0 -1
outer loop
vertex -0.4714229 3.242261 -0.7210586
vertex -0.4714229 3.042261 -0.7210586
vertex -1.121423 3.242261 -0.7210586
endloop
endfacet
facet normal 0 0 -1
outer loop
vertex -1.121423 3.242261 -0.7210586
vertex -0.4714229 3.042261 -0.7210586
vertex -1.121423 3.042261 -0.7210586
endloop
endfacet
facet normal 0 0 -1
outer loop
vertex -1.121423 3.242261 -0.7210586
vertex -1.121423 3.042261 -0.7210586
vertex -1.771423 3.242261 -0.7210586
endloop
endfacet
facet normal 0 0 -1
outer loop
vertex -1.771423 3.242261 -0.7210586
vertex -1.121423 3.042261 -0.7210586
vertex -1.771423 3.042261 -0.7210586
endloop
endfacet
facet normal 0 0 -1
outer loop
vertex -1.771423 3.242261 -0.7210586
vertex -1.771423 3.042261 -0.7210586
vertex -2.421423 3.242261 -0.7210586
endloop
endfacet
facet normal 0 0 -1
outer loop
vertex -2.421423 3.242261 -0.7210586
vertex -1.771423 3.042261 -0.7210586
vertex -2.421423 3.042261 -0.7210586
endloop
endfacet
facet normal 0 0 -1
outer loop
vertex -2.421423 3.242261 -0.7210586
vertex -2.421423 3.042261 -0.7210586
vertex -3.071423 3.242261 -0.7210586
endloop
endfacet
facet normal 0 0 -1
outer loop
vertex -3.071423 3.242261 -0.7210586
vertex -2.421423 3.042261 -0.7210586
vertex -3.071423 3.042261 -0.7210586
endloop
endfacet
facet normal 0 0 -1
outer loop
vertex -3.071423 3.242261 -0.7210586
vertex -3.071423 3.042261 -0.7210586
vertex -3.721423 3.242261 -0.7210586
endloop
endfacet
facet normal 0 0 -1
outer loop
vertex -3.721423 3.242261 -0.7210586
vertex -3.071423 3.042261 -0.7210586
vertex -3.721423 3.042261 -0.7210586
endloop
endfacet
facet normal 0 0 -1
outer loop
vertex -3.721423 3.242261 -0.7210586
vertex -3.721423 3.042261 -0.7210586
vertex -4.371423 3.242261 -0.7210586
endloop
endfacet
facet normal 0 0 -1
outer loop
vertex -4.371423 3.242261 -0.7210586
vertex -3.721423 3.042261 -0.7210586
vertex -4.371423 3.042261 -0.7210586
endloop
endfacet
facet normal 0 0 1
outer loop
vertex -4.371423 3.242261 3.253941
vertex -4.371423 3.042261 3.253941
vertex -3.721423 3.242261 3.253941
endloop
endfacet
facet normal 0 0 1
outer loop
vertex -3.721423 3.242261 3.253941
vertex -4.371423 3.042261 3.253941
vertex -3.721423 3.042261 3.253941
endloop
endfacet
facet normal 0 0 1
outer loop
vertex -3.721423 3.242261 3.253941
vertex -3.721423 3.042261 3.253941
vertex -3.071423 3.242261 3.253941
endloop
endfacet
facet normal 0 0 1
outer loop
vertex -3.071423 3.242261 3.253941
vertex -3.721423 3.042261 3.253941
vertex -3.071423 3.042261 3.253941
endloop
endfacet
facet normal 0 0 1
outer loop
vertex -3.071423 3.242261 3.253941
vertex -3.071423 3.042261 3.253941
vertex -2.421423 3.242261 3.253941
endloop
endfacet
facet normal 0 0 1
outer loop
vertex -2.421423 3.242261 3.253941
vertex -3.071423 3.042261 3.253941
vertex -2.421423 3.042261 3.253941
endloop
endfacet
facet normal 0 0 1
outer loop
vertex -2.421423 3.242261 3.253941
vertex -2.421423 3.042261 3.253941
vertex -1.771423 3.242261 3.253941
endloop
endfacet
facet normal 0 0 1
outer loop
vertex -1.771423 3.242261 3.253941
vertex -2.421423 3.042261 3.253941
vertex -1.771423 3.042261 3.253941
endloop
endfacet
facet normal 0 0 1
outer loop
vertex -1.771423 3.242261 3.253941
vertex -1.771423 3.042261 3.253941
vertex -1.121423 3.242261 3.253941
endloop
endfacet
facet normal 0 0 1
outer loop
vertex -1.121423 3.242261 3.253941
vertex -1.771423 3.042261 3.253941
vertex -1.121423 3.042261 3.253941
endloop
endfacet
facet normal 0 0 1
outer loop
vertex -1.121423 3.242261 3.253941
vertex -1.121423 3.042261 3.253941
vertex -0.4714229 3.242261 3.253941
endloop
endfacet
facet normal 0 0 1
outer loop
vertex -0.4714229 3.242261 3.253941
vertex -1.121423 3.042261 3.253941
vertex -0.4714229 3.042261 3.253941
endloop
endfacet
facet normal 0 0 1
outer loop
vertex -0.4714229 3.242261 3.253941
vertex -0.4714229 3.042261 3.253941
vertex 0.1785771 3.242261 3.253941
endloop
endfacet
facet normal 0 0 1
outer loop
vertex 0.1785771 3.242261 3.253941
vertex -0.4714229 3.042261 3.253941
vertex 0.1785771 3.042261 3.253941
endloop
endfacet
facet normal 0 0 1
outer loop
vertex 0.1785771 3.242261 3.253941
vertex 0.1785771 3.042261 3.253941
vertex 0.8285771 3.242261 3.253941
endloop
endfacet
facet normal 0 0 1
outer loop
vertex 0.8285771 3.242261 3.253941
vertex 0.1785771 3.042261 3.253941
vertex 0.8285771 3.042261 3.253941
endloop
endfacet
facet normal 1 -2.220446e-15 -1.95511e-16
outer loop
vertex 0.8285771 3.242261 3.253941
vertex 0.8285771 3.042261 3.253941
vertex 0.8285771 3.242261 2.686084
endloop
endfacet
facet normal 1 -1.665335e-15 0
outer loop
vertex 0.8285771 3.242261 2.686084
vertex 0.8285771 3.042261 3.253941
vertex 0.8285771 3.042261 2.686084
endloop
endfacet
facet normal 1 -1.665335e-15 0
outer loop
vertex 0.8285771 3.242261 2.686084
vertex 0.8285771 3.042261 2.686084
vertex 0.8285771 3.042261 2.118227
endloop
endfacet
facet normal 1 -1.665335e-15 0
outer loop
vertex 0.8285771 3.242261 2.686084
vertex 0.8285771 3.042261 2.118227
vertex 0.8285771 3.242261 2.118227
endloop
endfacet
facet normal 1 -1.665335e-15 0
outer loop
vertex 0.8285771 3.242261 2.118227
vertex 0.8285771 3.042261 2.118227
vertex 0.8285771 3.042261 1.55037
endloop
endfacet
facet normal 1 -1.110223e-15 -1.95511e-16
outer loop
vertex 0.8285771 3.242261 2.118227
vertex 0.8285771 3.042261 1.55037
vertex 0.8285771 3.242261 1.55037
endloop
endfacet
facet normal 1 -1.110223e-15 0
outer loop
vertex 0.8285771 3.242261 1.55037
vertex 0.8285771 3.042261 1.55037
vertex 0.8285771 3.042261 0.9825128
endloop
endfacet
facet normal 1 -1.110223e-15 0
outer loop
vertex 0.8285771 3.242261 1.55037
vertex 0.8285771 3.042261 0.9825128
vertex 0.8285771 3.242261 0.9825128
endloop
endfacet
facet normal 1 -1.110223e-15 0
outer loop
vertex 0.8285771 3.242261 0.9825128
vertex 0.8285771 3.042261 0.9825128
vertex 0.8285771 3.042261 0.4146556
endloop
endfacet
facet normal 1 4.341216e-31 -3.910219e-16
outer loop
vertex 0.8285771 3.242261 0.9825128
vertex 0.8285771 3.042261 0.4146556
vertex 0.8285771 3.242261 0.4146556
endloop
endfacet
facet normal 1 0 0
outer loop
vertex 0.8285771 3.242261 0.4146556
vertex 0.8285771 3.042261 0.4146556
vertex 0.8285771 3.042261 -0.1532015
endloop
endfacet
facet normal 1 0 0
outer loop
vertex 0.8285771 3.242261 0.4146556
vertex 0.8285771 3.042261 -0.1532015
vertex 0.8285771 3.242261 -0.1532015
endloop
endfacet
facet normal 1 -7.054475e-31 3.910219e-16
outer loop
vertex 0.8285771 3.242261 -0.1532015
vertex 0.8285771 3.042261 -0.1532015
vertex 0.8285771 3.242261 -0.7210586
endloop
endfacet
facet normal 1 0 3.910219e-16
outer loop
vertex 0.8285771 3.242261 -0.7210586
vertex 0.8285771 3.042261 -0.1532015
vertex 0.8285771 3.042261 -0.7210586
endloop
endfacet
facet normal -1 0 0
outer loop
vertex -4.371423 3.242261 -0.7210586
vertex -4.371423 3.042261 -0.7210586
vertex -4.371423 3.242261 -0.1532015
endloop
endfacet
facet normal -1 0 0
outer loop
vertex -4.371423 3.242261 -0.1532015
vertex -4.371423 3.042261 -0.7210586
vertex -4.371423 3.042261 -0.1532015
endloop
endfacet
facet normal -1 0 0
outer loop
vertex -4.371423 3.242261 -0.1532015
vertex -4.371423 3.042261 -0.1532015
vertex -4.371423 3.042261 0.4146556
endloop
endfacet
facet normal -1 0 0
outer loop
vertex -4.371423 3.242261 -0.1532015
vertex -4.371423 3.042261 0.4146556
vertex -4.371423 3.242261 0.4146556
endloop
endfacet
facet normal -1 0 0
outer loop
vertex -4.371423 3.242261 0.4146556
vertex -4.371423 3.042261 0.4146556
vertex -4.371423 3.042261 0.9825128
endloop
endfacet
facet normal -1 0 0
outer loop
vertex -4.371423 3.242261 0.4146556
vertex -4.371423 3.042261 0.9825128
vertex -4.371423 3.242261 0.9825128
endloop
endfacet
facet normal -1 1.736486e-30 1.564088e-15
outer loop
vertex -4.371423 3.242261 0.9825128
vertex -4.371423 3.042261 0.9825128
vertex -4.371423 3.042261 1.55037
endloop
endfacet
facet normal -1 0 1.564088e-15
outer loop
vertex -4.371423 3.242261 0.9825128
vertex -4.371423 3.042261 1.55037
vertex -4.371423 3.242261 1.55037
endloop
endfacet
facet normal -1 0 0
outer loop
vertex -4.371423 3.242261 1.55037
vertex -4.371423 3.042261 1.55037
vertex -4.371423 3.042261 2.118227
endloop
endfacet
facet normal -1 0 0
outer loop
vertex -4.371423 3.242261 1.55037
vertex -4.371423 3.042261 2.118227
vertex -4.371423 3.242261 2.118227
endloop
endfacet
facet normal -1 0 0
outer loop
vertex -4.371423 3.242261 2.118227
vertex -4.371423 3.042261 2.118227
vertex -4.371423 3.042261 2.686084
endloop
endfacet
facet normal -1 0 0
outer loop
vertex -4.371423 3.242261 2.118227
vertex -4.371423 3.042261 2.686084
vertex -4.371423 3.242261 2.686084
endloop
endfacet
facet normal -1 0 0
outer loop
vertex -4.371423 3.242261 2.686084
vertex -4.371423 3.042261 2.686084
vertex -4.371423 3.242261 3.253941
endloop
endfacet
facet normal -1 0 0
outer loop
vertex -4.371423 3.242261 3.253941
vertex -4.371423 3.042261 2.686084
vertex -4.371423 3.042261 3.253941
endloop
endfacet
endsolid vinyl_sheet
